# Blender v3.1.2 OBJ File: 'Resonance Levels.blend'
# www.blender.org
mtllib Glass Double Door Right 2.mtl
o Glass_Double_Door_Right_2_Glass_Double_Door_Right
v 14.960600 0.063500 -39.649399
v 14.960600 1.968500 -39.649399
v 14.960600 0.063500 -39.090599
v 14.960600 1.968500 -39.090599
v 14.884399 0.063500 -39.649399
v 14.884399 1.968500 -39.649399
v 14.884399 0.063500 -39.090599
v 14.884399 1.968500 -39.090599
v 14.960600 2.057400 -39.014400
v 14.960600 0.000000 -39.014400
v 14.884399 0.000000 -39.014400
v 14.884399 2.057400 -39.014400
v 14.960600 0.000000 -39.776402
v 14.960600 2.057400 -39.776402
v 14.884399 2.057400 -39.776402
v 14.884399 0.000000 -39.776402
v 14.935497 1.219200 -39.331894
v 14.935497 0.914400 -39.179493
v 14.935497 1.219200 -39.560490
v 14.935497 0.914400 -39.408089
v 14.935497 1.219200 -39.611294
v 14.935497 0.914400 -39.458893
v 14.935497 1.219200 -39.644848
v 14.935497 0.914400 -39.644848
v 14.935497 1.219200 -39.095829
v 14.935497 0.914400 -39.095829
v 14.935497 1.219200 -39.281090
v 14.935497 0.914400 -39.128689
v 14.909267 1.219200 -39.331894
v 14.909268 0.914400 -39.179493
v 14.909268 1.219200 -39.560490
v 14.909268 0.914400 -39.408089
v 14.909267 1.219200 -39.611294
v 14.909268 0.914400 -39.458893
v 14.909268 1.219200 -39.644848
v 14.909268 0.914400 -39.644848
v 14.909267 1.219200 -39.095829
v 14.909267 0.914400 -39.095829
v 14.909268 1.219200 -39.281090
v 14.909268 0.914400 -39.128689
vt 0.395880 0.278114
vt 0.406008 0.024935
vt 0.406008 0.278114
vt 0.524158 0.278114
vt 0.534286 0.016496
vt 0.534286 0.289929
vt 0.422886 0.289929
vt 0.321615 0.300057
vt 0.321615 0.289929
vt 0.311487 0.016496
vt 0.321615 0.016496
vt 0.321615 0.006368
vt 0.422886 0.016495
vt 0.433013 0.289929
vt 0.433014 0.016496
vt 0.331742 0.278114
vt 0.449892 0.024935
vt 0.524158 0.024935
vt 0.449892 0.278114
vt 0.524158 0.035062
vt 0.449892 0.035062
vt 0.449892 0.267987
vt 0.524158 0.267987
vt 0.341869 0.024935
vt 0.331742 0.024935
vt 0.860470 0.847482
vt 0.901783 0.857852
vt 0.860440 0.878474
vt 0.947770 0.868804
vt 0.907261 0.864344
vt 0.947770 0.864344
vt 0.954891 0.862725
vt 0.995400 0.867092
vt 0.954891 0.887346
vt 0.860470 0.847482
vt 0.901783 0.857852
vt 0.901813 0.826860
vt 0.947770 0.868804
vt 0.907261 0.864344
vt 0.907261 0.889058
vt 0.954891 0.862725
vt 0.995400 0.867092
vt 0.995400 0.862725
vt 0.395880 0.024935
vt 0.422886 0.300057
vt 0.311487 0.289929
vt 0.422886 0.006368
vt 0.341869 0.278114
vt 0.901813 0.826860
vt 0.907261 0.889058
vt 0.995400 0.862725
vt 0.860440 0.878474
vt 0.947770 0.864345
vt 0.954891 0.887346
vn 0.0000 0.0000 1.0000
vn -1.0000 0.0000 0.0000
vn 0.0000 1.0000 0.0000
vn 0.0000 -1.0000 0.0000
vn 0.0000 0.0000 -1.0000
vn 1.0000 0.0000 0.0000
usemtl Glass_Walls_and_Doors
s off
f 6/1/1 1/2/1 2/3/1
f 8/4/2 11/5/2 12/6/2
f 14/7/3 12/8/3 9/9/3
f 9/9/1 11/10/1 10/11/1
f 11/12/4 13/13/4 10/11/4
f 15/14/5 13/13/5 16/15/5
f 1/2/6 10/11/6 13/13/6
f 2/3/6 13/13/6 14/7/6
f 2/3/6 9/9/6 4/16/6
f 5/17/2 11/5/2 7/18/2
f 6/19/2 12/6/2 15/14/2
f 6/19/2 16/15/2 5/17/2
f 5/17/3 3/20/3 1/21/3
f 8/4/4 2/22/4 4/23/4
f 7/24/5 4/16/5 3/25/5
f 4/16/6 10/11/6 3/25/6
f 17/26/6 20/27/6 19/28/6
f 21/29/6 24/30/6 23/31/6
f 25/32/6 28/33/6 27/34/6
f 29/35/2 32/36/2 30/37/2
f 33/38/2 36/39/2 34/40/2
f 37/41/2 40/42/2 38/43/2
f 6/1/1 5/44/1 1/2/1
f 8/4/2 7/18/2 11/5/2
f 14/7/3 15/45/3 12/8/3
f 9/9/1 12/46/1 11/10/1
f 11/12/4 16/47/4 13/13/4
f 15/14/5 14/7/5 13/13/5
f 1/2/6 3/25/6 10/11/6
f 2/3/6 1/2/6 13/13/6
f 2/3/6 14/7/6 9/9/6
f 5/17/2 16/15/2 11/5/2
f 6/19/2 8/4/2 12/6/2
f 6/19/2 15/14/2 16/15/2
f 5/17/3 7/18/3 3/20/3
f 8/4/4 6/19/4 2/22/4
f 7/24/5 8/48/5 4/16/5
f 4/16/6 9/9/6 10/11/6
f 17/26/6 18/49/6 20/27/6
f 21/29/6 22/50/6 24/30/6
f 25/32/6 26/51/6 28/33/6
f 29/35/2 31/52/2 32/36/2
f 33/38/2 35/53/2 36/39/2
f 37/41/2 39/54/2 40/42/2
