# Blender v3.0.0 OBJ File: 'Resonance Levels.blend'
# www.blender.org
mtllib Interactable Valve (extra).mtl
v 0.089534 0.000000 -0.113586
v 0.089534 0.000000 -0.097526
v 0.095616 -0.025620 -0.113586
v 0.095616 -0.025620 -0.097526
v 0.085727 -0.049495 -0.113586
v 0.085727 -0.049495 -0.097526
v 0.063310 -0.063311 -0.113586
v 0.063310 -0.063311 -0.097526
v 0.049494 -0.085728 -0.113586
v 0.049494 -0.085728 -0.097526
v 0.025620 -0.095617 -0.113586
v 0.025620 -0.095617 -0.097526
v -0.000001 -0.089535 -0.113586
v -0.000001 -0.089535 -0.097526
v -0.025621 -0.095617 -0.113586
v -0.025621 -0.095617 -0.097526
v -0.049496 -0.085728 -0.113586
v -0.049496 -0.085728 -0.097526
v -0.063312 -0.063311 -0.113586
v -0.063312 -0.063311 -0.097526
v -0.085729 -0.049495 -0.113586
v -0.085729 -0.049495 -0.097526
v -0.095618 -0.025620 -0.113586
v -0.095618 -0.025620 -0.097526
v -0.089536 0.000000 -0.113586
v -0.089536 0.000000 -0.097526
v -0.095618 0.025621 -0.113586
v -0.095618 0.025621 -0.097526
v -0.085729 0.049495 -0.113585
v -0.085729 0.049495 -0.097526
v -0.063312 0.063311 -0.113585
v -0.063312 0.063311 -0.097526
v -0.049496 0.085728 -0.113585
v -0.049496 0.085728 -0.097526
v -0.025621 0.095618 -0.113586
v -0.025621 0.095618 -0.097526
v -0.000001 0.089535 -0.113586
v -0.000001 0.089535 -0.097526
v 0.025620 0.095618 -0.113586
v 0.025620 0.095618 -0.097526
v 0.049494 0.085728 -0.113586
v 0.049494 0.085728 -0.097526
v 0.063310 0.063311 -0.113586
v 0.063310 0.063311 -0.097526
v 0.085727 0.049495 -0.113586
v 0.085727 0.049495 -0.097526
v 0.095616 0.025621 -0.113586
v 0.095616 0.025621 -0.097526
v 0.124058 0.000000 -0.113586
v 0.132485 -0.035499 -0.113586
v 0.132485 -0.035499 -0.097526
v 0.124058 0.000000 -0.097526
v 0.118783 -0.068580 -0.113586
v 0.118783 -0.068580 -0.097526
v 0.087722 -0.087723 -0.113586
v 0.087722 -0.087723 -0.097526
v 0.068579 -0.118784 -0.113586
v 0.068579 -0.118784 -0.097526
v 0.035499 -0.132486 -0.113586
v 0.035499 -0.132486 -0.097526
v -0.000001 -0.124059 -0.113586
v -0.000001 -0.124059 -0.097526
v -0.035501 -0.132486 -0.113586
v -0.035501 -0.132486 -0.097526
v -0.068581 -0.118784 -0.113586
v -0.068581 -0.118784 -0.097526
v -0.087724 -0.087723 -0.113586
v -0.087724 -0.087723 -0.097526
v -0.118785 -0.068580 -0.113586
v -0.118785 -0.068580 -0.097526
v -0.132487 -0.035499 -0.113586
v -0.132487 -0.035499 -0.097526
v -0.124060 0.000000 -0.113586
v -0.124060 0.000000 -0.097526
v -0.132487 0.035500 -0.113586
v -0.132487 0.035500 -0.097526
v -0.118785 0.068580 -0.113585
v -0.118785 0.068580 -0.097526
v -0.087724 0.087723 -0.113585
v -0.087724 0.087723 -0.097526
v -0.068581 0.118784 -0.113585
v -0.068581 0.118784 -0.097526
v -0.035501 0.132487 -0.113586
v -0.035501 0.132487 -0.097526
v -0.000001 0.124059 -0.113586
v -0.000001 0.124059 -0.097526
v 0.035499 0.132487 -0.113586
v 0.035499 0.132487 -0.097526
v 0.068579 0.118784 -0.113586
v 0.068579 0.118784 -0.097526
v 0.087722 0.087723 -0.113586
v 0.087722 0.087723 -0.097526
v 0.118783 0.068580 -0.113586
v 0.118783 0.068580 -0.097526
v 0.132485 0.035500 -0.113586
v 0.132485 0.035500 -0.097526
v -0.012701 -0.012700 -0.117504
v -0.012701 0.012700 -0.117504
v 0.012699 -0.012700 -0.117504
v 0.012699 0.012700 -0.117504
v -0.012701 -0.012700 -0.052380
v -0.012701 0.012700 -0.052380
v 0.012699 -0.012700 -0.052380
v 0.012699 0.012700 -0.052380
v -0.009526 -0.009525 -0.110735
v -0.009526 0.009525 -0.110735
v 0.009524 -0.009525 -0.110735
v 0.009524 0.009525 -0.110735
v -0.009526 -0.009525 -0.100384
v -0.009526 0.009525 -0.100384
v 0.009524 -0.009525 -0.100384
v 0.009524 0.009525 -0.100384
v 0.009524 -0.093406 -0.110735
v 0.009524 -0.093406 -0.100384
v -0.009526 -0.093406 -0.100384
v -0.009526 -0.093406 -0.110735
v 0.009524 0.093406 -0.100384
v 0.009524 0.093406 -0.110735
v -0.009526 0.093406 -0.110735
v -0.009526 0.093406 -0.100384
v 0.093405 -0.009525 -0.110735
v 0.093405 0.009525 -0.110735
v 0.093405 0.009525 -0.100384
v 0.093405 -0.009525 -0.100384
v -0.093407 -0.009525 -0.100384
v -0.093407 0.009525 -0.100384
v -0.093407 0.009525 -0.110735
v -0.093407 -0.009525 -0.110735
vt 0.199966 0.048655
vt 0.159497 0.016119
vt 0.205395 0.028453
vt 0.159795 0.744915
vt 0.107930 0.750040
vt 0.114702 0.729816
vt 0.110139 0.052822
vt 0.066391 0.079441
vt 0.093224 0.041011
vt 0.074943 0.708678
vt 0.045125 0.664795
vt 0.086284 0.690561
vt 0.042512 0.116532
vt 0.004339 0.152138
vt 0.022823 0.108241
vt 0.005221 0.616761
vt 0.035784 0.573663
vt 0.026072 0.621036
vt 0.033884 0.207935
vt 0.003906 0.251031
vt 0.013128 0.203876
vt 0.006734 0.517181
vt 0.045452 0.481827
vt 0.026419 0.525717
vt 0.043917 0.298406
vt 0.073882 0.341630
vt 0.032843 0.316470
vt 0.070107 0.444427
vt 0.115357 0.418775
vt 0.086908 0.456948
vt 0.113296 0.362169
vt 0.151195 0.396772
vt 0.106722 0.382116
vt 0.164524 0.383996
vt 0.203359 0.416566
vt 0.158818 0.403601
vt 0.202340 0.363444
vt 0.244057 0.389229
vt 0.199603 0.383010
vt 0.256862 0.392833
vt 0.287704 0.429340
vt 0.248395 0.410463
vt 0.286097 0.350308
vt 0.324975 0.321763
vt 0.302932 0.360010
vt 0.320580 0.453072
vt 0.342329 0.493202
vt 0.309313 0.467604
vt 0.341803 0.285297
vt 0.370896 0.251636
vt 0.359245 0.290523
vt 0.372862 0.536229
vt 0.345187 0.571703
vt 0.355291 0.531781
vt 0.342942 0.207279
vt 0.370896 0.171779
vt 0.360569 0.211825
vt 0.372862 0.617582
vt 0.342576 0.650484
vt 0.355504 0.611784
vt 0.340000 0.128466
vt 0.318422 0.088139
vt 0.351367 0.113965
vt 0.326849 0.684964
vt 0.289783 0.715487
vt 0.309579 0.676251
vt 0.103278 0.261772
vt 0.073522 0.240774
vt 0.093493 0.236562
vt 0.295218 0.043971
vt 0.245345 0.042025
vt 0.254425 0.023728
vt 0.248380 0.756698
vt 0.205251 0.731412
vt 0.250704 0.736692
vt 0.094950 0.207432
vt 0.073611 0.175329
vt 0.092228 0.178446
vt 0.171159 0.695443
vt 0.166285 0.084860
vt 0.197578 0.089729
vt 0.137656 0.684447
vt 0.154068 0.036321
vt 0.115063 0.659760
vt 0.133998 0.097504
vt 0.083306 0.091251
vt 0.090336 0.639193
vt 0.086335 0.142111
vt 0.111926 0.121316
vt 0.075283 0.606968
vt 0.078237 0.574017
vt 0.024027 0.160428
vt 0.076182 0.541192
vt 0.076103 0.207756
vt 0.089080 0.507994
vt 0.024662 0.255091
vt 0.115103 0.487905
vt 0.088523 0.272713
vt 0.084956 0.323566
vt 0.137346 0.464553
vt 0.135823 0.317321
vt 0.113278 0.292763
vt 0.169131 0.451420
vt 0.168877 0.328105
vt 0.200305 0.457286
vt 0.157768 0.376825
vt 0.232252 0.456513
vt 0.231671 0.324291
vt 0.199377 0.322779
vt 0.262746 0.468788
vt 0.261047 0.309486
vt 0.246794 0.369663
vt 0.281570 0.492392
vt 0.308140 0.312061
vt 0.302093 0.512774
vt 0.301654 0.266593
vt 0.280125 0.287009
vt 0.311241 0.542486
vt 0.308925 0.236265
vt 0.307242 0.571660
vt 0.353455 0.246410
vt 0.311325 0.601264
vt 0.309366 0.177975
vt 0.305246 0.207638
vt 0.302127 0.630896
vt 0.353270 0.167233
vt 0.280216 0.651687
vt 0.299256 0.148646
vt 0.307054 0.102640
vt 0.263542 0.675935
vt 0.260367 0.102523
vt 0.277566 0.127869
vt 0.234379 0.691488
vt 0.286139 0.062268
vt 0.202038 0.690458
vt 0.229993 0.088837
vt 0.146675 0.300062
vt 0.126159 0.278099
vt 0.197699 0.303718
vt 0.170567 0.310262
vt 0.250530 0.295431
vt 0.227576 0.305364
vt 0.286284 0.258133
vt 0.267521 0.275358
vt 0.286866 0.207832
vt 0.291604 0.234827
vt 0.285158 0.157694
vt 0.291506 0.179927
vt 0.249438 0.116868
vt 0.262935 0.140108
vt 0.196145 0.108446
vt 0.226402 0.106808
vt 0.169368 0.103737
vt 0.103179 0.153426
vt 0.125274 0.135469
vt 0.105394 0.628187
vt 0.097137 0.574062
vt 0.105676 0.519363
vt 0.147660 0.480003
vt 0.198529 0.476212
vt 0.251919 0.484113
vt 0.288022 0.521180
vt 0.288777 0.571374
vt 0.286520 0.621279
vt 0.229885 0.672532
vt 0.252895 0.663135
vt 0.200333 0.671711
vt 0.148499 0.666971
vt 0.143348 0.878284
vt 0.113790 0.848726
vt 0.143348 0.848726
vt 0.202463 0.848726
vt 0.232021 0.772942
vt 0.232021 0.848726
vt 0.172906 0.772942
vt 0.143348 0.772942
vt 0.113790 0.772942
vt 0.202464 0.772942
vt 0.007862 0.820703
vt 0.105473 0.808657
vt 0.105473 0.820703
vt 0.007862 0.808657
vt 0.105473 0.786488
vt 0.142482 0.949833
vt 0.044871 0.961879
vt 0.044871 0.949833
vt 0.142482 0.927665
vt 0.044871 0.927665
vt 0.142482 0.984048
vt 0.044871 0.996094
vt 0.044871 0.984048
vt 0.142482 0.961879
vt 0.008025 0.861771
vt 0.105637 0.849725
vt 0.105637 0.861771
vt 0.008025 0.883940
vt 0.105637 0.883940
vt 0.008025 0.895986
vt 0.105637 0.895986
vt 0.008025 0.918154
vt 0.105637 0.918154
vt 0.007862 0.842871
vt 0.105473 0.842871
vt 0.007862 0.786488
vt 0.105473 0.774442
vt 0.153632 0.855942
vt 0.175800 0.953554
vt 0.153632 0.953554
vt 0.210014 0.855942
vt 0.222060 0.953554
vt 0.210014 0.953554
vt 0.187846 0.855942
vt 0.187846 0.953554
vt 0.175800 0.855942
vt 0.153022 0.765140
vt 0.033784 0.682911
vt 0.014933 0.569389
vt 0.025766 0.473290
vt 0.098555 0.406254
vt 0.209065 0.396961
vt 0.296170 0.411710
vt 0.353596 0.478670
vt 0.362758 0.576150
vt 0.359934 0.656283
vt 0.307053 0.724200
vt 0.202928 0.751418
vt 0.144372 0.113214
vt 0.095224 0.602742
vt 0.094923 0.544466
vt 0.128173 0.502443
vt 0.172047 0.470231
vt 0.229122 0.474101
vt 0.268974 0.504094
vt 0.293077 0.544391
vt 0.295168 0.599984
vt 0.265824 0.639985
vt 0.173104 0.677267
vt 0.128137 0.645283
vt 0.113790 0.878284
vt 0.172906 0.848726
vt 0.142482 0.996094
vt 0.008025 0.849725
vt 0.007862 0.774442
vt 0.222060 0.855942
vn 1.0000 -0.0000 -0.0000
vn 0.9968 -0.0797 -0.0000
vn 0.7612 -0.6485 -0.0000
vn 0.7071 -0.7071 0.0000
vn 0.6485 -0.7612 0.0000
vn 0.0797 -0.9968 0.0000
vn 0.0000 -1.0000 -0.0000
vn -0.0797 -0.9968 0.0000
vn -0.6485 -0.7612 0.0000
vn -0.7071 -0.7071 0.0000
vn -0.7612 -0.6485 0.0000
vn -0.9968 -0.0797 0.0000
vn -1.0000 -0.0000 0.0000
vn -0.9968 0.0797 0.0000
vn -0.7612 0.6485 0.0000
vn -0.7071 0.7071 0.0000
vn -0.6485 0.7612 0.0000
vn -0.0797 0.9968 0.0000
vn 0.0000 1.0000 0.0000
vn 0.0797 0.9968 0.0000
vn 0.6485 0.7612 0.0000
vn 0.7071 0.7071 0.0000
vn 0.7612 0.6485 -0.0000
vn 0.9968 0.0797 -0.0000
vn -0.0000 0.0000 -1.0000
vn -0.0000 -0.0000 1.0000
g Interactable_Valve_Interactable_Valve_Valves
usemtl Valves
s 1
f 52/1/1 50/2/2 49/3/1
f 50/4/2 54/5/3 53/6/3
f 54/7/3 55/8/4 53/9/3
f 56/10/4 57/11/5 55/12/4
f 58/13/5 59/14/6 57/15/5
f 60/16/6 61/17/7 59/18/6
f 62/19/7 63/20/8 61/21/7
f 64/22/8 65/23/9 63/24/8
f 66/25/9 67/26/10 65/27/9
f 68/28/10 69/29/11 67/30/10
f 70/31/11 71/32/12 69/33/11
f 72/34/12 73/35/13 71/36/12
f 74/37/13 75/38/14 73/39/13
f 76/40/14 77/41/15 75/42/14
f 78/43/15 79/44/16 77/45/15
f 80/46/16 81/47/17 79/48/16
f 82/49/17 83/50/18 81/51/17
f 84/52/18 85/53/19 83/54/18
f 86/55/19 87/56/20 85/57/19
f 88/58/20 89/59/21 87/60/20
f 90/61/21 91/62/22 89/63/21
f 92/64/22 93/65/23 91/66/22
f 17/67/21 16/68/20 15/69/20
f 93/70/23 96/71/24 95/72/24
f 96/73/24 49/74/1 95/75/24
f 13/76/19 12/77/18 11/78/18
f 3/79/25 49/74/25 50/4/25
f 4/80/26 52/1/26 2/81/26
f 3/79/25 53/6/25 5/82/25
f 4/80/26 54/7/26 51/83/26
f 5/82/25 55/12/25 7/84/25
f 6/85/26 56/86/26 54/7/26
f 9/87/25 55/12/25 57/11/25
f 10/88/26 56/86/26 8/89/26
f 11/90/25 57/11/25 59/18/25
f 12/77/26 58/13/26 10/88/26
f 11/90/25 61/17/25 13/91/25
f 12/77/26 62/19/26 60/92/26
f 15/93/25 61/17/25 63/24/25
f 16/68/26 62/19/26 14/94/26
f 15/93/25 65/23/25 17/95/25
f 16/68/26 66/25/26 64/96/26
f 17/95/25 67/30/25 19/97/25
f 18/98/26 68/99/26 66/25/26
f 21/100/25 67/30/25 69/29/25
f 22/101/26 68/99/26 20/102/26
f 23/103/25 69/29/25 71/36/25
f 24/104/26 70/31/26 22/101/26
f 23/103/25 73/35/25 25/105/25
f 24/104/26 74/37/26 72/106/26
f 27/107/25 73/35/25 75/42/25
f 28/108/26 74/37/26 26/109/26
f 29/110/25 75/42/25 77/41/25
f 30/111/26 76/112/26 28/108/26
f 29/110/25 79/48/25 31/113/25
f 30/111/26 80/114/26 78/43/26
f 33/115/25 79/48/25 81/47/25
f 34/116/26 80/114/26 32/117/26
f 35/118/25 81/47/25 83/54/25
f 36/119/26 82/49/26 34/116/26
f 35/118/25 85/53/25 37/120/25
f 36/119/26 86/55/26 84/121/26
f 39/122/25 85/53/25 87/60/25
f 40/123/26 86/55/26 38/124/26
f 39/122/25 89/59/25 41/125/25
f 40/123/26 90/61/26 88/126/26
f 41/125/25 91/66/25 43/127/25
f 42/128/26 92/129/26 90/61/26
f 45/130/25 91/66/25 93/65/25
f 46/131/26 92/129/26 44/132/26
f 45/130/25 95/75/25 47/133/25
f 46/131/26 96/71/26 94/134/26
f 47/133/25 49/74/25 1/135/25
f 48/136/26 52/1/26 96/71/26
f 21/137/23 20/102/22 19/138/22
f 25/139/1 24/104/24 23/140/24
f 29/141/3 28/108/2 27/142/2
f 33/143/5 32/117/4 31/144/4
f 37/145/7 36/119/6 35/146/6
f 41/147/9 40/123/8 39/148/8
f 45/149/11 44/132/10 43/150/10
f 1/151/13 48/136/12 47/152/12
f 3/153/14 6/85/15 4/80/14
f 9/154/17 8/89/16 7/155/16
f 11/90/18 10/156/17 9/87/17
f 15/93/20 14/157/19 13/91/19
f 19/97/22 18/158/21 17/95/21
f 23/103/24 22/159/23 21/100/23
f 27/107/2 26/160/1 25/105/1
f 31/113/4 30/161/3 29/110/3
f 35/118/6 34/162/5 33/115/5
f 39/122/8 38/163/7 37/120/7
f 43/127/10 42/164/9 41/125/9
f 45/130/11 48/165/12 46/166/11
f 3/79/14 2/167/13 1/135/13
f 7/84/16 6/168/15 5/82/15
f 98/169/25 99/170/25 97/171/25
f 100/172/1 103/173/1 99/174/1
f 102/175/13 97/171/13 101/176/13
f 103/177/7 97/171/7 99/170/7
f 100/172/19 102/175/19 104/178/19
f 123/179/19 108/180/19 112/181/19
f 122/182/25 107/183/25 108/180/25
f 114/184/1 107/185/1 111/186/1
f 115/187/26 111/186/26 109/188/26
f 116/189/13 109/190/13 105/191/13
f 113/192/25 105/191/25 107/185/25
f 118/193/1 112/194/1 108/195/1
f 119/196/25 108/195/25 106/197/25
f 120/198/13 106/197/13 110/199/13
f 117/200/26 110/199/26 112/201/26
f 124/202/26 112/181/26 111/203/26
f 121/204/7 111/205/7 107/183/7
f 126/206/26 109/207/26 110/208/26
f 127/209/19 110/210/19 106/211/19
f 128/212/25 106/211/25 105/213/25
f 125/214/7 105/213/7 109/207/7
f 52/1/1 51/83/2 50/2/2
f 50/4/2 51/215/2 54/5/3
f 54/7/3 56/86/4 55/8/4
f 56/10/4 58/216/5 57/11/5
f 58/13/5 60/92/6 59/14/6
f 60/16/6 62/217/7 61/17/7
f 62/19/7 64/96/8 63/20/8
f 64/22/8 66/218/9 65/23/9
f 66/25/9 68/99/10 67/26/10
f 68/28/10 70/219/11 69/29/11
f 70/31/11 72/106/12 71/32/12
f 72/34/12 74/220/13 73/35/13
f 74/37/13 76/112/14 75/38/14
f 76/40/14 78/221/15 77/41/15
f 78/43/15 80/114/16 79/44/16
f 80/46/16 82/222/17 81/47/17
f 82/49/17 84/121/18 83/50/18
f 84/52/18 86/223/19 85/53/19
f 86/55/19 88/126/20 87/56/20
f 88/58/20 90/224/21 89/59/21
f 90/61/21 92/129/22 91/62/22
f 92/64/22 94/225/23 93/65/23
f 17/67/21 18/98/21 16/68/20
f 93/70/23 94/134/23 96/71/24
f 96/73/24 52/226/1 49/74/1
f 13/76/19 14/94/19 12/77/18
f 3/79/25 1/135/25 49/74/25
f 4/80/26 51/83/26 52/1/26
f 3/79/25 50/4/25 53/6/25
f 4/80/26 6/85/26 54/7/26
f 5/82/25 53/6/25 55/12/25
f 6/85/26 8/89/26 56/86/26
f 9/87/25 7/84/25 55/12/25
f 10/88/26 58/13/26 56/86/26
f 11/90/25 9/87/25 57/11/25
f 12/77/26 60/92/26 58/13/26
f 11/90/25 59/18/25 61/17/25
f 12/77/26 14/94/26 62/19/26
f 15/93/25 13/91/25 61/17/25
f 16/68/26 64/96/26 62/19/26
f 15/93/25 63/24/25 65/23/25
f 16/68/26 18/98/26 66/25/26
f 17/95/25 65/23/25 67/30/25
f 18/98/26 20/102/26 68/99/26
f 21/100/25 19/97/25 67/30/25
f 22/101/26 70/31/26 68/99/26
f 23/103/25 21/100/25 69/29/25
f 24/104/26 72/106/26 70/31/26
f 23/103/25 71/36/25 73/35/25
f 24/104/26 26/109/26 74/37/26
f 27/107/25 25/105/25 73/35/25
f 28/108/26 76/112/26 74/37/26
f 29/110/25 27/107/25 75/42/25
f 30/111/26 78/43/26 76/112/26
f 29/110/25 77/41/25 79/48/25
f 30/111/26 32/117/26 80/114/26
f 33/115/25 31/113/25 79/48/25
f 34/116/26 82/49/26 80/114/26
f 35/118/25 33/115/25 81/47/25
f 36/119/26 84/121/26 82/49/26
f 35/118/25 83/54/25 85/53/25
f 36/119/26 38/124/26 86/55/26
f 39/122/25 37/120/25 85/53/25
f 40/123/26 88/126/26 86/55/26
f 39/122/25 87/60/25 89/59/25
f 40/123/26 42/128/26 90/61/26
f 41/125/25 89/59/25 91/66/25
f 42/128/26 44/132/26 92/129/26
f 45/130/25 43/127/25 91/66/25
f 46/131/26 94/134/26 92/129/26
f 45/130/25 93/65/25 95/75/25
f 46/131/26 48/136/26 96/71/26
f 47/133/25 95/75/25 49/74/25
f 48/136/26 2/81/26 52/1/26
f 21/137/23 22/101/23 20/102/22
f 25/139/1 26/109/1 24/104/24
f 29/141/3 30/111/3 28/108/2
f 33/143/5 34/116/5 32/117/4
f 37/145/7 38/124/7 36/119/6
f 41/147/9 42/128/9 40/123/8
f 45/149/11 46/131/11 44/132/10
f 1/151/13 2/81/13 48/136/12
f 3/153/14 5/227/15 6/85/15
f 9/154/17 10/88/17 8/89/16
f 11/90/18 12/228/18 10/156/17
f 15/93/20 16/229/20 14/157/19
f 19/97/22 20/230/22 18/158/21
f 23/103/24 24/231/24 22/159/23
f 27/107/2 28/232/2 26/160/1
f 31/113/4 32/233/4 30/161/3
f 35/118/6 36/234/6 34/162/5
f 39/122/8 40/235/8 38/163/7
f 43/127/10 44/236/10 42/164/9
f 45/130/11 47/133/12 48/165/12
f 3/79/14 4/237/14 2/167/13
f 7/84/16 8/238/16 6/168/15
f 98/169/25 100/239/25 99/170/25
f 100/172/1 104/178/1 103/173/1
f 102/175/13 98/240/13 97/171/13
f 103/177/7 101/176/7 97/171/7
f 100/172/19 98/240/19 102/175/19
f 123/179/19 122/182/19 108/180/19
f 122/182/25 121/204/25 107/183/25
f 114/184/1 113/192/1 107/185/1
f 115/187/26 114/184/26 111/186/26
f 116/189/13 115/241/13 109/190/13
f 113/192/25 116/189/25 105/191/25
f 118/193/1 117/242/1 112/194/1
f 119/196/25 118/193/25 108/195/25
f 120/198/13 119/196/13 106/197/13
f 117/200/26 120/198/26 110/199/26
f 124/202/26 123/179/26 112/181/26
f 121/204/7 124/243/7 111/205/7
f 126/206/26 125/214/26 109/207/26
f 127/209/19 126/244/19 110/210/19
f 128/212/25 127/209/25 106/211/25
f 125/214/7 128/212/7 105/213/7
