# Blender v3.0.0 OBJ File: 'Resonance Levels.blend'
# www.blender.org
mtllib Magenta Door.mtl
v -0.015240 0.731520 -0.045720
v -0.015240 0.944880 -0.045720
v -0.899160 0.731520 -0.045720
v -0.899160 0.944880 -0.045720
v -0.914400 0.228600 0.000000
v -0.914400 0.228600 0.091440
v -0.914400 1.752600 0.091440
v -0.914400 1.752600 0.000000
v 0.000000 1.752600 0.000000
v 0.000000 0.228600 0.000000
v 0.000000 0.228600 0.091440
v 0.000000 1.752600 0.091440
v -0.326364 0.902039 -0.116840
v -0.315939 0.873397 -0.116840
v -0.521039 0.969036 -0.116840
v -0.492397 0.979461 -0.116840
v -0.598461 0.803004 0.208280
v -0.588036 0.774362 0.208280
v -0.492397 0.979461 0.208280
v -0.521039 0.969036 0.208280
v -0.588036 0.774362 0.238760
v -0.598461 0.803004 0.238760
v -0.521039 0.969036 0.238760
v -0.492397 0.979461 0.238760
v -0.315939 0.873397 -0.147320
v -0.326364 0.902039 -0.147320
v -0.496267 0.856417 -0.150368
v -0.492397 0.979461 -0.147320
v -0.521039 0.969036 -0.147320
v -0.475417 0.799134 -0.150368
v -0.496267 0.856417 0.241808
v -0.475417 0.799134 0.241808
v -0.315939 0.873397 0.238760
v -0.326364 0.902039 0.238760
v -0.422003 0.696939 0.238760
v -0.393361 0.707364 0.238760
v -0.588036 0.774362 -0.147320
v -0.598461 0.803004 -0.147320
v -0.393361 0.707364 -0.147320
v -0.422003 0.696939 -0.147320
v -0.588036 0.774362 -0.116840
v -0.598461 0.803004 -0.116840
v -0.422003 0.696939 0.208280
v -0.393361 0.707364 0.208280
v -0.315939 0.873397 0.208280
v -0.326364 0.902039 0.208280
v -0.393361 0.707364 -0.116840
v -0.422003 0.696939 -0.116840
v -0.606629 0.825127 0.244856
v -0.580073 0.752164 0.244856
v -0.307771 0.851274 0.244856
v -0.334327 0.924237 0.244856
v -0.444127 0.688771 0.244856
v -0.371164 0.715328 0.244856
v -0.470273 0.987630 0.244856
v -0.543237 0.961073 0.244856
v -0.580073 0.752164 -0.153416
v -0.606629 0.825127 -0.153416
v -0.371164 0.715328 -0.153416
v -0.444127 0.688771 -0.153416
v -0.543237 0.961073 -0.153416
v -0.470274 0.987630 -0.153416
v -0.334327 0.924237 -0.153416
v -0.307771 0.851274 -0.153416
v -0.334327 0.924237 -0.110744
v -0.307771 0.851274 -0.110744
v -0.580073 0.752164 -0.110744
v -0.606629 0.825127 -0.110744
v -0.543237 0.961073 -0.110744
v -0.470274 0.987630 -0.110744
v -0.444127 0.688771 0.202184
v -0.371164 0.715328 0.202184
v -0.606629 0.825127 0.202184
v -0.580073 0.752164 0.202184
v -0.307771 0.851274 0.202184
v -0.334327 0.924237 0.202184
v -0.470274 0.987630 0.202184
v -0.543237 0.961073 0.202184
v -0.371164 0.715328 -0.110744
v -0.444127 0.688771 -0.110744
v -0.393807 0.974147 0.202184
v -0.393807 0.974147 0.244856
v -0.593146 0.901593 0.244856
v -0.593146 0.901593 0.202184
v -0.520593 0.702254 0.244856
v -0.520593 0.702254 0.202184
v -0.321254 0.774808 0.202184
v -0.321254 0.774808 0.244856
v -0.321254 0.774808 -0.110744
v -0.321254 0.774808 -0.153416
v -0.520593 0.702254 -0.153416
v -0.520593 0.702254 -0.110744
v -0.593146 0.901593 -0.110744
v -0.593146 0.901593 -0.153416
v -0.393807 0.974147 -0.153416
v -0.393807 0.974147 -0.110744
v -0.636993 0.822470 0.244856
v -0.605041 0.734681 0.244856
v -0.277407 0.853930 0.244856
v -0.309360 0.941719 0.244856
v -0.441470 0.658407 0.244856
v -0.353681 0.690360 0.244856
v -0.472930 1.017994 0.244856
v -0.560719 0.986041 0.244856
v -0.605041 0.734681 -0.153416
v -0.636993 0.822470 -0.153416
v -0.353681 0.690360 -0.153416
v -0.441470 0.658407 -0.153416
v -0.560719 0.986041 -0.153416
v -0.472930 1.017994 -0.153416
v -0.309360 0.941719 -0.153416
v -0.277407 0.853930 -0.153416
v -0.309360 0.941719 -0.110744
v -0.277407 0.853930 -0.110744
v -0.605041 0.734681 -0.110744
v -0.636993 0.822470 -0.110744
v -0.560719 0.986041 -0.110744
v -0.472930 1.017994 -0.110744
v -0.441470 0.658407 0.202184
v -0.353681 0.690360 0.202184
v -0.636993 0.822470 0.202184
v -0.605041 0.734681 0.202184
v -0.277407 0.853930 0.202184
v -0.309360 0.941719 0.202184
v -0.472930 1.017994 0.202184
v -0.560719 0.986041 0.202184
v -0.353681 0.690360 -0.110744
v -0.441470 0.658407 -0.110744
v -0.380926 1.001771 0.202184
v -0.380926 1.001771 0.244856
v -0.620771 0.914474 0.244856
v -0.620771 0.914474 0.202184
v -0.533474 0.674630 0.244856
v -0.533474 0.674630 0.202184
v -0.293630 0.761926 0.202184
v -0.293630 0.761926 0.244856
v -0.293630 0.761926 -0.110744
v -0.293630 0.761926 -0.153416
v -0.533474 0.674630 -0.153416
v -0.533474 0.674630 -0.110744
v -0.620771 0.914474 -0.110744
v -0.620771 0.914474 -0.153416
v -0.380926 1.001771 -0.153416
v -0.380926 1.001771 -0.110744
v -0.228600 0.000000 0.000000
v -0.640080 1.935480 0.106680
v -0.640080 0.045720 0.106680
v -0.640080 1.935480 -0.015240
v -0.640080 0.045720 -0.015240
v -0.418133 0.819983 0.241808
v -0.438983 0.877267 0.241808
v -0.418133 0.819983 -0.150368
v -0.438983 0.877267 -0.150368
v -0.274320 0.045720 0.106680
v -0.274320 1.935480 0.106680
v -0.274320 0.045720 -0.015240
v -0.274320 1.935480 -0.015240
v -0.685800 0.000000 0.000000
v -0.685800 1.981200 0.000000
v -0.228600 1.981200 0.000000
v -0.685800 0.000000 0.091440
v -0.228600 0.000000 0.091440
v -0.228600 1.981200 0.091440
v -0.685800 1.981200 0.091440
v 0.000000 0.975360 0.000000
v 0.000000 0.701040 0.000000
v -0.914400 0.975360 0.000000
v -0.914400 0.701040 0.000000
v -0.899160 0.944880 0.137160
v -0.899160 0.731520 0.137160
v -0.015240 0.731520 0.137160
v -0.015240 0.944880 0.137160
v 0.000000 0.701040 0.091440
v 0.000000 0.975360 0.091440
v -0.914400 0.975360 0.091440
v -0.914400 0.701040 0.091440
vt 0.360844 0.693461
vt 0.319540 0.716640
vt 0.351714 0.684361
vt 0.283488 0.680528
vt 0.218209 0.693650
vt 0.218196 0.680592
vt 0.218673 0.986004
vt 0.283953 0.972882
vt 0.283966 0.985941
vt 0.426589 0.972694
vt 0.467893 0.949515
vt 0.435719 0.981794
vt 0.435237 0.684268
vt 0.458415 0.725572
vt 0.426137 0.693398
vt 0.352197 0.981887
vt 0.329018 0.940583
vt 0.361297 0.972757
vt 0.315779 0.725761
vt 0.316127 0.940604
vt 0.883999 0.939776
vt 0.902004 0.902875
vt 0.888038 0.941246
vt 0.892077 0.942716
vt 0.910082 0.905816
vt 0.896116 0.944187
vt 0.906043 0.904346
vt 0.932168 0.991387
vt 0.922241 0.951545
vt 0.936207 0.989917
vt 0.893926 0.899935
vt 0.897965 0.901405
vt 0.944884 0.918905
vt 0.984725 0.928831
vt 0.983255 0.932870
vt 0.839832 0.979229
vt 0.876733 0.961224
vt 0.878203 0.965263
vt 0.941944 0.926983
vt 0.978845 0.944987
vt 0.940474 0.931022
vt 0.835422 0.967111
vt 0.875263 0.957184
vt 0.836892 0.971151
vt 0.981785 0.936909
vt 0.943414 0.922944
vt 0.879673 0.969302
vt 0.841303 0.983268
vt 0.838362 0.975190
vt 0.940246 0.988446
vt 0.926280 0.950075
vt 0.980315 0.940948
vt 0.928129 0.992857
vt 0.918202 0.953015
vt 0.930319 0.948605
vt 0.944285 0.986976
vt 0.163402 0.094310
vt 0.169918 0.084242
vt 0.171440 0.090227
vt 0.187913 0.121814
vt 0.180945 0.132467
vt 0.179460 0.126064
vt 0.159237 0.025543
vt 0.159123 0.038249
vt 0.152986 0.036691
vt 0.832748 0.128444
vt 0.843129 0.134856
vt 0.839005 0.138918
vt 0.852524 0.076109
vt 0.839545 0.076490
vt 0.844130 0.071404
vt 0.860712 0.041451
vt 0.873431 0.040839
vt 0.869129 0.045839
vt 0.881366 0.116692
vt 0.870971 0.109989
vt 0.875157 0.105944
vt 0.199293 0.051258
vt 0.189330 0.057511
vt 0.193944 0.049803
vt 0.880784 0.063451
vt 0.874470 0.053253
vt 0.879907 0.051425
vt 0.852717 0.104661
vt 0.864377 0.098852
vt 0.862463 0.105394
vt 0.832682 0.115579
vt 0.844354 0.109427
vt 0.839297 0.117661
vt 0.861065 0.139608
vt 0.849580 0.145592
vt 0.851378 0.139130
vt 0.170095 0.067815
vt 0.181273 0.061866
vt 0.182945 0.067908
vt 0.193652 0.040571
vt 0.194425 0.027460
vt 0.199759 0.039221
vt 0.170635 0.019010
vt 0.181607 0.026174
vt 0.172116 0.025784
vt 0.158693 0.047867
vt 0.158663 0.061042
vt 0.152944 0.049297
vt 0.849048 0.035678
vt 0.842851 0.046947
vt 0.838403 0.042804
vt 0.838390 0.054780
vt 0.833003 0.065544
vt 0.832915 0.053498
vt 0.864353 0.082008
vt 0.870524 0.070338
vt 0.875238 0.074637
vt 0.874971 0.127384
vt 0.874155 0.140267
vt 0.869632 0.135104
vt 0.152587 0.111898
vt 0.158655 0.101747
vt 0.158654 0.110945
vt 0.162260 0.119784
vt 0.167467 0.131922
vt 0.157075 0.123599
vt 0.199587 0.103485
vt 0.193141 0.114058
vt 0.193325 0.104717
vt 0.188706 0.096246
vt 0.182669 0.084564
vt 0.194019 0.091519
vt 0.168666 0.079654
vt 0.152792 0.081372
vt 0.165276 0.073952
vt 0.182170 0.137381
vt 0.199083 0.135784
vt 0.185693 0.143497
vt 0.142244 0.031951
vt 0.155801 0.021984
vt 0.148351 0.035354
vt 0.829852 0.145451
vt 0.828306 0.129640
vt 0.835560 0.142137
vt 0.836213 0.080042
vt 0.846899 0.093211
vt 0.833081 0.086353
vt 0.876609 0.037322
vt 0.866025 0.024644
vt 0.879573 0.031133
vt 0.884721 0.099427
vt 0.885981 0.115684
vt 0.878788 0.102716
vt 0.209180 0.055425
vt 0.196935 0.064871
vt 0.203497 0.052429
vt 0.890956 0.049608
vt 0.885348 0.064447
vt 0.884379 0.050050
vt 0.865836 0.093992
vt 0.850031 0.086899
vt 0.865788 0.086784
vt 0.830559 0.097107
vt 0.827951 0.114244
vt 0.821926 0.110301
vt 0.848208 0.150329
vt 0.863547 0.157343
vt 0.848205 0.157337
vt 0.184135 0.079646
vt 0.168662 0.072589
vt 0.184132 0.072581
vt 0.198180 0.024362
vt 0.210773 0.035577
vt 0.204361 0.038400
vt 0.186155 0.008620
vt 0.169648 0.014110
vt 0.170422 0.006924
vt 0.154957 0.064389
vt 0.141728 0.053403
vt 0.148163 0.050300
vt 0.830887 0.033710
vt 0.847650 0.030999
vt 0.834806 0.039577
vt 0.828488 0.066781
vt 0.822037 0.052436
vt 0.828582 0.052495
vt 0.882875 0.083883
vt 0.878829 0.077927
vt 0.877406 0.143903
vt 0.891584 0.134429
vt 0.883433 0.147626
vt 0.143281 0.098224
vt 0.148065 0.112432
vt 0.141869 0.111787
vt 0.165612 0.136868
vt 0.148287 0.132183
vt 0.153048 0.126444
vt 0.209590 0.117639
vt 0.204168 0.102639
vt 0.210773 0.103180
vt 0.197842 0.088236
vt 0.188059 0.073386
vt 0.201765 0.081976
vt 0.839961 0.104626
vt 0.836585 0.101051
vt 0.185380 0.015806
vt 0.183609 0.020456
vt 0.850102 0.094092
vt 0.863550 0.150336
vt 0.863061 0.030832
vt 0.861946 0.035572
vt 0.159357 0.090200
vt 0.149477 0.098869
vt 0.156181 0.087074
vt 0.193557 0.061593
vt 0.851215 0.082059
vt 0.198517 0.115773
vt 0.202985 0.117099
vt 0.195560 0.129668
vt 0.881084 0.129289
vt 0.885556 0.130706
vt 0.153502 0.100145
vt 0.851366 0.098869
vt 0.192196 0.126280
vt 0.862397 0.145558
vt 0.186034 0.725929
vt 0.173491 0.940792
vt 0.173144 0.725950
vt 0.328670 0.725740
vt 0.458763 0.940415
vt 0.186382 0.940771
vt 0.993986 0.139831
vt 0.986237 0.013032
vt 0.993987 0.010883
vt 0.951851 0.006236
vt 0.990536 0.006236
vt 0.956150 0.137682
vt 0.948401 0.010883
vt 0.956150 0.013032
vt 0.986238 0.137682
vt 0.951852 0.144478
vt 0.946174 0.831770
vt 0.937577 0.887075
vt 0.937577 0.831770
vt 0.920384 0.887075
vt 0.928981 0.831770
vt 0.928981 0.887075
vt 0.946174 0.887075
vt 0.954771 0.831770
vt 0.954771 0.887075
vt 0.277107 0.966069
vt 0.225054 0.700463
vt 0.276712 0.700463
vt 0.367690 0.700274
vt 0.419744 0.965881
vt 0.368086 0.965881
vt 0.419347 0.700274
vt 0.283501 0.693586
vt 0.218661 0.972946
vt 0.225450 0.966069
vt 0.986237 0.137682
vt 0.956150 0.013032
vt 0.986237 0.013032
vt 0.993986 0.010883
vt 0.951851 0.006236
vt 0.990536 0.006236
vt 0.956150 0.137682
vt 0.948401 0.010883
vt 0.951851 0.144478
vt 0.954771 0.823174
vt 0.946174 0.823174
vt 0.954771 0.895671
vt 0.946174 0.895671
vt 0.467516 0.716442
vt 0.319918 0.949713
vt 0.879960 0.938306
vt 0.946354 0.914866
vt 0.873793 0.953145
vt 0.914163 0.954485
vt 0.163858 0.030084
vt 0.838795 0.126804
vt 0.875430 0.118128
vt 0.874852 0.062367
vt 0.171836 0.061506
vt 0.189162 0.031869
vt 0.163742 0.056200
vt 0.851082 0.042239
vt 0.838840 0.063788
vt 0.862249 0.075308
vt 0.169915 0.125221
vt 0.180799 0.090793
vt 0.149694 0.018581
vt 0.822597 0.132953
vt 0.891923 0.112416
vt 0.202618 0.067867
vt 0.891924 0.064005
vt 0.204592 0.021539
vt 0.148522 0.067492
vt 0.843732 0.025132
vt 0.821953 0.066743
vt 0.869834 0.092741
vt 0.160851 0.142607
vt 0.948401 0.139831
vt 0.990536 0.144478
vt 0.920384 0.831770
vt 0.993987 0.139831
vt 0.948401 0.139831
vt 0.990536 0.144478
vn 0.7071 -0.7071 0.0000
vn 0.0000 -1.0000 0.0000
vn 0.0000 1.0000 0.0000
vn -0.7071 0.7071 0.0000
vn -0.7071 -0.7071 0.0000
vn 0.7071 0.7071 0.0000
vn 0.0000 0.0000 1.0000
vn -0.9397 -0.3420 0.0000
vn 0.9397 0.3420 0.0000
vn 0.0000 0.0000 -1.0000
vn -0.3420 0.9397 0.0000
vn 0.3420 -0.9397 0.0000
vn -0.1736 -0.9848 0.0000
vn 0.9848 -0.1736 0.0000
vn 0.6428 0.7660 0.0000
vn -0.9848 0.1736 0.0000
vn -0.6428 -0.7660 0.0000
vn -0.7660 0.6428 0.0000
vn 0.1736 0.9848 0.0000
vn 0.7660 -0.6428 0.0000
vn -1.0000 0.0000 0.0000
vn 1.0000 0.0000 0.0000
vn 0.0000 0.8321 -0.5547
vn 0.0000 0.8320 -0.5547
vn -0.9487 0.0000 -0.3162
vn 0.0000 -0.8321 -0.5547
vn 0.9487 0.0000 -0.3162
vn 0.0000 -0.3162 -0.9487
vn 0.0000 0.3162 -0.9487
vn 0.0000 -0.3162 0.9487
vn 0.0000 0.3162 0.9487
vn -0.3162 0.0000 0.9487
vn 0.3162 0.0000 0.9487
vn 0.3162 0.0000 -0.9487
vn -0.3162 0.0000 -0.9487
vn 0.0000 0.8321 0.5547
vn 0.0000 0.8320 0.5547
vn 0.9487 0.0000 0.3162
vn 0.0000 -0.8321 0.5547
vn -0.9487 0.0000 0.3162
g Door_Magenta.001_Door_Magenta_Door
usemtl Door
s 1
f 145/1/1 11/2/1 162/3/1
f 145/4/2 161/5/2 158/6/2
f 159/7/3 163/8/3 160/9/3
f 159/10/4 7/11/4 164/12/4
f 161/13/5 5/14/5 158/15/5
f 163/16/6 9/17/6 160/18/6
f 163/8/7 11/19/7 12/20/7
f 20/21/8 35/22/8 23/23/8
f 24/24/9 44/25/9 19/26/9
f 23/23/7 36/27/7 24/24/7
f 16/28/9 39/29/9 28/30/9
f 20/21/10 44/31/10 43/32/10
f 18/33/10 46/34/10 45/35/10
f 26/36/10 37/37/10 38/38/10
f 22/39/11 46/40/11 17/41/11
f 13/42/7 41/43/7 14/44/7
f 18/33/12 33/45/12 21/46/12
f 26/36/11 42/47/11 13/48/11
f 14/44/12 37/37/12 25/49/12
f 29/50/10 39/29/10 40/51/10
f 21/46/7 34/52/7 22/39/7
f 15/53/7 47/54/7 16/28/7
f 29/50/8 48/55/8 15/56/8
f 65/57/8 64/58/8 66/59/8
f 67/60/9 58/61/9 68/62/9
f 69/63/12 62/64/12 70/65/12
f 71/66/11 54/67/11 72/68/11
f 73/69/9 50/70/9 74/71/9
f 75/72/8 52/73/8 76/74/8
f 77/75/12 56/76/12 78/77/12
f 80/78/11 59/79/11 60/80/11
f 55/81/13 81/82/13 82/83/13
f 49/84/14 84/85/14 83/86/14
f 86/87/15 50/88/15 85/89/15
f 51/90/16 87/91/16 88/92/16
f 66/93/16 90/94/16 89/95/16
f 91/96/15 67/97/15 92/98/15
f 93/99/14 58/100/14 94/101/14
f 95/102/17 65/103/17 96/104/17
f 88/105/18 72/106/18 54/107/18
f 71/108/19 85/109/19 53/110/19
f 83/111/20 78/112/20 56/113/20
f 82/114/17 76/115/17 52/116/17
f 62/117/13 96/118/13 70/119/13
f 69/120/20 94/121/20 61/122/20
f 60/123/19 92/124/19 80/125/19
f 79/126/18 90/127/18 59/128/18
f 112/129/9 113/130/9 114/131/9
f 106/132/8 115/133/8 116/134/8
f 110/135/11 117/136/11 118/137/11
f 102/138/12 119/139/12 120/140/12
f 98/141/8 121/142/8 122/143/8
f 100/144/9 123/145/9 124/146/9
f 104/147/11 125/148/11 126/149/11
f 108/150/12 127/151/12 128/152/12
f 129/153/19 103/154/19 130/155/19
f 132/156/16 97/157/16 131/158/16
f 98/159/17 134/160/17 133/161/17
f 135/162/14 99/163/14 136/164/14
f 138/165/14 114/166/14 137/167/14
f 115/168/17 139/169/17 140/170/17
f 106/171/16 141/172/16 142/173/16
f 113/174/15 143/175/15 144/176/15
f 120/177/20 136/178/20 102/179/20
f 133/180/13 119/181/13 101/182/13
f 126/183/18 131/158/18 104/184/18
f 124/185/15 130/186/15 100/187/15
f 144/188/19 110/189/19 118/190/19
f 142/191/18 117/192/18 109/193/18
f 140/194/13 108/195/13 128/196/13
f 107/197/20 137/198/20 127/199/20
f 74/200/10 134/160/10 122/201/10
f 93/99/7 116/202/7 68/203/7
f 84/85/10 121/204/10 132/156/10
f 68/203/7 115/168/7 67/97/7
f 87/91/10 123/205/10 135/162/10
f 94/121/10 106/132/10 142/191/10
f 85/109/7 101/182/7 53/110/7
f 88/105/7 99/206/7 51/207/7
f 63/208/10 143/209/10 111/210/10
f 77/75/10 126/149/10 125/148/10
f 86/87/10 119/139/10 134/160/10
f 79/211/7 137/167/7 89/95/7
f 65/103/7 144/176/7 96/104/7
f 49/212/7 98/141/7 50/70/7
f 72/68/10 135/162/10 120/140/10
f 70/65/7 117/136/7 69/63/7
f 90/127/10 107/197/10 59/128/10
f 51/207/7 100/144/7 52/73/7
f 54/107/7 136/178/7 88/105/7
f 91/213/10 108/195/10 139/214/10
f 54/107/7 101/182/7 102/179/7
f 79/211/7 128/152/7 127/151/7
f 92/98/7 128/152/7 80/78/7
f 55/81/7 104/184/7 56/113/7
f 72/68/10 119/139/10 71/66/10
f 69/63/7 141/172/7 93/99/7
f 58/61/10 105/215/10 106/132/10
f 61/122/10 142/191/10 109/193/10
f 59/128/10 108/195/10 60/123/10
f 81/216/10 125/148/10 129/217/10
f 95/218/10 110/189/10 143/209/10
f 62/117/10 109/193/10 110/189/10
f 55/81/7 130/155/7 103/154/7
f 89/95/7 114/166/7 66/93/7
f 73/219/10 122/201/10 121/204/10
f 96/104/7 118/137/7 70/65/7
f 64/58/10 111/210/10 112/129/10
f 56/113/7 131/158/7 83/111/7
f 90/127/10 112/129/10 138/165/10
f 76/115/10 129/217/10 124/185/10
f 66/93/7 113/174/7 65/103/7
f 78/77/10 132/156/10 126/149/10
f 57/220/10 139/214/10 105/215/10
f 52/73/7 130/155/7 82/83/7
f 50/70/7 133/180/7 85/109/7
f 67/97/7 140/170/7 92/98/7
f 75/221/10 124/185/10 123/205/10
f 83/111/7 97/157/7 49/212/7
f 6/222/21 8/223/21 5/224/21
f 145/1/10 9/17/10 10/225/10
f 11/19/22 9/17/22 12/20/22
f 158/15/10 8/226/10 159/10/10
f 161/5/7 7/227/7 6/222/7
f 165/228/23 4/229/24 167/230/24
f 4/229/25 168/231/25 167/232/25
f 1/233/26 168/234/26 3/235/26
f 2/236/27 166/237/27 1/233/27
f 2/236/10 3/235/10 4/229/10
f 31/238/8 30/239/8 32/240/8
f 153/241/9 150/242/9 152/243/9
f 27/244/11 151/245/11 153/246/11
f 155/247/7 147/248/7 154/249/7
f 156/250/10 148/251/10 157/252/10
f 156/250/28 158/15/28 149/253/28
f 157/252/29 159/10/29 160/18/29
f 154/249/30 161/5/30 162/254/30
f 155/247/31 164/255/31 146/256/31
f 146/256/32 161/5/32 147/248/32
f 154/249/33 163/8/33 155/247/33
f 152/243/12 32/240/12 30/239/12
f 157/252/34 145/1/34 156/250/34
f 149/253/35 159/10/35 148/251/35
f 169/257/7 171/258/7 172/259/7
f 174/260/36 169/257/37 172/259/36
f 172/259/38 173/261/38 174/262/38
f 170/263/39 173/264/39 171/258/39
f 169/257/40 176/265/40 170/263/40
f 150/266/7 31/238/7 32/267/7
f 27/244/10 152/268/10 30/269/10
f 145/1/1 10/225/1 11/2/1
f 145/4/2 162/254/2 161/5/2
f 159/7/3 164/255/3 163/8/3
f 159/10/4 8/226/4 7/11/4
f 161/13/5 6/270/5 5/14/5
f 163/16/6 12/271/6 9/17/6
f 163/8/7 162/254/7 11/19/7
f 20/21/8 43/32/8 35/22/8
f 24/24/9 36/27/9 44/25/9
f 23/23/7 35/22/7 36/27/7
f 16/28/9 47/54/9 39/29/9
f 20/21/10 19/272/10 44/31/10
f 18/33/10 17/273/10 46/34/10
f 26/36/10 25/49/10 37/37/10
f 22/39/11 34/52/11 46/40/11
f 13/42/7 42/274/7 41/43/7
f 18/33/12 45/35/12 33/45/12
f 26/36/11 38/38/11 42/47/11
f 14/44/12 41/43/12 37/37/12
f 29/50/10 28/30/10 39/29/10
f 21/46/7 33/45/7 34/52/7
f 15/53/7 48/275/7 47/54/7
f 29/50/8 40/51/8 48/55/8
f 65/57/8 63/208/8 64/58/8
f 67/60/9 57/220/9 58/61/9
f 69/63/12 61/276/12 62/64/12
f 71/66/11 53/277/11 54/67/11
f 73/69/9 49/212/9 50/70/9
f 75/72/8 51/207/8 52/73/8
f 77/75/12 55/278/12 56/76/12
f 80/78/11 79/211/11 59/79/11
f 55/81/13 77/279/13 81/82/13
f 49/84/14 73/219/14 84/85/14
f 86/87/15 74/200/15 50/88/15
f 51/90/16 75/221/16 87/91/16
f 66/93/16 64/280/16 90/94/16
f 91/96/15 57/281/15 67/97/15
f 93/99/14 68/203/14 58/100/14
f 95/102/17 63/282/17 65/103/17
f 88/105/18 87/283/18 72/106/18
f 71/108/19 86/284/19 85/109/19
f 83/111/20 84/285/20 78/112/20
f 82/114/17 81/216/17 76/115/17
f 62/117/13 95/218/13 96/118/13
f 69/120/20 93/286/20 94/121/20
f 60/123/19 91/213/19 92/124/19
f 79/126/18 89/287/18 90/127/18
f 112/129/9 111/210/9 113/130/9
f 106/132/8 105/215/8 115/133/8
f 110/135/11 109/288/11 117/136/11
f 102/138/12 101/289/12 119/139/12
f 98/141/8 97/157/8 121/142/8
f 100/144/9 99/206/9 123/145/9
f 104/147/11 103/290/11 125/148/11
f 108/150/12 107/291/12 127/151/12
f 129/153/19 125/292/19 103/154/19
f 132/156/16 121/204/16 97/157/16
f 98/159/17 122/201/17 134/160/17
f 135/162/14 123/205/14 99/163/14
f 138/165/14 112/129/14 114/166/14
f 115/168/17 105/293/17 139/169/17
f 106/171/16 116/202/16 141/172/16
f 113/174/15 111/294/15 143/175/15
f 120/177/20 135/295/20 136/178/20
f 133/180/13 134/296/13 119/181/13
f 126/183/18 132/297/18 131/158/18
f 124/185/15 129/217/15 130/186/15
f 144/188/19 143/209/19 110/189/19
f 142/191/18 141/298/18 117/192/18
f 140/194/13 139/214/13 108/195/13
f 107/197/20 138/165/20 137/198/20
f 74/200/10 86/87/10 134/160/10
f 93/99/7 141/172/7 116/202/7
f 84/85/10 73/219/10 121/204/10
f 68/203/7 116/202/7 115/168/7
f 87/91/10 75/221/10 123/205/10
f 94/121/10 58/61/10 106/132/10
f 85/109/7 133/180/7 101/182/7
f 88/105/7 136/178/7 99/206/7
f 63/208/10 95/218/10 143/209/10
f 77/75/10 78/77/10 126/149/10
f 86/87/10 71/66/10 119/139/10
f 79/211/7 127/151/7 137/167/7
f 65/103/7 113/174/7 144/176/7
f 49/212/7 97/157/7 98/141/7
f 72/68/10 87/91/10 135/162/10
f 70/65/7 118/137/7 117/136/7
f 90/127/10 138/165/10 107/197/10
f 51/207/7 99/206/7 100/144/7
f 54/107/7 102/179/7 136/178/7
f 91/213/10 60/123/10 108/195/10
f 54/107/7 53/110/7 101/182/7
f 79/211/7 80/78/7 128/152/7
f 92/98/7 140/170/7 128/152/7
f 55/81/7 103/154/7 104/184/7
f 72/68/10 120/140/10 119/139/10
f 69/63/7 117/136/7 141/172/7
f 58/61/10 57/220/10 105/215/10
f 61/122/10 94/121/10 142/191/10
f 59/128/10 107/197/10 108/195/10
f 81/216/10 77/75/10 125/148/10
f 95/218/10 62/117/10 110/189/10
f 62/117/10 61/122/10 109/193/10
f 55/81/7 82/83/7 130/155/7
f 89/95/7 137/167/7 114/166/7
f 73/219/10 74/200/10 122/201/10
f 96/104/7 144/176/7 118/137/7
f 64/58/10 63/208/10 111/210/10
f 56/113/7 104/184/7 131/158/7
f 90/127/10 64/58/10 112/129/10
f 76/115/10 81/216/10 129/217/10
f 66/93/7 114/166/7 113/174/7
f 78/77/10 84/85/10 132/156/10
f 57/220/10 91/213/10 139/214/10
f 52/73/7 100/144/7 130/155/7
f 50/70/7 98/141/7 133/180/7
f 67/97/7 115/168/7 140/170/7
f 75/221/10 76/115/10 124/185/10
f 83/111/7 131/158/7 97/157/7
f 6/222/21 7/227/21 8/223/21
f 145/1/10 160/18/10 9/17/10
f 11/19/22 10/225/22 9/17/22
f 158/15/10 5/14/10 8/226/10
f 161/5/7 164/255/7 7/227/7
f 165/228/23 2/236/23 4/229/24
f 4/229/25 3/235/25 168/231/25
f 1/233/26 166/299/26 168/234/26
f 2/236/27 165/300/27 166/237/27
f 2/236/10 1/233/10 3/235/10
f 31/238/8 27/244/8 30/239/8
f 153/241/9 151/301/9 150/242/9
f 27/244/11 31/238/11 151/245/11
f 155/247/7 146/256/7 147/248/7
f 156/250/10 149/253/10 148/251/10
f 156/250/28 145/1/28 158/15/28
f 157/252/29 148/251/29 159/10/29
f 154/249/30 147/248/30 161/5/30
f 155/247/31 163/8/31 164/255/31
f 146/256/32 164/255/32 161/5/32
f 154/249/33 162/254/33 163/8/33
f 152/243/12 150/242/12 32/240/12
f 157/252/34 160/18/34 145/1/34
f 149/253/35 158/15/35 159/10/35
f 169/257/7 170/263/7 171/258/7
f 174/260/36 175/302/37 169/257/37
f 172/259/38 171/258/38 173/261/38
f 170/263/39 176/303/39 173/264/39
f 169/257/40 175/304/40 176/265/40
f 150/266/7 151/245/7 31/238/7
f 27/244/10 153/246/10 152/268/10
