# Blender v3.0.0 OBJ File: ''
# www.blender.org
mtllib Clock.mtl
v -0.000000 0.500000 -0.025000
v -0.000000 0.467462 0.025000
v 0.097545 0.490393 -0.025000
v 0.091197 0.458479 0.025000
v 0.191342 0.461940 -0.025000
v 0.178890 0.431878 0.025000
v 0.277785 0.415735 -0.025000
v 0.259708 0.388680 0.025000
v 0.353553 0.353553 -0.025000
v 0.330545 0.330545 0.025000
v 0.415735 0.277785 -0.025000
v 0.388680 0.259708 0.025000
v 0.461940 0.191342 -0.025000
v 0.431878 0.178890 0.025000
v 0.490393 0.097545 -0.025000
v 0.458479 0.091197 0.025000
v 0.500000 -0.000000 -0.025000
v 0.467462 -0.000000 0.025000
v 0.490393 -0.097545 -0.025000
v 0.458479 -0.091197 0.025000
v 0.461940 -0.191342 -0.025000
v 0.431878 -0.178890 0.025000
v 0.415735 -0.277785 -0.025000
v 0.388680 -0.259708 0.025000
v 0.353553 -0.353553 -0.025000
v 0.330545 -0.330545 0.025000
v 0.277785 -0.415735 -0.025000
v 0.259708 -0.388680 0.025000
v 0.191342 -0.461940 -0.025000
v 0.178890 -0.431878 0.025000
v 0.097545 -0.490393 -0.025000
v 0.091197 -0.458479 0.025000
v -0.000000 -0.500000 -0.025000
v -0.000000 -0.467462 0.025000
v -0.097545 -0.490393 -0.025000
v -0.091197 -0.458479 0.025000
v -0.191342 -0.461940 -0.025000
v -0.178890 -0.431878 0.025000
v -0.277785 -0.415735 -0.025000
v -0.259708 -0.388680 0.025000
v -0.353553 -0.353553 -0.025000
v -0.330545 -0.330545 0.025000
v -0.415735 -0.277785 -0.025000
v -0.388680 -0.259708 0.025000
v -0.461940 -0.191342 -0.025000
v -0.431878 -0.178890 0.025000
v -0.490393 -0.097545 -0.025000
v -0.458479 -0.091197 0.025000
v -0.500000 0.000000 -0.025000
v -0.467462 0.000000 0.025000
v -0.490393 0.097545 -0.025000
v -0.458479 0.091197 0.025000
v -0.461940 0.191342 -0.025000
v -0.431878 0.178890 0.025000
v -0.415735 0.277785 -0.025000
v -0.388680 0.259708 0.025000
v -0.353553 0.353553 -0.025000
v -0.330545 0.330545 0.025000
v -0.277785 0.415735 -0.025000
v -0.259708 0.388680 0.025000
v -0.191342 0.461940 -0.025000
v -0.178890 0.431878 0.025000
v -0.097545 0.490393 -0.025000
v -0.091197 0.458479 0.025000
v 0.097545 0.490393 0.025000
v -0.000000 0.500000 0.025000
v 0.191342 0.461940 0.025000
v 0.277785 0.415735 0.025000
v 0.353553 0.353553 0.025000
v 0.415735 0.277785 0.025000
v 0.461940 0.191342 0.025000
v 0.490393 0.097545 0.025000
v 0.500000 -0.000000 0.025000
v 0.490393 -0.097545 0.025000
v 0.461940 -0.191342 0.025000
v 0.415735 -0.277785 0.025000
v 0.353553 -0.353553 0.025000
v 0.277785 -0.415735 0.025000
v 0.191342 -0.461940 0.025000
v 0.097545 -0.490393 0.025000
v -0.000000 -0.500000 0.025000
v -0.097545 -0.490393 0.025000
v -0.191342 -0.461940 0.025000
v -0.277785 -0.415735 0.025000
v -0.353553 -0.353553 0.025000
v -0.415735 -0.277785 0.025000
v -0.461940 -0.191342 0.025000
v -0.490393 -0.097545 0.025000
v -0.500000 0.000000 0.025000
v -0.490393 0.097545 0.025000
v -0.461940 0.191342 0.025000
v -0.415735 0.277785 0.025000
v -0.353553 0.353553 0.025000
v -0.277785 0.415735 0.025000
v -0.191342 0.461940 0.025000
v -0.097545 0.490393 0.025000
v -0.000000 0.025484 -0.000000
v 0.009752 0.023544 -0.000000
v 0.018020 0.018020 -0.000000
v 0.023544 0.009752 -0.000000
v 0.025484 -0.000000 0.000000
v 0.023544 -0.009752 0.000000
v 0.018020 -0.018020 0.000000
v 0.009752 -0.023544 0.000000
v -0.000000 -0.025484 0.000000
v -0.009752 -0.023544 0.000000
v -0.018020 -0.018020 0.000000
v -0.023544 -0.009752 0.000000
v -0.025484 0.000000 -0.000000
v -0.023544 0.009752 -0.000000
v -0.018020 0.018020 -0.000000
v -0.009752 0.023544 -0.000000
v 0.091197 0.458479 -0.000000
v -0.000000 0.467462 -0.000000
v 0.178890 0.431878 -0.000000
v 0.259708 0.388680 -0.000000
v 0.330545 0.330545 -0.000000
v 0.388680 0.259708 -0.000000
v 0.431878 0.178890 -0.000000
v 0.458479 0.091197 -0.000000
v 0.467462 -0.000000 0.000000
v 0.458479 -0.091197 0.000000
v 0.431878 -0.178890 0.000000
v 0.388680 -0.259708 0.000000
v 0.330545 -0.330545 0.000000
v 0.259708 -0.388680 0.000000
v 0.178890 -0.431878 0.000000
v 0.091197 -0.458479 0.000000
v -0.000000 -0.467462 0.000000
v -0.091197 -0.458479 0.000000
v -0.178890 -0.431878 0.000000
v -0.259708 -0.388680 0.000000
v -0.330545 -0.330545 0.000000
v -0.388680 -0.259708 0.000000
v -0.431878 -0.178890 0.000000
v -0.458479 -0.091197 0.000000
v -0.467462 0.000000 -0.000000
v -0.458479 0.091197 -0.000000
v -0.431878 0.178890 -0.000000
v -0.388680 0.259708 -0.000000
v -0.330545 0.330545 -0.000000
v -0.259708 0.388680 -0.000000
v -0.178890 0.431878 -0.000000
v -0.091197 0.458479 -0.000000
v -0.000000 0.025484 0.025000
v 0.009752 0.023544 0.025000
v 0.018020 0.018020 0.025000
v 0.023544 0.009752 0.025000
v 0.025484 0.000000 0.025000
v 0.023544 -0.009752 0.025000
v 0.018020 -0.018020 0.025000
v 0.009752 -0.023544 0.025000
v -0.000000 -0.025484 0.025000
v -0.009752 -0.023544 0.025000
v -0.018020 -0.018020 0.025000
v -0.023544 -0.009752 0.025000
v -0.025484 0.000000 0.025000
v -0.023544 0.009752 0.025000
v -0.018020 0.018020 0.025000
v -0.009752 0.023544 0.025000
vt 0.101074 0.504554
vt 0.045670 0.473755
vt 0.069578 0.457688
vt 0.141368 0.544525
vt 0.080684 0.525109
vt 0.188319 0.575503
vt 0.125566 0.568476
vt 0.240036 0.596617
vt 0.177548 0.601884
vt 0.294630 0.607286
vt 0.234594 0.624467
vt 0.350157 0.607244
vt 0.294651 0.635611
vt 0.404881 0.596283
vt 0.355686 0.635221
vt 0.455953 0.574545
vt 0.415969 0.622336
vt 0.501714 0.543441
vt 0.471820 0.597889
vt 0.540581 0.504108
vt 0.521778 0.563267
vt 0.571103 0.457997
vt 0.564103 0.519677
vt 0.592118 0.406841
vt 0.597198 0.468718
vt 0.561286 0.397837
vt 0.584547 0.350786
vt 0.574532 0.401549
vt 0.592108 0.242908
vt 0.630545 0.291765
vt 0.602832 0.297236
vt 0.571011 0.191625
vt 0.618268 0.232146
vt 0.540284 0.145309
vt 0.594637 0.175951
vt 0.500973 0.105709
vt 0.560485 0.125256
vt 0.454548 0.074347
vt 0.516971 0.082027
vt 0.402508 0.052474
vt 0.465706 0.047800
vt 0.346905 0.041188
vt 0.408265 0.024111
vt 0.290661 0.041036
vt 0.346983 0.012497
vt 0.235745 0.051716
vt 0.285213 0.013023
vt 0.184041 0.073321
vt 0.224666 0.025156
vt 0.137949 0.104342
vt 0.168217 0.049809
vt 0.098802 0.143633
vt 0.117907 0.084372
vt 0.068244 0.189886
vt 0.075207 0.128045
vt 0.047305 0.241232
vt 0.042051 0.179205
vt 0.036731 0.295725
vt 0.019507 0.235838
vt 0.570831 0.349710
vt 0.584538 0.299026
vt 0.036956 0.351318
vt 0.008372 0.295839
vt 0.048013 0.405971
vt 0.009076 0.356959
vt 0.489964 0.529322
vt 0.447143 0.558388
vt 0.055094 0.297448
vt 0.064960 0.246486
vt 0.084522 0.198474
vt 0.602831 0.352572
vt 0.344978 0.059835
vt 0.396989 0.070430
vt 0.399375 0.578581
vt 0.348353 0.588844
vt 0.149677 0.118564
vt 0.065753 0.400520
vt 0.086009 0.448824
vt 0.241113 0.069580
vt 0.292405 0.059579
vt 0.489143 0.120017
vt 0.445683 0.090780
vt 0.113063 0.155255
vt 0.296407 0.588914
vt 0.245347 0.578886
vt 0.554733 0.200274
vt 0.574492 0.248219
vt 0.115546 0.492574
vt 0.192844 0.089630
vt 0.526327 0.492533
vt 0.055345 0.349430
vt 0.153216 0.529988
vt 0.197022 0.559052
vt 0.525961 0.156997
vt 0.542601 0.443193
vt 0.554877 0.449400
vt 0.096835 0.204663
vt 0.199625 0.101749
vt 0.078232 0.250175
vt 0.561386 0.252451
vt 0.161895 0.518997
vt 0.068846 0.298481
vt 0.542679 0.206988
vt 0.203316 0.546651
vt 0.069085 0.347739
vt 0.515421 0.165967
vt 0.249078 0.565560
vt 0.480498 0.130908
vt 0.297480 0.575154
vt 0.439310 0.103228
vt 0.346741 0.575118
vt 0.393133 0.083960
vt 0.395018 0.565425
vt 0.343750 0.073791
vt 0.440323 0.546411
vt 0.293940 0.073409
vt 0.480960 0.518910
vt 0.245355 0.082888
vt 0.515484 0.484065
vt 0.619802 0.412306
vt 0.126198 0.483379
vt 0.098171 0.441921
vt 0.285097 0.857602
vt 0.271455 0.851723
vt 0.275337 0.847841
vt 0.570868 0.300628
vt 0.158652 0.129060
vt 0.078940 0.396175
vt 0.123894 0.163732
vt 0.236036 0.842769
vt 0.249839 0.837279
vt 0.249839 0.842769
vt 0.290191 0.848052
vt 0.277438 0.842769
vt 0.239187 0.853123
vt 0.251940 0.847841
vt 0.291241 0.837279
vt 0.277438 0.837279
vt 0.246061 0.861483
vt 0.255822 0.851723
vt 0.288090 0.826925
vt 0.275337 0.832207
vt 0.260894 0.812422
vt 0.266383 0.826225
vt 0.260894 0.826225
vt 0.255611 0.866576
vt 0.260894 0.853824
vt 0.281216 0.818565
vt 0.271455 0.828326
vt 0.250539 0.815573
vt 0.255822 0.828325
vt 0.266383 0.867627
vt 0.266383 0.853824
vt 0.271666 0.813472
vt 0.242180 0.822447
vt 0.246062 0.818565
vt 0.631059 0.352572
vt 0.021632 0.416971
vt 0.488302 0.806331
vt 0.660362 0.484429
vt 0.982265 0.656489
vt 0.276738 0.864476
vt 0.271665 0.866576
vt 0.239187 0.826925
vt 0.251940 0.832207
vt 0.077167 0.520621
vt 0.120978 0.565080
vt 0.172517 0.599453
vt 0.229265 0.622999
vt 0.289188 0.635135
vt 0.350179 0.635570
vt 0.410529 0.624383
vt 0.467042 0.600598
vt 0.517581 0.566784
vt 0.560645 0.523934
vt 0.594624 0.473567
vt 0.618214 0.417562
vt 0.570897 0.349188
vt 0.619821 0.237438
vt 0.597171 0.180863
vt 0.563911 0.129635
vt 0.521174 0.085656
vt 0.470547 0.050665
vt 0.413665 0.025928
vt 0.352662 0.012824
vt 0.290738 0.012345
vt 0.230297 0.023703
vt 0.172933 0.046931
vt 0.122125 0.080830
vt 0.078759 0.123663
vt 0.044649 0.174298
vt 0.021113 0.230550
vt 0.008934 0.290331
vt 0.570828 0.300105
vt 0.008597 0.351432
vt 0.020134 0.411611
vt 0.561456 0.397337
vt 0.078098 0.250642
vt 0.158225 0.129369
vt 0.068809 0.298975
vt 0.542439 0.206515
vt 0.203798 0.546870
vt 0.069114 0.348272
vt 0.515094 0.165541
vt 0.249592 0.565686
vt 0.079092 0.396666
vt 0.480106 0.130557
vt 0.298007 0.575179
vt 0.438860 0.102945
vt 0.347256 0.575051
vt 0.392644 0.083783
vt 0.395525 0.565270
vt 0.343221 0.073765
vt 0.440805 0.546178
vt 0.293420 0.073490
vt 0.481387 0.518592
vt 0.244871 0.082972
vt 0.515839 0.483669
vt 0.199173 0.101924
vt 0.542868 0.442735
vt 0.630515 0.358037
vt 0.162335 0.519301
vt 0.126511 0.483795
vt 0.281216 0.861483
vt 0.561243 0.251944
vt 0.123524 0.164148
vt 0.098392 0.442405
vt 0.096563 0.205132
vt 0.236036 0.837279
vt 0.288090 0.853123
vt 0.237086 0.848051
vt 0.291241 0.842769
vt 0.242179 0.857601
vt 0.290191 0.831997
vt 0.266383 0.812422
vt 0.250539 0.864475
vt 0.285098 0.822447
vt 0.255611 0.813472
vt 0.260894 0.867627
vt 0.276738 0.815573
vt 0.631059 0.297236
vt 0.043196 0.468688
vt 0.810204 0.978392
vt 0.760581 0.988262
vt 0.709985 0.988262
vt 0.660362 0.978392
vt 0.613618 0.959030
vt 0.571550 0.930920
vt 0.535773 0.895144
vt 0.507664 0.853076
vt 0.478431 0.756708
vt 0.507664 0.609745
vt 0.478431 0.706112
vt 0.488302 0.656489
vt 0.535773 0.567676
vt 0.571549 0.531900
vt 0.613618 0.503791
vt 0.709985 0.474558
vt 0.856948 0.503791
vt 0.760581 0.474558
vt 0.810204 0.484429
vt 0.899017 0.531900
vt 0.934793 0.567676
vt 0.962902 0.609745
vt 0.992135 0.706113
vt 0.992135 0.756708
vt 0.982265 0.806332
vt 0.962902 0.853075
vt 0.934793 0.895144
vt 0.899017 0.930920
vt 0.856948 0.959030
vt 0.237086 0.831997
vn 0.3827 0.9239 0.0000
vn 0.1951 0.9808 0.0000
vn 0.5556 0.8315 0.0000
vn 0.7071 0.7071 0.0000
vn 0.8315 0.5556 0.0000
vn 0.9239 0.3827 0.0000
vn 0.9808 0.1951 -0.0000
vn 1.0000 -0.0000 -0.0000
vn 0.9808 -0.1951 0.0000
vn 0.9239 -0.3827 0.0000
vn 0.8315 -0.5556 0.0000
vn 0.7071 -0.7071 0.0000
vn 0.5556 -0.8315 0.0000
vn -0.5556 0.8315 0.0000
vn -0.3827 0.9239 0.0000
vn -0.0000 -1.0000 0.0000
vn 0.1951 -0.9808 0.0000
vn -0.1951 -0.9808 0.0000
vn -0.3827 -0.9239 0.0000
vn -0.5556 -0.8315 0.0000
vn -0.7071 -0.7071 0.0000
vn -0.8315 -0.5556 0.0000
vn -0.9239 -0.3827 0.0000
vn -0.9808 -0.1951 0.0000
vn -1.0000 -0.0000 0.0000
vn -0.9808 0.1951 -0.0000
vn -0.9239 0.3827 -0.0000
vn -0.8315 0.5556 0.0000
vn -0.7071 0.7071 0.0000
vn -0.1951 0.9808 0.0000
vn 0.0000 1.0000 0.0000
vn 0.0000 0.0000 1.0000
vn 0.3827 -0.9239 0.0000
vn -0.6174 -0.7655 0.1812
vn -0.4709 -0.8634 -0.1813
vn -0.4709 -0.8634 0.1813
vn -0.6175 -0.7654 -0.1813
vn -0.1913 -0.0381 0.9808
vn 0.0381 -0.1913 0.9808
g Clock_Cylinder.001_Clock
usemtl Clock
s 1
f 67/1/1 3/2/2 65/3/2
f 68/4/3 5/5/1 67/1/1
f 69/6/4 7/7/3 68/4/3
f 70/8/5 9/9/4 69/6/4
f 71/10/6 11/11/5 70/8/5
f 72/12/7 13/13/6 71/10/6
f 73/14/8 15/15/7 72/12/7
f 74/16/9 17/17/8 73/14/8
f 75/18/10 19/19/9 74/16/9
f 76/20/11 21/21/10 75/18/10
f 77/22/12 23/23/11 76/20/11
f 78/24/13 25/25/12 77/22/12
f 126/26/14 30/27/15 28/28/14
f 81/29/16 31/30/17 80/31/17
f 82/32/18 33/33/16 81/29/16
f 83/34/19 35/35/18 82/32/18
f 84/36/20 37/37/19 83/34/19
f 85/38/21 39/39/20 84/36/20
f 86/40/22 41/41/21 85/38/21
f 87/42/23 43/43/22 86/40/22
f 88/44/24 45/45/23 87/42/23
f 89/46/25 47/47/24 88/44/24
f 90/48/26 49/49/25 89/46/25
f 91/50/27 51/51/26 90/48/26
f 92/52/28 53/53/27 91/50/27
f 93/54/29 55/55/28 92/52/28
f 94/56/14 57/57/29 93/54/29
f 95/58/15 59/59/14 94/56/14
f 127/60/15 32/61/30 30/27/15
f 96/62/30 61/63/15 95/58/15
f 66/64/31 63/65/30 96/62/30
f 22/66/32 74/16/32 20/67/32
f 62/68/32 94/56/32 60/69/32
f 60/69/32 93/54/32 58/70/32
f 32/61/32 79/71/32 30/27/32
f 46/72/32 86/40/32 44/73/32
f 22/66/32 76/20/32 75/18/32
f 18/74/32 72/12/32 16/75/32
f 54/76/32 92/52/32 91/50/32
f 2/77/32 65/3/32 66/64/32
f 4/78/32 67/1/32 65/3/32
f 50/79/32 88/44/32 48/80/32
f 85/38/32 40/81/32 42/82/32
f 44/73/32 85/38/32 42/82/32
f 58/70/32 92/52/32 56/83/32
f 50/79/32 90/48/32 89/46/32
f 14/84/32 70/8/32 12/85/32
f 16/75/32 71/10/32 14/84/32
f 36/86/32 81/29/32 34/87/32
f 6/88/32 68/4/32 67/1/32
f 52/89/32 91/50/32 90/48/32
f 28/28/32 79/71/32 78/24/32
f 24/90/32 77/22/32 76/20/32
f 96/62/32 62/68/32 64/91/32
f 8/92/32 69/6/32 68/4/32
f 18/74/32 74/16/32 73/14/32
f 32/61/32 81/29/32 80/31/32
f 12/85/32 69/6/32 10/93/32
f 66/64/32 64/91/32 2/77/32
f 38/94/32 84/36/32 83/34/32
f 88/44/32 46/72/32 48/80/32
f 36/86/32 83/34/32 82/32/32
f 125/95/29 28/28/14 26/96/29
f 141/97/12 60/69/13 58/70/12
f 138/98/9 54/76/10 52/89/9
f 142/99/13 62/68/33 60/69/13
f 129/100/31 36/86/2 34/87/31
f 116/101/20 10/93/21 8/92/20
f 143/102/33 64/91/17 62/68/33
f 130/103/2 38/94/1 36/86/2
f 117/104/21 12/85/22 10/93/21
f 144/105/17 2/77/16 64/91/17
f 131/106/1 40/81/3 38/94/1
f 118/107/22 14/84/23 12/85/22
f 132/108/3 42/82/4 40/81/3
f 119/109/23 16/75/24 14/84/23
f 133/110/4 44/73/5 42/82/4
f 120/111/24 18/74/25 16/75/24
f 134/112/5 46/72/6 44/73/5
f 121/113/25 20/67/26 18/74/25
f 135/114/6 48/80/7 46/72/6
f 122/115/26 22/66/27 20/67/26
f 136/116/7 50/79/8 48/80/7
f 123/117/27 24/90/28 22/66/27
f 137/118/8 52/89/9 50/79/8
f 124/119/28 26/96/29 24/90/28
f 79/71/33 27/120/13 78/24/13
f 115/121/19 8/92/20 6/88/19
f 113/122/18 6/88/19 4/78/18
f 108/123/23 155/124/34 156/125/23
f 128/126/30 34/87/31 32/61/30
f 139/127/10 56/83/11 54/76/10
f 114/128/16 4/78/18 2/77/16
f 78/24/32 26/96/32 28/28/32
f 140/129/11 58/70/12 56/83/11
f 102/130/10 149/131/8 150/132/10
f 109/133/25 156/125/23 157/134/25
f 103/135/12 150/132/10 151/136/12
f 110/137/27 157/134/25 158/138/27
f 104/139/33 151/136/12 152/140/33
f 111/141/29 158/138/27 159/142/29
f 98/143/1 145/144/31 146/145/1
f 105/146/16 152/140/33 153/147/16
f 112/148/15 159/142/29 160/149/15
f 99/150/4 146/145/1 147/151/4
f 106/152/35 153/147/16 154/153/36
f 97/154/31 160/149/15 145/144/31
f 147/151/4 100/155/6 99/156/4
f 80/31/17 29/157/33 79/71/33
f 65/3/2 1/158/31 66/64/31
f 140/159/32 132/160/32 124/161/32
f 154/153/36 107/162/37 106/163/35
f 149/131/8 100/164/6 148/165/6
f 155/124/38 151/136/32 147/151/32
f 67/1/1 5/166/1 3/2/2
f 68/4/3 7/167/3 5/5/1
f 69/6/4 9/168/4 7/7/3
f 70/8/5 11/169/5 9/9/4
f 71/10/6 13/170/6 11/11/5
f 72/12/7 15/171/7 13/13/6
f 73/14/8 17/172/8 15/15/7
f 74/16/9 19/173/9 17/17/8
f 75/18/10 21/174/10 19/19/9
f 76/20/11 23/175/11 21/21/10
f 77/22/12 25/176/12 23/23/11
f 78/24/13 27/177/13 25/25/12
f 126/26/14 127/178/15 30/27/15
f 81/29/16 33/179/16 31/30/17
f 82/32/18 35/180/18 33/33/16
f 83/34/19 37/181/19 35/35/18
f 84/36/20 39/182/20 37/37/19
f 85/38/21 41/183/21 39/39/20
f 86/40/22 43/184/22 41/41/21
f 87/42/23 45/185/23 43/43/22
f 88/44/24 47/186/24 45/45/23
f 89/46/25 49/187/25 47/47/24
f 90/48/26 51/188/26 49/49/25
f 91/50/27 53/189/27 51/51/26
f 92/52/28 55/190/28 53/53/27
f 93/54/29 57/191/29 55/55/28
f 94/56/14 59/192/14 57/57/29
f 95/58/15 61/193/15 59/59/14
f 127/60/15 128/194/30 32/61/30
f 96/62/30 63/195/30 61/63/15
f 66/64/31 1/196/31 63/65/30
f 22/66/32 75/18/32 74/16/32
f 62/68/32 95/58/32 94/56/32
f 60/69/32 94/56/32 93/54/32
f 32/61/32 80/31/32 79/71/32
f 46/72/32 87/42/32 86/40/32
f 22/66/32 24/90/32 76/20/32
f 18/74/32 73/14/32 72/12/32
f 54/76/32 56/83/32 92/52/32
f 2/77/32 4/78/32 65/3/32
f 4/78/32 6/88/32 67/1/32
f 50/79/32 89/46/32 88/44/32
f 85/38/32 84/36/32 40/81/32
f 44/73/32 86/40/32 85/38/32
f 58/70/32 93/54/32 92/52/32
f 50/79/32 52/89/32 90/48/32
f 14/84/32 71/10/32 70/8/32
f 16/75/32 72/12/32 71/10/32
f 36/86/32 82/32/32 81/29/32
f 6/88/32 8/92/32 68/4/32
f 52/89/32 54/76/32 91/50/32
f 28/28/32 30/27/32 79/71/32
f 24/90/32 26/96/32 77/22/32
f 96/62/32 95/58/32 62/68/32
f 8/92/32 10/93/32 69/6/32
f 18/74/32 20/67/32 74/16/32
f 32/61/32 34/87/32 81/29/32
f 12/85/32 70/8/32 69/6/32
f 66/64/32 96/62/32 64/91/32
f 38/94/32 40/81/32 84/36/32
f 88/44/32 87/42/32 46/72/32
f 36/86/32 38/94/32 83/34/32
f 125/95/29 126/197/14 28/28/14
f 141/97/12 142/198/13 60/69/13
f 138/98/9 139/199/10 54/76/10
f 142/99/13 143/200/33 62/68/33
f 129/100/31 130/201/2 36/86/2
f 116/101/20 117/202/21 10/93/21
f 143/102/33 144/203/17 64/91/17
f 130/103/2 131/204/1 38/94/1
f 117/104/21 118/205/22 12/85/22
f 144/105/17 114/206/16 2/77/16
f 131/106/1 132/207/3 40/81/3
f 118/107/22 119/208/23 14/84/23
f 132/108/3 133/209/4 42/82/4
f 119/109/23 120/210/24 16/75/24
f 133/110/4 134/211/5 44/73/5
f 120/111/24 121/212/25 18/74/25
f 134/112/5 135/213/6 46/72/6
f 121/113/25 122/214/26 20/67/26
f 135/114/6 136/215/7 48/80/7
f 122/115/26 123/216/27 22/66/27
f 136/116/7 137/217/8 50/79/8
f 123/117/27 124/218/28 24/90/28
f 137/118/8 138/219/9 52/89/9
f 124/119/28 125/220/29 26/96/29
f 79/71/33 29/221/33 27/120/13
f 115/121/19 116/222/20 8/92/20
f 113/122/18 115/223/19 6/88/19
f 108/123/23 107/224/37 155/124/34
f 128/126/30 129/225/31 34/87/31
f 139/127/10 140/226/11 56/83/11
f 114/128/16 113/227/18 4/78/18
f 78/24/32 77/22/32 26/96/32
f 140/129/11 141/228/12 58/70/12
f 102/130/10 101/229/8 149/131/8
f 109/133/25 108/230/23 156/125/23
f 103/135/12 102/231/10 150/132/10
f 110/137/27 109/232/25 157/134/25
f 104/139/33 103/233/12 151/136/12
f 111/141/29 110/234/27 158/138/27
f 98/143/1 97/235/31 145/144/31
f 105/146/16 104/236/33 152/140/33
f 112/148/15 111/237/29 159/142/29
f 99/150/4 98/238/1 146/145/1
f 106/152/35 105/239/16 153/147/16
f 97/154/31 112/240/15 160/149/15
f 147/151/4 148/165/6 100/155/6
f 80/31/17 31/241/17 29/157/33
f 65/3/2 3/242/2 1/158/31
f 116/243/32 115/244/32 113/245/32
f 113/245/32 114/246/32 144/247/32
f 144/247/32 143/248/32 142/249/32
f 142/249/32 141/250/32 140/159/32
f 140/159/32 139/251/32 136/252/32
f 139/251/32 138/253/32 136/252/32
f 138/253/32 137/254/32 136/252/32
f 136/252/32 135/255/32 132/160/32
f 135/255/32 134/256/32 132/160/32
f 134/256/32 133/257/32 132/160/32
f 132/160/32 131/258/32 128/259/32
f 131/258/32 130/260/32 128/259/32
f 130/260/32 129/261/32 128/259/32
f 128/259/32 127/262/32 124/161/32
f 127/262/32 126/263/32 124/161/32
f 126/263/32 125/264/32 124/161/32
f 124/161/32 123/265/32 122/266/32
f 122/266/32 121/267/32 120/268/32
f 120/268/32 119/269/32 116/243/32
f 119/269/32 118/270/32 116/243/32
f 118/270/32 117/271/32 116/243/32
f 116/243/32 113/245/32 144/247/32
f 144/247/32 142/249/32 140/159/32
f 124/161/32 122/266/32 120/268/32
f 116/243/32 144/247/32 140/159/32
f 140/159/32 136/252/32 132/160/32
f 132/160/32 128/259/32 124/161/32
f 124/161/32 120/268/32 116/243/32
f 116/243/32 140/159/32 124/161/32
f 154/153/36 155/124/34 107/162/37
f 149/131/8 101/272/8 100/164/6
f 147/151/32 146/145/32 145/144/32
f 145/144/32 160/149/32 147/151/32
f 160/149/32 159/142/32 147/151/32
f 159/142/32 158/138/32 157/134/32
f 157/134/32 156/125/32 155/124/38
f 155/124/38 154/153/39 151/136/32
f 154/153/39 153/147/32 151/136/32
f 153/147/32 152/140/32 151/136/32
f 151/136/32 150/132/32 149/131/32
f 149/131/32 148/165/32 147/151/32
f 159/142/32 157/134/32 147/151/32
f 157/134/32 155/124/38 147/151/32
f 151/136/32 149/131/32 147/151/32
