# Blender v2.93.6 OBJ File: 'Resonance Levels.blend'
# www.blender.org
mtllib Crate 1.5ft.mtl
o Crate_1.5ft_Cube.005
v 0.304800 0.076200 4.724400
v 0.304800 0.381000 4.670518
v 0.304800 0.130082 4.419600
v 0.304800 0.381000 4.419600
v 0.762000 0.130082 4.724400
v 0.762000 0.381000 4.724400
v 0.762000 0.076200 4.419600
v 0.762000 0.381000 4.473482
v 0.381000 0.076200 4.343400
v 0.381000 0.130082 4.800600
v 0.381000 0.381000 4.800600
v 0.434882 0.381000 4.343400
v 0.685800 0.381000 4.343400
v 0.685800 0.130082 4.343400
v 0.685800 0.076200 4.800600
v 0.631919 0.381000 4.800600
v 0.381000 0.000000 4.670518
v 0.381000 0.457200 4.724400
v 0.434882 0.457200 4.419600
v 0.381000 0.000000 4.419600
v 0.631919 0.000000 4.419600
v 0.685800 0.457200 4.419600
v 0.685800 0.457200 4.670518
v 0.685800 0.000000 4.724400
v 0.304800 0.000000 4.343400
v 0.304800 0.000000 4.800600
v 0.304800 0.457200 4.800600
v 0.304800 0.457200 4.343400
v 0.762000 0.000000 4.343400
v 0.762000 0.457200 4.343400
v 0.762000 0.000000 4.800600
v 0.762000 0.457200 4.800600
v 0.304800 0.076200 4.473482
v 0.304800 0.327119 4.724400
v 0.631919 0.076200 4.343400
v 0.381000 0.327119 4.343400
v 0.762000 0.076200 4.670518
v 0.762000 0.327119 4.419600
v 0.434882 0.076200 4.800600
v 0.685800 0.327119 4.800600
v 0.434882 0.000000 4.724400
v 0.685800 0.000000 4.473482
v 0.631919 0.457200 4.724400
v 0.381000 0.457200 4.473482
v 0.304800 0.076200 4.419600
v 0.304800 0.381000 4.724400
v 0.685800 0.076200 4.343400
v 0.381000 0.381000 4.343400
v 0.762000 0.076200 4.724400
v 0.762000 0.381000 4.419600
v 0.381000 0.076200 4.800600
v 0.685800 0.381000 4.800600
v 0.381000 0.000000 4.724400
v 0.685800 0.000000 4.419600
v 0.685800 0.457200 4.724400
v 0.381000 0.457200 4.419600
v 0.323850 0.130082 4.419600
v 0.323850 0.381000 4.670518
v 0.685800 0.130082 4.362450
v 0.434882 0.381000 4.362450
v 0.742950 0.130082 4.724400
v 0.742950 0.381000 4.473482
v 0.381000 0.130082 4.781550
v 0.631919 0.381000 4.781550
v 0.381000 0.019050 4.670518
v 0.631919 0.019050 4.419600
v 0.685800 0.438150 4.670518
v 0.434882 0.438150 4.419600
v 0.323850 0.381000 4.419600
v 0.742950 0.381000 4.724400
v 0.381000 0.381000 4.781550
v 0.685800 0.381000 4.362450
v 0.381000 0.019050 4.419600
v 0.685800 0.438150 4.419600
v 0.323850 0.076200 4.473482
v 0.323850 0.327119 4.724400
v 0.631919 0.076200 4.362450
v 0.381000 0.327119 4.362450
v 0.742950 0.076200 4.670518
v 0.742950 0.327119 4.419600
v 0.434882 0.076200 4.781550
v 0.685800 0.327119 4.781550
v 0.434882 0.019050 4.724400
v 0.685800 0.019050 4.473482
v 0.631919 0.438150 4.724400
v 0.381000 0.438150 4.473482
v 0.323850 0.076200 4.724400
v 0.742950 0.076200 4.419600
v 0.381000 0.076200 4.362450
v 0.685800 0.076200 4.781550
v 0.381000 0.438150 4.724400
v 0.685800 0.019050 4.724400
v 0.323850 0.438150 4.362450
v 0.742950 0.438150 4.781550
v 0.323850 0.438150 4.781550
v 0.742950 0.438150 4.362450
v 0.323850 0.019050 4.781550
v 0.742950 0.019050 4.362450
v 0.323850 0.019050 4.362450
v 0.742950 0.019050 4.781550
vt 0.417828 0.063131
vt 0.417828 0.027231
vt 0.420554 0.027231
vt 0.420554 0.063131
vt 0.382760 0.063131
vt 0.382761 0.027231
vt 0.385486 0.027231
vt 0.385485 0.063131
vt 0.579070 0.255723
vt 0.579070 0.306494
vt 0.576344 0.306494
vt 0.576344 0.255723
vt 0.347692 0.055422
vt 0.347692 0.019522
vt 0.350418 0.019522
vt 0.350417 0.055422
vt 0.290819 0.019522
vt 0.290819 0.055422
vt 0.288094 0.055422
vt 0.288093 0.019522
vt 0.565806 0.306494
vt 0.565806 0.255723
vt 0.568531 0.255723
vt 0.568532 0.306494
vt 0.530738 0.255723
vt 0.530738 0.306493
vt 0.528012 0.306494
vt 0.528012 0.255723
vt 0.325887 0.027231
vt 0.325887 0.063131
vt 0.323162 0.063131
vt 0.323162 0.027231
vt 0.517474 0.306494
vt 0.517474 0.255724
vt 0.520200 0.255724
vt 0.520199 0.306494
vt 0.482406 0.255723
vt 0.482406 0.306493
vt 0.479681 0.306494
vt 0.479681 0.255724
vt 0.255751 0.027231
vt 0.255751 0.063131
vt 0.253025 0.063131
vt 0.253025 0.027231
vt 0.277555 0.063131
vt 0.277555 0.027231
vt 0.280281 0.027231
vt 0.280281 0.063131
vt 0.406926 0.074033
vt 0.406926 0.008619
vt 0.417829 0.019522
vt 0.220683 0.063131
vt 0.220683 0.027231
vt 0.220682 0.019522
vt 0.231585 0.008619
vt 0.231585 0.074033
vt 0.604473 0.182983
vt 0.604472 0.218883
vt 0.593570 0.229786
vt 0.593570 0.164372
vt 0.604473 0.175274
vt 0.617737 0.211174
vt 0.617737 0.175274
vt 0.628640 0.164372
vt 0.628640 0.229785
vt 0.617738 0.218884
vt 0.652807 0.218883
vt 0.652807 0.182983
vt 0.652807 0.175274
vt 0.663709 0.164372
vt 0.663709 0.229785
vt 0.687875 0.218883
vt 0.687875 0.182984
vt 0.687875 0.175274
vt 0.698777 0.164372
vt 0.698777 0.229786
vt 0.722944 0.211174
vt 0.722944 0.175274
vt 0.733846 0.164372
vt 0.733846 0.229786
vt 0.722943 0.218883
vt 0.396024 0.055422
vt 0.396024 0.019522
vt 0.396023 0.063131
vt 0.582668 0.211174
vt 0.582669 0.175274
vt 0.582668 0.218883
vt 0.312623 0.019522
vt 0.312623 0.055422
vt 0.312623 0.063131
vt 0.301721 0.074033
vt 0.301721 0.008619
vt 0.360956 0.063131
vt 0.360956 0.027231
vt 0.360956 0.019522
vt 0.371858 0.008619
vt 0.371858 0.074033
vt 0.639542 0.182983
vt 0.639542 0.218883
vt 0.639542 0.175274
vt 0.744748 0.182983
vt 0.744748 0.218883
vt 0.744748 0.175274
vt 0.758012 0.218883
vt 0.758012 0.182984
vt 0.758012 0.175274
vt 0.768914 0.164372
vt 0.768914 0.229786
vt 0.255751 0.019522
vt 0.266653 0.008619
vt 0.266653 0.074033
vt 0.325887 0.019522
vt 0.336790 0.008619
vt 0.336790 0.074033
vt 0.242487 0.019522
vt 0.242487 0.055421
vt 0.242487 0.063131
vt 0.290819 0.063131
vt 0.382760 0.019522
vt 0.674611 0.175274
vt 0.674611 0.211174
vt 0.674611 0.218883
vt 0.709679 0.175274
vt 0.709679 0.211174
vt 0.709680 0.218883
vt 0.779817 0.182983
vt 0.779817 0.218883
vt 0.779817 0.175274
vt 0.277556 0.019522
vt 0.484450 0.936131
vt 0.424487 0.876169
vt 0.484450 0.876169
vt 0.554904 0.306494
vt 0.554904 0.255723
vt 0.560355 0.250272
vt 0.560355 0.311945
vt 0.589972 0.255723
vt 0.589972 0.306494
vt 0.584521 0.311945
vt 0.584521 0.250272
vt 0.458240 0.306494
vt 0.458240 0.255723
vt 0.463691 0.250272
vt 0.469142 0.255723
vt 0.469142 0.306494
vt 0.463691 0.311945
vt 0.487857 0.250272
vt 0.493308 0.255723
vt 0.493309 0.306494
vt 0.487857 0.311945
vt 0.536189 0.250272
vt 0.541640 0.255723
vt 0.541640 0.306494
vt 0.536189 0.311945
vt 0.347692 0.063131
vt 0.544412 0.936131
vt 0.604374 0.936131
vt 0.544412 0.876169
vt 0.424487 0.936131
vt 0.484450 0.996094
vt 0.424487 0.996094
vt 0.424487 0.816207
vt 0.484450 0.816207
vt 0.364525 0.936131
vt 0.364525 0.876169
vt 0.604374 0.876169
vt 0.471868 0.255723
vt 0.471868 0.306494
vt 0.712405 0.175274
vt 0.712404 0.211174
vt 0.615011 0.211174
vt 0.615012 0.175275
vt 0.496034 0.255723
vt 0.496034 0.306494
vt 0.650081 0.218883
vt 0.650081 0.182984
vt 0.544366 0.255723
vt 0.544366 0.306493
vt 0.579942 0.211174
vt 0.579943 0.175274
vt 0.217957 0.063131
vt 0.217957 0.027231
vt 0.315349 0.019522
vt 0.315349 0.055422
vt 0.607199 0.182983
vt 0.607198 0.218883
vt 0.747474 0.182983
vt 0.747473 0.218883
vt 0.685149 0.218883
vt 0.685149 0.182983
vt 0.755286 0.218883
vt 0.755287 0.182983
vt 0.720218 0.211174
vt 0.720218 0.175274
vt 0.506572 0.255723
vt 0.506572 0.306494
vt 0.503846 0.306494
vt 0.503846 0.255723
vt 0.245213 0.019522
vt 0.245213 0.055422
vt 0.393298 0.055422
vt 0.393299 0.019522
vt 0.552178 0.306494
vt 0.552178 0.255723
vt 0.677337 0.175274
vt 0.677336 0.211174
vt 0.358230 0.063131
vt 0.358230 0.027231
vt 0.592698 0.255723
vt 0.592698 0.306494
vt 0.782542 0.182983
vt 0.782542 0.218883
vt 0.642267 0.182984
vt 0.642268 0.218884
vt 0.455515 0.306494
vt 0.455515 0.255723
vt 0.512023 0.250272
vt 0.512023 0.311945
vn 0.0000 0.0000 -1.0000
vn 0.0000 0.0000 1.0000
vn 0.0000 0.7071 0.7071
vn 0.0000 1.0000 0.0000
vn 0.7071 0.7071 0.0000
vn -0.7071 0.0000 0.7071
vn 1.0000 0.0000 0.0000
vn 0.0000 0.7071 -0.7071
vn 0.7071 0.0000 0.7071
vn 0.0000 -1.0000 0.0000
vn -1.0000 0.0000 0.0000
vn -0.7071 0.7071 0.0000
vn -0.7071 0.0000 -0.7071
vn 0.7071 0.0000 -0.7071
vn 0.0000 -0.7071 0.7071
vn -0.7071 -0.7071 0.0000
vn 0.0000 -0.7071 -0.7071
vn 0.7071 -0.7071 0.0000
g Crate_1.5ft_Cube.005_Crates
usemtl Crates
s off
f 1/1/1 34/2/1 76/3/1 87/4/1
f 22/5/2 19/6/2 68/7/2 74/8/2
f 5/9/3 8/10/3 62/11/3 61/12/3
f 33/13/4 1/14/4 87/15/4 75/16/4
f 20/17/2 21/18/2 66/19/2 73/20/2
f 14/21/5 12/22/5 60/23/5 59/24/5
f 43/25/6 44/26/6 86/27/6 85/28/6
f 17/29/7 20/30/7 73/31/7 65/32/7
f 3/33/8 2/34/8 58/35/8 57/36/8
f 41/37/9 42/38/9 84/39/9 83/40/9
f 16/41/10 11/42/10 71/43/10 64/44/10
f 18/45/1 43/46/1 85/47/1 91/48/1
f 34/2/11 1/1/11 26/49/11 27/50/11 46/51/11
f 4/52/11 2/53/11 46/54/11 27/55/11 28/56/11
f 3/57/11 4/58/11 28/59/11 25/60/11 45/61/11
f 38/62/7 7/63/7 29/64/7 30/65/7 50/66/7
f 7/67/7 37/68/7 49/69/7 31/70/7 29/71/7
f 6/72/7 8/73/7 50/74/7 30/75/7 32/76/7
f 5/77/7 6/78/7 32/79/7 31/80/7 49/81/7
f 10/82/2 11/83/2 27/50/2 26/49/2 51/84/2
f 36/85/1 9/86/1 25/60/1 28/59/1 48/87/1
f 9/88/1 35/89/1 47/90/1 29/91/1 25/92/1
f 13/93/1 12/94/1 48/95/1 28/96/1 30/97/1
f 14/98/1 13/99/1 30/65/1 29/64/1 47/100/1
f 40/101/2 15/102/2 31/80/2 32/79/2 52/103/2
f 15/104/2 39/105/2 51/106/2 26/107/2 31/108/2
f 11/42/2 16/41/2 52/109/2 32/110/2 27/111/2
f 20/30/10 17/29/10 53/112/10 26/113/10 25/114/10
f 18/115/4 44/116/4 56/117/4 28/56/4 27/55/4
f 21/18/10 20/17/10 25/92/10 29/91/10 54/118/10
f 19/6/4 22/5/4 30/97/4 28/96/4 56/119/4
f 24/120/10 42/121/10 54/122/10 29/71/10 31/70/10
f 22/123/4 23/124/4 55/125/4 32/76/4 30/75/4
f 41/126/10 24/127/10 31/108/10 26/107/10 53/128/10
f 43/46/4 18/45/4 27/111/4 32/110/4 55/129/4
f 95/130/11 99/131/11 97/132/11
f 35/133/1 36/134/1 48/135/1 12/22/1 14/21/1 47/136/1
f 37/137/7 38/138/7 50/139/7 8/10/7 5/9/7 49/140/7
f 39/141/2 40/142/2 52/143/2 16/144/2 10/145/2 51/146/2
f 42/38/10 41/37/10 53/147/10 17/148/10 21/149/10 54/150/10
f 44/26/4 43/25/4 55/151/4 23/152/4 19/153/4 56/154/4
f 1/14/11 33/13/11 45/155/11 25/114/11 26/113/11
f 94/156/2 95/130/2 97/132/2
f 96/157/7 94/156/7 100/158/7
f 95/130/11 93/159/11 99/131/11
f 93/159/4 94/160/4 96/161/4
f 94/156/2 97/132/2 100/158/2
f 93/159/4 95/130/4 94/160/4
f 98/162/10 100/163/10 97/132/10
f 93/159/1 96/164/1 98/165/1
f 98/162/10 97/132/10 99/131/10
f 96/157/7 100/158/7 98/166/7
f 93/159/1 98/165/1 99/131/1
f 10/145/12 16/144/12 64/167/12 63/168/12
f 23/124/11 22/123/11 74/169/11 67/170/11
f 7/63/2 38/62/2 80/171/2 88/172/2
f 21/149/13 17/148/13 65/173/13 66/174/13
f 37/68/4 7/67/4 88/175/4 79/176/4
f 19/153/14 23/152/14 67/177/14 68/178/14
f 9/86/7 36/85/7 78/179/7 89/180/7
f 2/53/10 4/52/10 69/181/10 58/182/10
f 35/89/4 9/88/4 89/183/4 77/184/4
f 4/58/2 3/57/2 57/185/2 69/186/2
f 15/102/11 40/101/11 82/187/11 90/188/11
f 8/73/10 6/72/10 70/189/10 62/190/10
f 39/105/4 15/104/4 90/191/4 81/192/4
f 6/78/1 5/77/1 61/193/1 70/194/1
f 34/195/15 33/196/15 75/197/15 76/198/15
f 44/116/7 18/115/7 91/199/7 86/200/7
f 11/83/7 10/82/7 63/201/7 71/202/7
f 36/134/16 35/133/16 77/203/16 78/204/16
f 42/121/11 24/120/11 92/205/11 84/206/11
f 12/94/10 13/93/10 72/207/10 60/208/10
f 38/138/17 37/137/17 79/209/17 80/210/17
f 24/127/1 41/126/1 83/211/1 92/212/1
f 13/99/11 14/98/11 59/213/11 72/214/11
f 40/142/18 39/141/18 81/215/18 82/216/18
f 33/196/11 34/195/11 46/217/11 2/34/11 3/33/11 45/218/11
