# Blender v2.93.6 OBJ File: 'Resonance Levels.blend'
# www.blender.org
mtllib Crate 2 (extra).mtl
v -0.304800 0.076200 0.228600
v -0.304800 0.533400 0.174718
v -0.304800 0.130082 -0.228600
v -0.304800 0.533400 -0.228600
v 0.304800 0.130082 0.228600
v 0.304800 0.533400 0.228600
v 0.304800 0.076200 -0.228600
v 0.304800 0.533400 -0.174718
v -0.228600 0.076200 -0.304800
v -0.228600 0.130082 0.304800
v -0.228600 0.533400 0.304800
v -0.174718 0.533400 -0.304800
v 0.228600 0.533400 -0.304800
v 0.228600 0.130082 -0.304800
v 0.228600 0.076200 0.304800
v 0.174718 0.533400 0.304800
v -0.228600 0.000000 0.174718
v -0.228600 0.609600 0.228600
v -0.174718 0.609600 -0.228600
v -0.228600 0.000000 -0.228600
v 0.174718 0.000000 -0.228600
v 0.228600 0.609600 -0.228600
v 0.228600 0.609600 0.174718
v 0.228600 0.000000 0.228600
v -0.304800 0.000000 -0.304800
v -0.304800 0.000000 0.304800
v -0.304800 0.609600 0.304800
v -0.304800 0.609600 -0.304800
v 0.304800 0.000000 -0.304800
v 0.304800 0.609600 -0.304800
v 0.304800 0.000000 0.304800
v 0.304800 0.609600 0.304800
v -0.304800 0.076200 -0.174718
v -0.304800 0.479518 0.228600
v 0.174718 0.076200 -0.304800
v -0.228600 0.479518 -0.304800
v 0.304800 0.076200 0.174718
v 0.304800 0.479518 -0.228600
v -0.174718 0.076200 0.304800
v 0.228600 0.479518 0.304800
v -0.174718 0.000000 0.228600
v 0.228600 0.000000 -0.174718
v 0.174718 0.609600 0.228600
v -0.228600 0.609600 -0.174718
v -0.304800 0.076200 -0.228600
v -0.304800 0.533400 0.228600
v 0.228600 0.076200 -0.304800
v -0.228600 0.533400 -0.304800
v 0.304800 0.076200 0.228600
v 0.304800 0.533400 -0.228600
v -0.228600 0.076200 0.304800
v 0.228600 0.533400 0.304800
v -0.228600 0.000000 0.228600
v 0.228600 0.000000 -0.228600
v 0.228600 0.609600 0.228600
v -0.228600 0.609600 -0.228600
v -0.285750 0.130082 -0.228600
v -0.285750 0.533400 0.174718
v 0.228600 0.130082 -0.285750
v -0.174718 0.533400 -0.285750
v 0.285750 0.130082 0.228600
v 0.285750 0.533400 -0.174718
v -0.228600 0.130082 0.285750
v 0.174718 0.533400 0.285750
v -0.228600 0.019050 0.174718
v 0.174718 0.019050 -0.228600
v 0.228600 0.590550 0.174718
v -0.174718 0.590550 -0.228600
v -0.285750 0.533400 -0.228600
v 0.285750 0.533400 0.228600
v -0.228600 0.533400 0.285750
v 0.228600 0.533400 -0.285750
v -0.228600 0.019050 -0.228600
v 0.228600 0.590550 -0.228600
v -0.285750 0.076200 -0.174718
v -0.285750 0.479518 0.228600
v 0.174718 0.076200 -0.285750
v -0.228600 0.479518 -0.285750
v 0.285750 0.076200 0.174718
v 0.285750 0.479518 -0.228600
v -0.174718 0.076200 0.285750
v 0.228600 0.479518 0.285750
v -0.174718 0.019050 0.228600
v 0.228600 0.019050 -0.174718
v 0.174718 0.590550 0.228600
v -0.228600 0.590550 -0.174718
v -0.285750 0.076200 0.228600
v 0.285750 0.076200 -0.228600
v -0.228600 0.076200 -0.285750
v 0.228600 0.076200 0.285750
v -0.228600 0.590550 0.228600
v 0.228600 0.019050 0.228600
v -0.285750 0.590550 -0.285750
v 0.285750 0.590550 0.285750
v -0.285750 0.590550 0.285750
v 0.285750 0.590550 -0.285750
v -0.285750 0.019050 0.285750
v 0.285750 0.019050 -0.285750
v -0.285750 0.019050 -0.285750
v 0.285750 0.019050 0.285750
vt 0.793082 0.211164
vt 0.790355 0.153429
vt 0.793082 0.153429
vt 0.849982 0.161142
vt 0.852709 0.218877
vt 0.849982 0.218877
vt 0.434067 0.337377
vt 0.431340 0.255726
vt 0.434067 0.255726
vt 0.885065 0.153428
vt 0.887792 0.211164
vt 0.885065 0.211164
vt 0.898332 0.211164
vt 0.895605 0.153429
vt 0.898332 0.153429
vt 0.420800 0.255726
vt 0.423527 0.337377
vt 0.420800 0.337377
vt 0.385718 0.337377
vt 0.382990 0.255726
vt 0.385717 0.255726
vt 0.863249 0.218877
vt 0.860522 0.161142
vt 0.863249 0.161142
vt 0.372451 0.255726
vt 0.375178 0.337377
vt 0.372451 0.337377
vt 0.337367 0.337377
vt 0.334640 0.255726
vt 0.337368 0.255726
vt 0.955231 0.153428
vt 0.957958 0.211164
vt 0.955231 0.211164
vt 0.933415 0.211164
vt 0.930688 0.153429
vt 0.933415 0.153429
vt 0.803990 0.229785
vt 0.803990 0.142521
vt 0.968498 0.161142
vt 0.979406 0.142520
vt 0.979406 0.229786
vt 0.196508 0.008619
vt 0.207417 0.027241
vt 0.196509 0.095885
vt 0.161426 0.095884
vt 0.150517 0.077263
vt 0.161425 0.008619
vt 0.115434 0.027241
vt 0.126342 0.008619
vt 0.126343 0.095885
vt 0.102168 0.077263
vt 0.091259 0.095885
vt 0.091259 0.008619
vt 0.056176 0.008619
vt 0.067084 0.027241
vt 0.056176 0.095885
vt 0.814898 0.161142
vt 0.185600 0.077263
vt 0.920147 0.211164
vt 0.909240 0.229786
vt 0.909240 0.142520
vt 0.828166 0.161142
vt 0.839074 0.142520
vt 0.839074 0.229786
vt 0.172334 0.027241
vt 0.045268 0.077263
vt 0.032002 0.077263
vt 0.021093 0.095885
vt 0.021093 0.008619
vt 0.944323 0.229786
vt 0.944322 0.142520
vt 0.874157 0.142520
vt 0.874157 0.229786
vt 0.990314 0.211164
vt 0.137251 0.077263
vt 0.080351 0.027241
vt 0.010185 0.077263
vt 0.167528 0.576509
vt 0.085717 0.494698
vt 0.167528 0.494698
vt 0.409892 0.255726
vt 0.444975 0.255726
vt 0.313192 0.337377
vt 0.313192 0.255726
vt 0.324100 0.337377
vt 0.348276 0.255726
vt 0.348276 0.337377
vt 0.396625 0.255726
vt 0.396625 0.337376
vt 0.249340 0.576509
vt 0.331151 0.576509
vt 0.249340 0.494698
vt 0.085717 0.576509
vt 0.167528 0.658320
vt 0.085717 0.658320
vt 0.085717 0.412887
vt 0.167528 0.412887
vt 0.003906 0.576509
vt 0.003906 0.494698
vt 0.331151 0.494698
vt 0.310465 0.255726
vt 0.080351 0.084977
vt 0.077624 0.027241
vt 0.147790 0.019528
vt 0.150517 0.019528
vt 0.351003 0.337377
vt 0.115434 0.084976
vt 0.112707 0.027241
vt 0.399353 0.337377
vt 0.182873 0.019528
vt 0.185600 0.019528
vt 0.968498 0.218877
vt 0.965771 0.161142
vt 0.920148 0.153428
vt 0.922875 0.211164
vt 0.210144 0.084976
vt 0.207417 0.084976
vt 0.042541 0.019528
vt 0.045268 0.019527
vt 0.102168 0.019528
vt 0.104895 0.077264
vt 0.032001 0.019527
vt 0.034729 0.077263
vt 0.069812 0.084976
vt 0.067084 0.084976
vt 0.361542 0.337377
vt 0.358815 0.255726
vt 0.361542 0.255726
vt 0.990314 0.153428
vt 0.993042 0.211164
vt 0.817625 0.218878
vt 0.814898 0.218877
vt 0.409892 0.337377
vt 0.407165 0.255726
vt 0.137251 0.019527
vt 0.139978 0.077263
vt 0.828165 0.218877
vt 0.825439 0.161142
vt 0.447702 0.337377
vt 0.444975 0.337377
vt 0.007458 0.019528
vt 0.010185 0.019528
vt 0.175060 0.084976
vt 0.172334 0.084976
vt 0.324100 0.255726
vt 0.326827 0.337377
vt 0.790354 0.211164
vt 0.852709 0.161142
vt 0.431340 0.337377
vt 0.887792 0.153428
vt 0.895605 0.211164
vt 0.423527 0.255726
vt 0.382990 0.337377
vt 0.860522 0.218877
vt 0.375178 0.255726
vt 0.334640 0.337377
vt 0.957958 0.153429
vt 0.930687 0.211164
vt 0.793082 0.218877
vt 0.968498 0.153428
vt 0.207417 0.019528
vt 0.150517 0.084977
vt 0.115434 0.019527
vt 0.102167 0.084977
vt 0.067085 0.019528
vt 0.814898 0.153428
vt 0.185601 0.084976
vt 0.920148 0.218877
vt 0.828166 0.153429
vt 0.172334 0.019528
vt 0.045268 0.084977
vt 0.032001 0.084976
vt 0.955230 0.218877
vt 0.863249 0.153429
vt 0.990314 0.218877
vt 0.898331 0.218877
vt 0.849983 0.153429
vt 0.137251 0.084976
vt 0.080351 0.019528
vt 0.010185 0.084976
vt 0.933415 0.218877
vt 0.415346 0.342831
vt 0.415346 0.250272
vt 0.439521 0.250272
vt 0.439521 0.342831
vt 0.318646 0.250272
vt 0.318646 0.342831
vt 0.342822 0.342831
vt 0.342821 0.250272
vt 0.391171 0.342831
vt 0.391171 0.250272
vt 0.885065 0.218877
vt 0.310465 0.337377
vt 0.077624 0.084976
vt 0.147790 0.077263
vt 0.351003 0.255726
vt 0.112707 0.084976
vt 0.399352 0.255726
vt 0.182873 0.077263
vt 0.965770 0.218877
vt 0.922875 0.153429
vt 0.210144 0.027241
vt 0.042541 0.077263
vt 0.104895 0.019528
vt 0.034729 0.019528
vt 0.069812 0.027241
vt 0.358816 0.337377
vt 0.993041 0.153428
vt 0.817626 0.161142
vt 0.407166 0.337377
vt 0.139977 0.019528
vt 0.825438 0.218877
vt 0.447702 0.255726
vt 0.007458 0.077263
vt 0.175061 0.027241
vt 0.326827 0.255726
vt 0.366996 0.342831
vt 0.366997 0.250272
vn 0.0000 0.0000 -1.0000
vn 0.0000 0.0000 1.0000
vn 0.0000 0.7071 0.7071
vn 0.0000 1.0000 0.0000
vn 0.7071 0.7071 0.0000
vn -0.7071 0.0000 0.7071
vn 1.0000 0.0000 0.0000
vn 0.0000 0.7071 -0.7071
vn 0.7071 0.0000 0.7071
vn 0.0000 -1.0000 0.0000
vn -1.0000 0.0000 0.0000
vn -0.7071 0.7071 0.0000
vn -0.7071 0.0000 -0.7071
vn 0.7071 0.0000 -0.7071
vn 0.0000 -0.7071 0.7071
vn -0.7071 -0.7071 0.0000
vn 0.0000 -0.7071 -0.7071
vn 0.7071 -0.7071 0.0000
g Crate_2ft_Crate_2_Crates
usemtl Crates
s off
f 34/1/1 87/2/1 1/3/1
f 19/4/2 74/5/2 22/6/2
f 8/7/3 61/8/3 5/9/3
f 1/10/4 75/11/4 33/12/4
f 21/13/2 73/14/2 20/15/2
f 12/16/5 59/17/5 14/18/5
f 44/19/6 85/20/6 43/21/6
f 20/22/7 65/23/7 17/24/7
f 2/25/8 57/26/8 3/27/8
f 42/28/9 83/29/9 41/30/9
f 11/31/10 64/32/10 16/33/10
f 43/34/1 91/35/1 18/36/1
f 27/37/11 34/1/11 26/38/11
f 2/39/11 27/40/11 28/41/11
f 25/42/11 3/43/11 28/44/11
f 30/45/7 38/46/7 29/47/7
f 37/48/7 31/49/7 29/50/7
f 8/51/7 30/52/7 32/53/7
f 31/54/7 5/55/7 32/56/7
f 26/38/2 10/57/2 27/37/2
f 28/44/1 36/58/1 25/42/1
f 35/59/1 29/60/1 25/61/1
f 12/62/1 28/63/1 30/64/1
f 29/47/1 14/65/1 30/45/1
f 32/56/2 40/66/2 31/54/2
f 39/67/2 26/68/2 31/69/2
f 16/33/2 32/70/2 27/71/2
f 17/24/10 26/72/10 25/73/10
f 44/74/4 28/41/4 27/40/4
f 29/60/10 21/13/10 25/61/10
f 28/63/4 19/4/4 30/64/4
f 42/75/10 29/50/10 31/49/10
f 23/76/4 32/53/4 30/52/4
f 26/68/10 41/77/10 31/69/10
f 32/70/4 43/34/4 27/71/4
f 95/78/11 99/79/11 97/80/11
f 12/16/1 14/18/1 36/81/1
f 8/7/7 5/9/7 37/82/7
f 16/83/2 10/84/2 40/85/2
f 17/86/10 21/87/10 42/28/10
f 23/88/4 19/89/4 44/19/4
f 33/12/11 25/73/11 26/72/11
f 94/90/2 95/78/2 97/80/2
f 96/91/7 94/90/7 100/92/7
f 95/78/11 93/93/11 99/79/11
f 93/93/4 94/94/4 96/95/4
f 94/90/2 97/80/2 100/92/2
f 93/93/4 95/78/4 94/94/4
f 98/96/10 100/97/10 97/80/10
f 93/93/1 96/98/1 98/99/1
f 98/96/10 97/80/10 99/79/10
f 96/91/7 100/92/7 98/100/7
f 93/93/1 98/99/1 99/79/1
f 16/83/12 63/101/12 10/84/12
f 22/102/11 67/103/11 23/76/11
f 38/46/2 88/104/2 7/105/2
f 17/86/13 66/106/13 21/87/13
f 7/107/4 79/108/4 37/48/4
f 23/88/14 68/109/14 19/89/14
f 36/58/7 89/110/7 9/111/7
f 4/112/10 58/113/10 2/39/10
f 9/114/4 77/115/4 35/59/4
f 3/43/2 69/116/2 4/117/2
f 40/66/11 90/118/11 15/119/11
f 6/120/10 62/121/10 8/51/10
f 15/122/4 81/123/4 39/67/4
f 5/55/1 70/124/1 6/125/1
f 33/126/15 76/127/15 34/128/15
f 18/129/7 86/130/7 44/74/7
f 10/57/7 71/131/7 11/132/7
f 35/133/16 78/134/16 36/81/16
f 24/135/11 84/136/11 42/75/11
f 13/137/10 60/138/10 12/62/10
f 37/82/17 80/139/17 38/140/17
f 41/77/1 92/141/1 24/142/1
f 14/65/11 72/143/11 13/144/11
f 39/145/18 82/146/18 40/85/18
f 2/25/11 3/27/11 33/126/11
f 34/1/1 76/147/1 87/2/1
f 19/4/2 68/148/2 74/5/2
f 8/7/3 62/149/3 61/8/3
f 1/10/4 87/150/4 75/11/4
f 21/13/2 66/151/2 73/14/2
f 12/16/5 60/152/5 59/17/5
f 44/19/6 86/153/6 85/20/6
f 20/22/7 73/154/7 65/23/7
f 2/25/8 58/155/8 57/26/8
f 42/28/9 84/156/9 83/29/9
f 11/31/10 71/157/10 64/32/10
f 43/34/1 85/158/1 91/35/1
f 46/159/11 34/1/11 27/37/11
f 34/1/11 1/3/11 26/38/11
f 28/41/11 4/112/11 2/39/11
f 2/39/11 46/160/11 27/40/11
f 45/161/11 3/43/11 25/42/11
f 3/43/11 4/117/11 28/44/11
f 50/162/7 38/46/7 30/45/7
f 38/46/7 7/105/7 29/47/7
f 29/50/7 7/107/7 37/48/7
f 37/48/7 49/163/7 31/49/7
f 32/53/7 6/120/7 8/51/7
f 8/51/7 50/164/7 30/52/7
f 49/165/7 5/55/7 31/54/7
f 5/55/7 6/125/7 32/56/7
f 51/166/2 10/57/2 26/38/2
f 10/57/2 11/132/2 27/37/2
f 48/167/1 36/58/1 28/44/1
f 36/58/1 9/111/1 25/42/1
f 25/61/1 9/114/1 35/59/1
f 35/59/1 47/168/1 29/60/1
f 30/64/1 13/137/1 12/62/1
f 12/62/1 48/169/1 28/63/1
f 47/170/1 14/65/1 29/47/1
f 14/65/1 13/144/1 30/45/1
f 52/171/2 40/66/2 32/56/2
f 40/66/2 15/119/2 31/54/2
f 31/69/2 15/122/2 39/67/2
f 39/67/2 51/172/2 26/68/2
f 27/71/2 11/31/2 16/33/2
f 16/33/2 52/173/2 32/70/2
f 25/73/10 20/22/10 17/24/10
f 17/24/10 53/174/10 26/72/10
f 27/40/4 18/129/4 44/74/4
f 44/74/4 56/175/4 28/41/4
f 54/176/10 21/13/10 29/60/10
f 21/13/10 20/15/10 25/61/10
f 56/177/4 19/4/4 28/63/4
f 19/4/4 22/6/4 30/64/4
f 31/49/10 24/135/10 42/75/10
f 42/75/10 54/178/10 29/50/10
f 30/52/4 22/102/4 23/76/4
f 23/76/4 55/179/4 32/53/4
f 53/180/10 41/77/10 26/68/10
f 41/77/10 24/142/10 31/69/10
f 55/181/4 43/34/4 32/70/4
f 43/34/4 18/36/4 27/71/4
f 47/182/1 35/133/1 14/18/1
f 35/133/1 36/81/1 14/18/1
f 36/81/1 48/183/1 12/16/1
f 49/184/7 37/82/7 5/9/7
f 37/82/7 38/140/7 8/7/7
f 38/140/7 50/185/7 8/7/7
f 51/186/2 39/145/2 10/84/2
f 39/145/2 40/85/2 10/84/2
f 40/85/2 52/187/2 16/83/2
f 54/188/10 42/28/10 21/87/10
f 42/28/10 41/30/10 17/86/10
f 41/30/10 53/189/10 17/86/10
f 56/190/4 44/19/4 19/89/4
f 44/19/4 43/21/4 23/88/4
f 43/21/4 55/191/4 23/88/4
f 26/72/11 1/10/11 33/12/11
f 33/12/11 45/192/11 25/73/11
f 16/83/12 64/193/12 63/101/12
f 22/102/11 74/194/11 67/103/11
f 38/46/2 80/195/2 88/104/2
f 17/86/13 65/196/13 66/106/13
f 7/107/4 88/197/4 79/108/4
f 23/88/14 67/198/14 68/109/14
f 36/58/7 78/199/7 89/110/7
f 4/112/10 69/200/10 58/113/10
f 9/114/4 89/201/4 77/115/4
f 3/43/2 57/202/2 69/116/2
f 40/66/11 82/203/11 90/118/11
f 6/120/10 70/204/10 62/121/10
f 15/122/4 90/205/4 81/123/4
f 5/55/1 61/206/1 70/124/1
f 33/126/15 75/207/15 76/127/15
f 18/129/7 91/208/7 86/130/7
f 10/57/7 63/209/7 71/131/7
f 35/133/16 77/210/16 78/134/16
f 24/135/11 92/211/11 84/136/11
f 13/137/10 72/212/10 60/138/10
f 37/82/17 79/213/17 80/139/17
f 41/77/1 83/214/1 92/141/1
f 14/65/11 59/215/11 72/143/11
f 39/145/18 81/216/18 82/146/18
f 45/217/11 33/126/11 3/27/11
f 33/126/11 34/128/11 2/25/11
f 34/128/11 46/218/11 2/25/11
