# Blender v2.93.6 OBJ File: 'Resonance Levels.blend'
# www.blender.org
mtllib Crate 3ft.mtl
o Crate_3ft_Cube.006
v 3.048000 0.076200 4.953000
v 3.048000 0.838200 4.899118
v 3.048000 0.130082 4.191000
v 3.048000 0.838200 4.191000
v 3.962400 0.130082 4.953000
v 3.962400 0.838200 4.953000
v 3.962400 0.076200 4.191000
v 3.962400 0.838200 4.244882
v 3.124200 0.076200 4.114800
v 3.124200 0.130082 5.029200
v 3.124200 0.838200 5.029200
v 3.178082 0.838200 4.114800
v 3.886200 0.838200 4.114800
v 3.886200 0.130082 4.114800
v 3.886200 0.076200 5.029200
v 3.832318 0.838200 5.029200
v 3.124200 0.000000 4.899118
v 3.124200 0.914400 4.953000
v 3.178082 0.914400 4.191000
v 3.124200 0.000000 4.191000
v 3.832318 0.000000 4.191000
v 3.886200 0.914400 4.191000
v 3.886200 0.914400 4.899118
v 3.886200 0.000000 4.953000
v 3.048000 0.000000 4.114800
v 3.048000 0.000000 5.029200
v 3.048000 0.914400 5.029200
v 3.048000 0.914400 4.114800
v 3.962400 0.000000 4.114800
v 3.962400 0.914400 4.114800
v 3.962400 0.000000 5.029200
v 3.962400 0.914400 5.029200
v 3.048000 0.076200 4.244882
v 3.048000 0.784318 4.953000
v 3.832318 0.076200 4.114800
v 3.124200 0.784318 4.114800
v 3.962400 0.076200 4.899118
v 3.962400 0.784318 4.191000
v 3.178082 0.076200 5.029200
v 3.886200 0.784318 5.029200
v 3.178082 0.000000 4.953000
v 3.886200 0.000000 4.244882
v 3.832318 0.914400 4.953000
v 3.124200 0.914400 4.244882
v 3.048000 0.076200 4.191000
v 3.048000 0.838200 4.953000
v 3.886200 0.076200 4.114800
v 3.124200 0.838200 4.114800
v 3.962400 0.076200 4.953000
v 3.962400 0.838200 4.191000
v 3.124200 0.076200 5.029200
v 3.886200 0.838200 5.029200
v 3.124200 0.000000 4.953000
v 3.886200 0.000000 4.191000
v 3.886200 0.914400 4.953000
v 3.124200 0.914400 4.191000
v 3.067050 0.130082 4.191000
v 3.067050 0.838200 4.899118
v 3.886200 0.130082 4.133850
v 3.178082 0.838200 4.133850
v 3.943350 0.130082 4.953000
v 3.943350 0.838200 4.244882
v 3.124200 0.130082 5.010150
v 3.832318 0.838200 5.010150
v 3.124200 0.019050 4.899118
v 3.832318 0.019050 4.191000
v 3.886200 0.895350 4.899118
v 3.178082 0.895350 4.191000
v 3.067050 0.838200 4.191000
v 3.943350 0.838200 4.953000
v 3.124200 0.838200 5.010150
v 3.886200 0.838200 4.133850
v 3.124200 0.019050 4.191000
v 3.886200 0.895350 4.191000
v 3.067050 0.076200 4.244882
v 3.067050 0.784318 4.953000
v 3.832318 0.076200 4.133850
v 3.124200 0.784318 4.133850
v 3.943350 0.076200 4.899118
v 3.943350 0.784318 4.191000
v 3.178082 0.076200 5.010150
v 3.886200 0.784318 5.010150
v 3.178082 0.019050 4.953000
v 3.886200 0.019050 4.244882
v 3.832318 0.895350 4.953000
v 3.124200 0.895350 4.244882
v 3.067050 0.076200 4.953000
v 3.943350 0.076200 4.191000
v 3.124200 0.076200 4.133850
v 3.886200 0.076200 5.010150
v 3.124200 0.895350 4.953000
v 3.886200 0.019050 4.953000
v 3.067050 0.895350 4.133850
v 3.943350 0.895350 5.010150
v 3.067050 0.895350 5.010150
v 3.943350 0.895350 4.133850
v 3.067050 0.019050 5.010150
v 3.943350 0.019050 4.133850
v 3.067050 0.019050 4.133850
v 3.943350 0.019050 5.010150
vt 0.418471 0.220798
vt 0.418471 0.137275
vt 0.420719 0.137275
vt 0.420718 0.220798
vt 0.448754 0.220798
vt 0.448755 0.137276
vt 0.451001 0.137275
vt 0.451001 0.220798
vt 0.709228 0.254766
vt 0.709228 0.372885
vt 0.706981 0.372886
vt 0.706981 0.254766
vt 0.479036 0.214442
vt 0.479037 0.130920
vt 0.481283 0.130920
vt 0.481283 0.214442
vt 0.491343 0.130920
vt 0.491342 0.214442
vt 0.489096 0.214442
vt 0.489096 0.130920
vt 0.654333 0.372888
vt 0.654333 0.254766
vt 0.656580 0.254766
vt 0.656580 0.372888
vt 0.687934 0.254766
vt 0.687934 0.372885
vt 0.685687 0.372885
vt 0.685687 0.254766
vt 0.461061 0.137275
vt 0.461061 0.220798
vt 0.458815 0.220798
vt 0.458814 0.137275
vt 0.675627 0.372885
vt 0.675627 0.254766
vt 0.677874 0.254766
vt 0.677874 0.372885
vt 0.624051 0.254766
vt 0.624051 0.372885
vt 0.621804 0.372885
vt 0.621804 0.254766
vt 0.539600 0.214442
vt 0.539601 0.130920
vt 0.541847 0.130920
vt 0.541847 0.214442
vt 0.521625 0.130920
vt 0.521625 0.214443
vt 0.519378 0.214442
vt 0.519378 0.130920
vt 0.409483 0.229786
vt 0.409484 0.121932
vt 0.418471 0.130920
vt 0.551907 0.220798
vt 0.551907 0.137275
vt 0.551907 0.130920
vt 0.560895 0.121932
vt 0.560895 0.229786
vt 0.600000 0.023962
vt 0.600000 0.107485
vt 0.591012 0.116473
vt 0.591012 0.008619
vt 0.600000 0.017607
vt 0.551742 0.101130
vt 0.551742 0.017607
vt 0.560730 0.008619
vt 0.560731 0.116473
vt 0.551742 0.107485
vt 0.521460 0.107485
vt 0.521461 0.023963
vt 0.521461 0.017607
vt 0.530448 0.008620
vt 0.530448 0.116473
vt 0.509154 0.017607
vt 0.509154 0.101130
vt 0.509154 0.107485
vt 0.500166 0.116473
vt 0.500166 0.008619
vt 0.460896 0.101130
vt 0.460896 0.017607
vt 0.469884 0.008619
vt 0.469884 0.116473
vt 0.460896 0.107485
vt 0.400496 0.214443
vt 0.400497 0.130920
vt 0.400496 0.220798
vt 0.582025 0.101130
vt 0.582024 0.017607
vt 0.582024 0.107485
vt 0.509319 0.130920
vt 0.509318 0.214443
vt 0.509319 0.220798
vt 0.500331 0.229786
vt 0.500330 0.121932
vt 0.430779 0.220798
vt 0.430779 0.137275
vt 0.430779 0.130920
vt 0.439767 0.121932
vt 0.439766 0.229785
vt 0.569718 0.023963
vt 0.569718 0.107485
vt 0.569718 0.017607
vt 0.478872 0.023963
vt 0.478872 0.107485
vt 0.478872 0.017607
vt 0.430614 0.107485
vt 0.430614 0.023963
vt 0.430614 0.017607
vt 0.439602 0.008619
vt 0.439602 0.116473
vt 0.539600 0.220798
vt 0.530613 0.229786
vt 0.530612 0.121932
vt 0.461060 0.130920
vt 0.470049 0.121932
vt 0.470048 0.229785
vt 0.569883 0.130920
vt 0.569882 0.214442
vt 0.569882 0.220798
vt 0.491342 0.220798
vt 0.448755 0.130920
vt 0.539436 0.017607
vt 0.539436 0.101130
vt 0.539436 0.107485
vt 0.491178 0.107485
vt 0.491178 0.023963
vt 0.491178 0.017607
vt 0.448589 0.023962
vt 0.448589 0.107485
vt 0.448589 0.017607
vt 0.521624 0.220798
vt 0.789375 0.871152
vt 0.686015 0.767793
vt 0.789375 0.767793
vt 0.645345 0.372888
vt 0.645345 0.254766
vt 0.649839 0.250272
vt 0.649840 0.377382
vt 0.718216 0.254766
vt 0.718216 0.372886
vt 0.713722 0.377379
vt 0.713722 0.250272
vt 0.611744 0.254766
vt 0.611745 0.372888
vt 0.607251 0.377382
vt 0.602757 0.372888
vt 0.602757 0.254766
vt 0.607251 0.250272
vt 0.628545 0.250272
vt 0.633039 0.254766
vt 0.633039 0.372885
vt 0.628545 0.377380
vt 0.692428 0.250272
vt 0.696922 0.254766
vt 0.696922 0.372885
vt 0.692428 0.377379
vt 0.479037 0.220798
vt 0.892734 0.871152
vt 0.996094 0.871152
vt 0.892734 0.767793
vt 0.686015 0.871152
vt 0.789375 0.974512
vt 0.686015 0.974512
vt 0.686015 0.664434
vt 0.789375 0.664434
vt 0.582656 0.871152
vt 0.582656 0.767793
vt 0.996094 0.767793
vt 0.600510 0.372888
vt 0.600510 0.254766
vt 0.488931 0.107485
vt 0.488931 0.023963
vt 0.549496 0.101130
vt 0.549496 0.017607
vt 0.635286 0.254766
vt 0.635286 0.372886
vt 0.519214 0.107485
vt 0.519214 0.023963
vt 0.699169 0.254766
vt 0.699168 0.372885
vt 0.579778 0.101130
vt 0.579778 0.017607
vt 0.549660 0.220798
vt 0.549660 0.137275
vt 0.511565 0.130920
vt 0.511565 0.214442
vt 0.602247 0.023962
vt 0.602247 0.107485
vt 0.481119 0.023963
vt 0.481119 0.107485
vt 0.511401 0.017607
vt 0.511401 0.101130
vt 0.428366 0.107485
vt 0.428367 0.023963
vt 0.458649 0.101130
vt 0.458649 0.017607
vt 0.666639 0.254766
vt 0.666640 0.372886
vt 0.664393 0.372885
vt 0.664392 0.254766
vt 0.572130 0.130920
vt 0.572130 0.214443
vt 0.398249 0.214443
vt 0.398248 0.130920
vt 0.643098 0.372888
vt 0.643099 0.254766
vt 0.541683 0.017607
vt 0.541683 0.101130
vt 0.428531 0.220798
vt 0.428532 0.137275
vt 0.720463 0.254766
vt 0.720463 0.372885
vt 0.450836 0.023962
vt 0.450836 0.107485
vt 0.571965 0.023963
vt 0.571965 0.107485
vt 0.613991 0.254766
vt 0.613992 0.372888
vt 0.671133 0.250272
vt 0.671134 0.377379
vn 0.0000 0.0000 -1.0000
vn 0.0000 0.0000 1.0000
vn 0.0000 0.7071 0.7071
vn 0.0000 1.0000 0.0000
vn 0.7071 0.7071 0.0000
vn -0.7071 0.0000 0.7071
vn 1.0000 0.0000 0.0000
vn 0.0000 0.7071 -0.7071
vn 0.7071 0.0000 0.7071
vn 0.0000 -1.0000 0.0000
vn -1.0000 0.0000 0.0000
vn -0.7071 0.7071 0.0000
vn -0.7071 0.0000 -0.7071
vn 0.7071 0.0000 -0.7071
vn 0.0000 -0.7071 0.7071
vn -0.7071 -0.7071 0.0000
vn 0.0000 -0.7071 -0.7071
vn 0.7071 -0.7071 0.0000
g Crate_3ft_Cube.006_Crates
usemtl Crates
s off
f 1/1/1 34/2/1 76/3/1 87/4/1
f 22/5/2 19/6/2 68/7/2 74/8/2
f 5/9/3 8/10/3 62/11/3 61/12/3
f 33/13/4 1/14/4 87/15/4 75/16/4
f 20/17/2 21/18/2 66/19/2 73/20/2
f 14/21/5 12/22/5 60/23/5 59/24/5
f 43/25/6 44/26/6 86/27/6 85/28/6
f 17/29/7 20/30/7 73/31/7 65/32/7
f 3/33/8 2/34/8 58/35/8 57/36/8
f 41/37/9 42/38/9 84/39/9 83/40/9
f 16/41/10 11/42/10 71/43/10 64/44/10
f 18/45/1 43/46/1 85/47/1 91/48/1
f 34/2/11 1/1/11 26/49/11 27/50/11 46/51/11
f 4/52/11 2/53/11 46/54/11 27/55/11 28/56/11
f 3/57/11 4/58/11 28/59/11 25/60/11 45/61/11
f 38/62/7 7/63/7 29/64/7 30/65/7 50/66/7
f 7/67/7 37/68/7 49/69/7 31/70/7 29/71/7
f 6/72/7 8/73/7 50/74/7 30/75/7 32/76/7
f 5/77/7 6/78/7 32/79/7 31/80/7 49/81/7
f 10/82/2 11/83/2 27/50/2 26/49/2 51/84/2
f 36/85/1 9/86/1 25/60/1 28/59/1 48/87/1
f 9/88/1 35/89/1 47/90/1 29/91/1 25/92/1
f 13/93/1 12/94/1 48/95/1 28/96/1 30/97/1
f 14/98/1 13/99/1 30/65/1 29/64/1 47/100/1
f 40/101/2 15/102/2 31/80/2 32/79/2 52/103/2
f 15/104/2 39/105/2 51/106/2 26/107/2 31/108/2
f 11/42/2 16/41/2 52/109/2 32/110/2 27/111/2
f 20/30/10 17/29/10 53/112/10 26/113/10 25/114/10
f 18/115/4 44/116/4 56/117/4 28/56/4 27/55/4
f 21/18/10 20/17/10 25/92/10 29/91/10 54/118/10
f 19/6/4 22/5/4 30/97/4 28/96/4 56/119/4
f 24/120/10 42/121/10 54/122/10 29/71/10 31/70/10
f 22/123/4 23/124/4 55/125/4 32/76/4 30/75/4
f 41/126/10 24/127/10 31/108/10 26/107/10 53/128/10
f 43/46/4 18/45/4 27/111/4 32/110/4 55/129/4
f 95/130/11 99/131/11 97/132/11
f 35/133/1 36/134/1 48/135/1 12/22/1 14/21/1 47/136/1
f 37/137/7 38/138/7 50/139/7 8/10/7 5/9/7 49/140/7
f 39/141/2 40/142/2 52/143/2 16/144/2 10/145/2 51/146/2
f 42/38/10 41/37/10 53/147/10 17/148/10 21/149/10 54/150/10
f 44/26/4 43/25/4 55/151/4 23/152/4 19/153/4 56/154/4
f 1/14/11 33/13/11 45/155/11 25/114/11 26/113/11
f 94/156/2 95/130/2 97/132/2
f 96/157/7 94/156/7 100/158/7
f 95/130/11 93/159/11 99/131/11
f 93/159/4 94/160/4 96/161/4
f 94/156/2 97/132/2 100/158/2
f 93/159/4 95/130/4 94/160/4
f 98/162/10 100/163/10 97/132/10
f 93/159/1 96/164/1 98/165/1
f 98/162/10 97/132/10 99/131/10
f 96/157/7 100/158/7 98/166/7
f 93/159/1 98/165/1 99/131/1
f 10/145/12 16/144/12 64/167/12 63/168/12
f 23/124/11 22/123/11 74/169/11 67/170/11
f 7/63/2 38/62/2 80/171/2 88/172/2
f 21/149/13 17/148/13 65/173/13 66/174/13
f 37/68/4 7/67/4 88/175/4 79/176/4
f 19/153/14 23/152/14 67/177/14 68/178/14
f 9/86/7 36/85/7 78/179/7 89/180/7
f 2/53/10 4/52/10 69/181/10 58/182/10
f 35/89/4 9/88/4 89/183/4 77/184/4
f 4/58/2 3/57/2 57/185/2 69/186/2
f 15/102/11 40/101/11 82/187/11 90/188/11
f 8/73/10 6/72/10 70/189/10 62/190/10
f 39/105/4 15/104/4 90/191/4 81/192/4
f 6/78/1 5/77/1 61/193/1 70/194/1
f 34/195/15 33/196/15 75/197/15 76/198/15
f 44/116/7 18/115/7 91/199/7 86/200/7
f 11/83/7 10/82/7 63/201/7 71/202/7
f 36/134/16 35/133/16 77/203/16 78/204/16
f 42/121/11 24/120/11 92/205/11 84/206/11
f 12/94/10 13/93/10 72/207/10 60/208/10
f 38/138/17 37/137/17 79/209/17 80/210/17
f 24/127/1 41/126/1 83/211/1 92/212/1
f 13/99/11 14/98/11 59/213/11 72/214/11
f 40/142/18 39/141/18 81/215/18 82/216/18
f 33/196/11 34/195/11 46/217/11 2/34/11 3/33/11 45/218/11
