# Blender v2.93.6 OBJ File: 'Resonance Levels.blend'
# www.blender.org
mtllib Interactable Valve (extra).mtl
v 0.060777 1.127584 0.000713
v 0.060782 1.006022 0.000713
v -0.060786 1.127579 0.000713
v -0.060781 1.006017 0.000713
v 0.022242 1.149830 0.000713
v 0.022249 0.983773 0.000713
v -0.022246 0.983771 0.000713
v -0.022253 1.149828 0.000713
v 0.083028 1.044556 0.000713
v -0.083030 1.044549 0.000713
v -0.000002 1.066800 -0.058459
v -0.083031 1.089044 0.000713
v 0.083026 1.089051 0.000713
v 0.054003 1.120832 -0.058459
v 0.060777 1.127584 -0.048842
v 0.054029 1.012795 -0.058459
v 0.060782 1.006022 -0.048842
v -0.054033 1.120805 -0.058459
v -0.060786 1.127579 -0.048842
v -0.054007 1.012769 -0.058459
v -0.060781 1.006017 -0.048842
v 0.022249 0.983773 -0.048842
v 0.019788 0.993015 -0.058459
v 0.019752 1.140595 -0.058459
v 0.022242 1.149830 -0.048842
v -0.022253 1.149828 -0.048842
v -0.019792 1.140586 -0.058459
v -0.022246 0.983771 -0.048842
v -0.019756 0.993005 -0.058459
v -0.083030 1.044549 -0.048842
v -0.073787 1.047010 -0.058459
v 0.073793 1.047046 -0.058459
v 0.083028 1.044556 -0.048842
v -0.073797 1.086554 -0.058459
v -0.083031 1.089044 -0.048842
v 0.083026 1.089051 -0.048842
v 0.073784 1.086590 -0.058459
v 0.089534 1.066800 -0.113586
v 0.089534 1.066800 -0.097526
v 0.095616 1.041180 -0.113586
v 0.095616 1.041180 -0.097526
v 0.085727 1.017305 -0.113586
v 0.085727 1.017305 -0.097526
v 0.063310 1.003489 -0.113586
v 0.063310 1.003489 -0.097526
v 0.049494 0.981072 -0.113586
v 0.049494 0.981072 -0.097526
v 0.025620 0.971183 -0.113586
v 0.025620 0.971183 -0.097526
v -0.000001 0.977265 -0.113586
v -0.000001 0.977265 -0.097526
v -0.025621 0.971183 -0.113586
v -0.025621 0.971183 -0.097526
v -0.049496 0.981072 -0.113586
v -0.049496 0.981072 -0.097526
v -0.063312 1.003489 -0.113586
v -0.063312 1.003489 -0.097526
v -0.085729 1.017305 -0.113586
v -0.085729 1.017305 -0.097526
v -0.095618 1.041180 -0.113586
v -0.095618 1.041180 -0.097526
v -0.089536 1.066800 -0.113586
v -0.089536 1.066800 -0.097526
v -0.095618 1.092421 -0.113586
v -0.095618 1.092421 -0.097526
v -0.085729 1.116295 -0.113585
v -0.085729 1.116295 -0.097526
v -0.063312 1.130111 -0.113585
v -0.063312 1.130111 -0.097526
v -0.049496 1.152528 -0.113585
v -0.049496 1.152528 -0.097526
v -0.025621 1.162418 -0.113586
v -0.025621 1.162418 -0.097526
v -0.000001 1.156335 -0.113586
v -0.000001 1.156335 -0.097526
v 0.025620 1.162418 -0.113586
v 0.025620 1.162418 -0.097526
v 0.049494 1.152528 -0.113586
v 0.049494 1.152528 -0.097526
v 0.063310 1.130111 -0.113586
v 0.063310 1.130111 -0.097526
v 0.085727 1.116295 -0.113586
v 0.085727 1.116295 -0.097526
v 0.095616 1.092421 -0.113586
v 0.095616 1.092421 -0.097526
v 0.124058 1.066800 -0.113586
v 0.132485 1.031301 -0.113586
v 0.132485 1.031301 -0.097526
v 0.124058 1.066800 -0.097526
v 0.118783 0.998220 -0.113586
v 0.118783 0.998220 -0.097526
v 0.087722 0.979077 -0.113586
v 0.087722 0.979077 -0.097526
v 0.068579 0.948016 -0.113586
v 0.068579 0.948016 -0.097526
v 0.035499 0.934314 -0.113586
v 0.035499 0.934314 -0.097526
v -0.000001 0.942741 -0.113586
v -0.000001 0.942741 -0.097526
v -0.035501 0.934314 -0.113586
v -0.035501 0.934314 -0.097526
v -0.068581 0.948016 -0.113586
v -0.068581 0.948016 -0.097526
v -0.087724 0.979077 -0.113586
v -0.087724 0.979077 -0.097526
v -0.118785 0.998220 -0.113586
v -0.118785 0.998220 -0.097526
v -0.132487 1.031301 -0.113586
v -0.132487 1.031301 -0.097526
v -0.124060 1.066800 -0.113586
v -0.124060 1.066800 -0.097526
v -0.132487 1.102300 -0.113586
v -0.132487 1.102300 -0.097526
v -0.118785 1.135380 -0.113585
v -0.118785 1.135380 -0.097526
v -0.087724 1.154523 -0.113585
v -0.087724 1.154523 -0.097526
v -0.068581 1.185584 -0.113585
v -0.068581 1.185584 -0.097526
v -0.035501 1.199287 -0.113586
v -0.035501 1.199287 -0.097526
v -0.000001 1.190859 -0.113586
v -0.000001 1.190859 -0.097526
v 0.035499 1.199287 -0.113586
v 0.035499 1.199287 -0.097526
v 0.068579 1.185584 -0.113586
v 0.068579 1.185584 -0.097526
v 0.087722 1.154523 -0.113586
v 0.087722 1.154523 -0.097526
v 0.118783 1.135380 -0.113586
v 0.118783 1.135380 -0.097526
v 0.132485 1.102300 -0.113586
v 0.132485 1.102300 -0.097526
v -0.012701 1.054100 -0.117504
v -0.012701 1.079500 -0.117504
v 0.012699 1.054100 -0.117504
v 0.012699 1.079500 -0.117504
v -0.012701 1.054100 -0.052380
v -0.012701 1.079500 -0.052380
v 0.012699 1.054100 -0.052380
v 0.012699 1.079500 -0.052380
v -0.009526 1.057275 -0.110735
v -0.009526 1.076325 -0.110735
v 0.009524 1.057275 -0.110735
v 0.009524 1.076325 -0.110735
v -0.009526 1.057275 -0.100384
v -0.009526 1.076325 -0.100384
v 0.009524 1.057275 -0.100384
v 0.009524 1.076325 -0.100384
v 0.009524 0.973394 -0.110735
v 0.009524 0.973394 -0.100384
v -0.009526 0.973394 -0.100384
v -0.009526 0.973394 -0.110735
v 0.009524 1.160206 -0.100384
v 0.009524 1.160206 -0.110735
v -0.009526 1.160206 -0.110735
v -0.009526 1.160206 -0.100384
v 0.093405 1.057275 -0.110735
v 0.093405 1.076325 -0.110735
v 0.093405 1.076325 -0.100384
v 0.093405 1.057275 -0.100384
v -0.093407 1.057275 -0.100384
v -0.093407 1.076325 -0.100384
v -0.093407 1.076325 -0.110735
v -0.093407 1.057275 -0.110735
vt 0.506562 0.088099
vt 0.522570 0.012268
vt 0.551404 0.062210
vt 0.681059 0.188855
vt 0.738727 0.137077
vt 0.738727 0.188855
vt 0.420617 0.188845
vt 0.478285 0.137067
vt 0.478285 0.188845
vt 0.681625 0.038163
vt 0.607950 0.062215
vt 0.636784 0.012274
vt 0.553788 0.061574
vt 0.605567 0.003906
vt 0.605567 0.061574
vt 0.680423 0.134693
vt 0.704476 0.061018
vt 0.730365 0.105859
vt 0.454868 0.264904
vt 0.478921 0.191229
vt 0.504810 0.236071
vt 0.704470 0.264914
vt 0.680418 0.191238
vt 0.730359 0.220072
vt 0.636775 0.313654
vt 0.652782 0.237823
vt 0.681616 0.287765
vt 0.478926 0.134684
vt 0.454874 0.061008
vt 0.504815 0.089842
vt 0.553778 0.322016
vt 0.605556 0.264348
vt 0.605556 0.322016
vt 0.551395 0.263707
vt 0.477719 0.287759
vt 0.506553 0.237818
vt 0.143348 0.878284
vt 0.113790 0.848726
vt 0.143348 0.848726
vt 0.202463 0.848726
vt 0.232021 0.772942
vt 0.232021 0.848726
vt 0.172906 0.772942
vt 0.143348 0.772942
vt 0.113790 0.772942
vt 0.202464 0.772942
vt 0.007862 0.820703
vt 0.105473 0.808657
vt 0.105473 0.820703
vt 0.007862 0.808657
vt 0.105473 0.786488
vt 0.142482 0.949833
vt 0.044871 0.961879
vt 0.044871 0.949833
vt 0.142482 0.927665
vt 0.044871 0.927665
vt 0.142482 0.984048
vt 0.044871 0.996094
vt 0.044871 0.984048
vt 0.142482 0.961879
vt 0.008025 0.861771
vt 0.105637 0.849725
vt 0.105637 0.861771
vt 0.008025 0.883940
vt 0.105637 0.883940
vt 0.008025 0.895986
vt 0.105637 0.895986
vt 0.008025 0.918154
vt 0.105637 0.918154
vt 0.007862 0.842871
vt 0.105473 0.842871
vt 0.007862 0.786488
vt 0.105473 0.774442
vt 0.153632 0.855942
vt 0.175800 0.953554
vt 0.153632 0.953554
vt 0.210014 0.855942
vt 0.222060 0.953554
vt 0.210014 0.953554
vt 0.187846 0.855942
vt 0.187846 0.953554
vt 0.175800 0.855942
vt 0.477728 0.038158
vt 0.681059 0.137077
vt 0.420617 0.137067
vt 0.652791 0.088104
vt 0.553788 0.003906
vt 0.654534 0.089851
vt 0.428979 0.220063
vt 0.654529 0.236080
vt 0.607940 0.263712
vt 0.428985 0.105850
vt 0.553778 0.264348
vt 0.522561 0.313648
vt 0.113790 0.878284
vt 0.172906 0.848726
vt 0.142482 0.996094
vt 0.008025 0.849725
vt 0.007862 0.774442
vt 0.222060 0.855942
vt 0.579672 0.162961
vt 0.493800 0.139964
vt 0.516803 0.100109
vt 0.602693 0.248827
vt 0.516820 0.225830
vt 0.665538 0.139941
vt 0.642524 0.100092
vt 0.602669 0.077089
vt 0.642542 0.225813
vt 0.665545 0.185958
vt 0.493806 0.185982
vt 0.556652 0.077095
vt 0.556676 0.248834
vt 0.199966 0.048655
vt 0.159497 0.016119
vt 0.205395 0.028453
vt 0.159795 0.744915
vt 0.107930 0.750040
vt 0.114702 0.729816
vt 0.110139 0.052822
vt 0.066391 0.079441
vt 0.093224 0.041011
vt 0.074943 0.708678
vt 0.045125 0.664795
vt 0.086284 0.690561
vt 0.042512 0.116532
vt 0.004339 0.152138
vt 0.022823 0.108241
vt 0.005221 0.616761
vt 0.035784 0.573663
vt 0.026072 0.621036
vt 0.033884 0.207935
vt 0.003906 0.251031
vt 0.013128 0.203876
vt 0.006734 0.517181
vt 0.045452 0.481827
vt 0.026419 0.525717
vt 0.043917 0.298406
vt 0.073882 0.341630
vt 0.032843 0.316470
vt 0.070107 0.444427
vt 0.115357 0.418775
vt 0.086908 0.456948
vt 0.113296 0.362169
vt 0.151195 0.396772
vt 0.106722 0.382116
vt 0.164524 0.383996
vt 0.203359 0.416566
vt 0.158818 0.403601
vt 0.202340 0.363444
vt 0.244057 0.389229
vt 0.199603 0.383010
vt 0.256862 0.392833
vt 0.287704 0.429340
vt 0.248395 0.410463
vt 0.286097 0.350308
vt 0.324975 0.321763
vt 0.302932 0.360010
vt 0.320580 0.453072
vt 0.342329 0.493202
vt 0.309313 0.467604
vt 0.341803 0.285297
vt 0.370896 0.251636
vt 0.359245 0.290523
vt 0.372862 0.536229
vt 0.345187 0.571703
vt 0.355291 0.531781
vt 0.342942 0.207279
vt 0.370896 0.171779
vt 0.360569 0.211825
vt 0.372862 0.617582
vt 0.342576 0.650484
vt 0.355504 0.611784
vt 0.340000 0.128466
vt 0.318422 0.088139
vt 0.351367 0.113965
vt 0.326849 0.684964
vt 0.289783 0.715487
vt 0.309579 0.676251
vt 0.295218 0.043971
vt 0.245345 0.042025
vt 0.254425 0.023728
vt 0.248380 0.756698
vt 0.205251 0.731412
vt 0.250704 0.736692
vt 0.154068 0.036321
vt 0.153022 0.765140
vt 0.083306 0.091251
vt 0.033784 0.682911
vt 0.024027 0.160428
vt 0.014933 0.569389
vt 0.024662 0.255091
vt 0.025766 0.473290
vt 0.084956 0.323566
vt 0.098555 0.406254
vt 0.157768 0.376825
vt 0.209065 0.396961
vt 0.246794 0.369663
vt 0.296170 0.411710
vt 0.308140 0.312061
vt 0.353596 0.478670
vt 0.353455 0.246410
vt 0.362758 0.576150
vt 0.353270 0.167233
vt 0.359934 0.656283
vt 0.307054 0.102640
vt 0.307053 0.724200
vt 0.286139 0.062268
vt 0.202928 0.751418
vt 0.103278 0.261772
vt 0.073522 0.240774
vt 0.093493 0.236562
vt 0.094950 0.207432
vt 0.073611 0.175329
vt 0.092228 0.178446
vt 0.146675 0.300062
vt 0.113278 0.292763
vt 0.126159 0.278099
vt 0.197699 0.303718
vt 0.168877 0.328105
vt 0.170567 0.310262
vt 0.250530 0.295431
vt 0.231671 0.324291
vt 0.227576 0.305364
vt 0.286284 0.258133
vt 0.280125 0.287009
vt 0.267521 0.275358
vt 0.286866 0.207832
vt 0.308925 0.236265
vt 0.291604 0.234827
vt 0.285158 0.157694
vt 0.309366 0.177975
vt 0.291506 0.179927
vt 0.249438 0.116868
vt 0.277566 0.127869
vt 0.262935 0.140108
vt 0.196145 0.108446
vt 0.229993 0.088837
vt 0.226402 0.106808
vt 0.169368 0.103737
vt 0.133998 0.097504
vt 0.166285 0.084860
vt 0.103179 0.153426
vt 0.111926 0.121316
vt 0.125274 0.135469
vt 0.075283 0.606968
vt 0.105394 0.628187
vt 0.090336 0.639193
vt 0.076182 0.541192
vt 0.097137 0.574062
vt 0.078237 0.574017
vt 0.115103 0.487905
vt 0.105676 0.519363
vt 0.089080 0.507994
vt 0.169131 0.451420
vt 0.147660 0.480003
vt 0.137346 0.464553
vt 0.232252 0.456513
vt 0.198529 0.476212
vt 0.200305 0.457286
vt 0.281570 0.492392
vt 0.251919 0.484113
vt 0.262746 0.468788
vt 0.311241 0.542486
vt 0.288022 0.521180
vt 0.302093 0.512774
vt 0.311325 0.601264
vt 0.288777 0.571374
vt 0.307242 0.571660
vt 0.280216 0.651687
vt 0.286520 0.621279
vt 0.302127 0.630896
vt 0.263542 0.675935
vt 0.229885 0.672532
vt 0.252895 0.663135
vt 0.171159 0.695443
vt 0.200333 0.671711
vt 0.202038 0.690458
vt 0.115063 0.659760
vt 0.148499 0.666971
vt 0.137656 0.684447
vt 0.088523 0.272713
vt 0.076103 0.207756
vt 0.135823 0.317321
vt 0.199377 0.322779
vt 0.261047 0.309486
vt 0.301654 0.266593
vt 0.305246 0.207638
vt 0.299256 0.148646
vt 0.260367 0.102523
vt 0.197578 0.089729
vt 0.144372 0.113214
vt 0.086335 0.142111
vt 0.095224 0.602742
vt 0.094923 0.544466
vt 0.128173 0.502443
vt 0.172047 0.470231
vt 0.229122 0.474101
vt 0.268974 0.504094
vt 0.293077 0.544391
vt 0.295168 0.599984
vt 0.265824 0.639985
vt 0.234379 0.691488
vt 0.173104 0.677267
vt 0.128137 0.645283
vn 0.2589 -0.9659 -0.0000
vn -0.2588 -0.9659 -0.0000
vn -0.7071 0.7071 -0.0000
vn -0.9659 0.2588 0.0000
vn 0.9659 -0.2588 -0.0000
vn 0.7071 -0.7071 -0.0000
vn -0.9659 -0.2589 -0.0000
vn -0.7071 -0.7071 0.0000
vn 0.9659 0.2589 0.0000
vn -0.2589 0.9659 -0.0000
vn 0.2588 0.9659 -0.0000
vn 0.7071 0.7071 -0.0000
vn 0.0000 0.0000 -1.0000
vn 1.0000 0.0000 -0.0000
vn -1.0000 0.0000 0.0000
vn 0.0000 -1.0000 0.0000
vn 0.0000 1.0000 0.0000
vn 0.0000 0.0000 1.0000
vn -0.6849 0.1836 -0.7051
vn -0.5015 0.5011 -0.7052
vn -0.6849 0.1832 -0.7052
vn -0.1838 0.6848 -0.7052
vn -0.5014 0.5014 -0.7051
vn -0.1835 0.6849 -0.7051
vn 0.1838 -0.6848 -0.7052
vn 0.5014 -0.5014 -0.7051
vn 0.1835 -0.6849 -0.7051
vn 0.6848 0.1838 -0.7052
vn 0.5014 0.5014 -0.7051
vn 0.6849 0.1835 -0.7051
vn -0.1832 -0.6849 -0.7052
vn -0.1836 -0.6849 -0.7051
vn 0.5011 0.5015 -0.7052
vn 0.1836 0.6849 -0.7051
vn 0.1832 0.6849 -0.7052
vn -0.5011 -0.5015 -0.7052
vn -0.5014 -0.5014 -0.7051
vn -0.6848 -0.1838 -0.7052
vn 0.5015 -0.5011 -0.7052
vn 0.6849 -0.1836 -0.7051
vn -0.6849 -0.1835 -0.7051
vn 0.6849 -0.1832 -0.7052
vn 0.9968 -0.0797 -0.0000
vn 0.7612 -0.6485 -0.0000
vn 0.6485 -0.7612 0.0000
vn 0.0797 -0.9968 0.0000
vn -0.0797 -0.9968 0.0000
vn -0.6485 -0.7612 0.0000
vn -0.7612 -0.6485 0.0000
vn -0.9968 -0.0797 0.0000
vn -0.9968 0.0797 0.0000
vn -0.7612 0.6485 0.0000
vn -0.6485 0.7612 0.0000
vn -0.0797 0.9968 0.0000
vn 0.0797 0.9968 0.0000
vn 0.6485 0.7612 0.0000
vn 0.7612 0.6485 -0.0000
vn 0.9968 0.0797 -0.0000
g Interactable_Valve_Interactable_Valve_Valves
usemtl Valves
s 1
f 22/1/1 7/2/2 28/3/2
f 19/4/3 12/5/4 3/6/3
f 9/7/5 17/8/6 33/9/5
f 10/10/7 21/11/8 4/12/8
f 28/13/2 4/14/8 21/15/8
f 35/16/4 10/17/7 12/18/4
f 13/19/9 33/20/5 36/21/9
f 8/22/10 19/23/3 3/24/3
f 5/25/11 26/26/10 8/27/10
f 17/28/6 6/29/1 22/30/1
f 1/31/12 25/32/11 5/33/11
f 15/34/12 13/35/9 36/36/9
s off
f 135/37/13 136/38/13 134/39/13
f 137/40/14 140/41/14 136/42/14
f 139/43/15 134/39/15 138/44/15
f 140/45/16 134/39/16 136/38/16
f 137/40/17 139/43/17 141/46/17
f 160/47/17 145/48/17 149/49/17
f 159/50/13 144/51/13 145/48/13
f 151/52/14 144/53/14 148/54/14
f 152/55/18 148/54/18 146/56/18
f 153/57/15 146/58/15 142/59/15
f 150/60/13 142/59/13 144/53/13
f 155/61/14 149/62/14 145/63/14
f 156/64/13 145/63/13 143/65/13
f 157/66/15 143/65/15 147/67/15
f 154/68/18 147/67/18 149/69/18
f 161/70/18 149/49/18 148/71/18
f 158/72/16 148/73/16 144/51/16
f 163/74/18 146/75/18 147/76/18
f 164/77/17 147/78/17 143/79/17
f 165/80/13 143/79/13 142/81/13
f 162/82/16 142/81/16 146/75/16
s 1
f 22/1/1 6/83/1 7/2/2
f 19/4/3 35/84/4 12/5/4
f 9/7/5 2/85/6 17/8/6
f 10/10/7 30/86/7 21/11/8
f 28/13/2 7/87/2 4/14/8
f 35/16/4 30/88/7 10/17/7
f 13/19/9 9/89/5 33/20/5
f 8/22/10 26/90/10 19/23/3
f 5/25/11 25/91/11 26/26/10
f 17/28/6 2/92/6 6/29/1
f 1/31/12 15/93/12 25/32/11
f 15/34/12 1/94/12 13/35/9
s off
f 135/37/13 137/95/13 136/38/13
f 137/40/14 141/46/14 140/41/14
f 139/43/15 135/96/15 134/39/15
f 140/45/16 138/44/16 134/39/16
f 137/40/17 135/96/17 139/43/17
f 160/47/17 159/50/17 145/48/17
f 159/50/13 158/72/13 144/51/13
f 151/52/14 150/60/14 144/53/14
f 152/55/18 151/52/18 148/54/18
f 153/57/15 152/97/15 146/58/15
f 150/60/13 153/57/13 142/59/13
f 155/61/14 154/98/14 149/62/14
f 156/64/13 155/61/13 145/63/13
f 157/66/15 156/64/15 143/65/15
f 154/68/18 157/66/18 147/67/18
f 161/70/18 160/47/18 149/49/18
f 158/72/16 161/99/16 148/73/16
f 163/74/18 162/82/18 146/75/18
f 164/77/17 163/100/17 147/78/17
f 165/80/13 164/77/13 143/79/13
f 162/82/16 165/80/16 142/81/16
s 2
f 11/101/13 16/102/13 23/103/13
f 24/104/13 37/105/13 11/101/13
f 34/106/13 11/101/13 31/107/13
f 11/101/13 20/108/13 31/107/13
f 11/101/13 27/109/13 24/104/13
f 27/109/13 34/106/13 18/110/13
f 11/101/13 37/105/13 32/111/13
f 29/112/13 11/101/13 23/103/13
f 11/101/13 32/111/13 16/102/13
f 24/104/13 14/113/13 37/105/13
f 11/101/13 29/112/13 20/108/13
f 27/109/13 11/101/13 34/106/13
s 3
f 35/84/19 18/110/20 34/106/21
f 27/109/22 19/23/23 26/90/24
f 23/103/25 17/28/26 22/30/27
f 37/105/28 15/34/29 36/36/30
f 29/112/31 22/1/27 28/3/32
f 14/113/33 25/32/34 15/93/29
f 24/104/35 26/26/24 25/91/34
f 20/108/36 28/13/32 21/15/37
f 21/11/37 31/107/38 20/108/36
f 16/102/39 33/9/40 17/8/26
f 30/88/41 34/106/21 31/107/38
f 32/111/42 36/21/30 33/20/40
f 35/84/19 19/4/23 18/110/20
f 27/109/22 18/110/20 19/23/23
f 23/103/25 16/102/39 17/28/26
f 37/105/28 14/113/33 15/34/29
f 29/112/31 23/103/25 22/1/27
f 14/113/33 24/104/35 25/32/34
f 24/104/35 27/109/22 26/26/24
f 20/108/36 29/112/31 28/13/32
f 21/11/37 30/86/41 31/107/38
f 16/102/39 32/111/42 33/9/40
f 30/88/41 35/16/19 34/106/21
f 32/111/42 37/105/28 36/21/30
s 4
f 89/114/14 87/115/43 86/116/14
f 87/117/43 91/118/44 90/119/44
f 91/120/44 92/121/6 90/122/44
f 93/123/6 94/124/45 92/125/6
f 95/126/45 96/127/46 94/128/45
f 97/129/46 98/130/16 96/131/46
f 99/132/16 100/133/47 98/134/16
f 101/135/47 102/136/48 100/137/47
f 103/138/48 104/139/8 102/140/48
f 105/141/8 106/142/49 104/143/8
f 107/144/49 108/145/50 106/146/49
f 109/147/50 110/148/15 108/149/50
f 111/150/15 112/151/51 110/152/15
f 113/153/51 114/154/52 112/155/51
f 115/156/52 116/157/3 114/158/52
f 117/159/3 118/160/53 116/161/3
f 119/162/53 120/163/54 118/164/53
f 121/165/54 122/166/17 120/167/54
f 123/168/17 124/169/55 122/170/17
f 125/171/55 126/172/56 124/173/55
f 127/174/56 128/175/12 126/176/56
f 129/177/12 130/178/57 128/179/12
f 130/180/57 133/181/58 132/182/58
f 133/183/58 86/184/14 132/185/58
f 89/114/14 88/186/43 87/115/43
f 87/117/43 88/187/43 91/118/44
f 91/120/44 93/188/6 92/121/6
f 93/123/6 95/189/45 94/124/45
f 95/126/45 97/190/46 96/127/46
f 97/129/46 99/191/16 98/130/16
f 99/132/16 101/192/47 100/133/47
f 101/135/47 103/193/48 102/136/48
f 103/138/48 105/194/8 104/139/8
f 105/141/8 107/195/49 106/142/49
f 107/144/49 109/196/50 108/145/50
f 109/147/50 111/197/15 110/148/15
f 111/150/15 113/198/51 112/151/51
f 113/153/51 115/199/52 114/154/52
f 115/156/52 117/200/3 116/157/3
f 117/159/3 119/201/53 118/160/53
f 119/162/53 121/202/54 120/163/54
f 121/165/54 123/203/17 122/166/17
f 123/168/17 125/204/55 124/169/55
f 125/171/55 127/205/56 126/172/56
f 127/174/56 129/206/12 128/175/12
f 129/177/12 131/207/57 130/178/57
f 130/180/57 131/208/57 133/181/58
f 133/183/58 89/209/14 86/184/14
s 5
f 54/210/56 53/211/55 52/212/55
f 50/213/17 49/214/54 48/215/54
f 58/216/57 57/217/12 56/218/12
f 62/219/14 61/220/58 60/221/58
f 66/222/44 65/223/43 64/224/43
f 70/225/45 69/226/6 68/227/6
f 74/228/16 73/229/46 72/230/46
f 78/231/48 77/232/47 76/233/47
f 82/234/49 81/235/8 80/236/8
f 38/237/15 85/238/50 84/239/50
f 40/240/51 43/241/52 41/242/51
f 46/243/53 45/244/3 44/245/3
f 48/246/54 47/247/53 46/248/53
f 52/249/55 51/250/17 50/251/17
f 56/252/12 55/253/56 54/254/56
f 60/255/58 59/256/57 58/257/57
f 64/258/43 63/259/14 62/260/14
f 68/261/6 67/262/44 66/263/44
f 72/264/46 71/265/45 70/266/45
f 76/267/47 75/268/16 74/269/16
f 80/270/8 79/271/48 78/272/48
f 82/273/49 85/274/50 83/275/49
f 40/276/51 39/277/15 38/278/15
f 44/279/3 43/280/52 42/281/52
f 54/210/56 55/282/56 53/211/55
f 50/213/17 51/283/17 49/214/54
f 58/216/57 59/284/57 57/217/12
f 62/219/14 63/285/14 61/220/58
f 66/222/44 67/286/44 65/223/43
f 70/225/45 71/287/45 69/226/6
f 74/228/16 75/288/16 73/229/46
f 78/231/48 79/289/48 77/232/47
f 82/234/49 83/290/49 81/235/8
f 38/237/15 39/291/15 85/238/50
f 40/240/51 42/292/52 43/241/52
f 46/243/53 47/293/53 45/244/3
f 48/246/54 49/294/54 47/247/53
f 52/249/55 53/295/55 51/250/17
f 56/252/12 57/296/12 55/253/56
f 60/255/58 61/297/58 59/256/57
f 64/258/43 65/298/43 63/259/14
f 68/261/6 69/299/6 67/262/44
f 72/264/46 73/300/46 71/265/45
f 76/267/47 77/301/47 75/268/16
f 80/270/8 81/302/8 79/271/48
f 82/273/49 84/303/50 85/274/50
f 40/276/51 41/304/51 39/277/15
f 44/279/3 45/305/3 43/280/52
s 6
f 40/276/13 86/184/13 87/117/13
f 40/276/13 90/119/13 42/281/13
f 42/281/13 92/125/13 44/279/13
f 46/248/13 92/125/13 94/124/13
f 48/246/13 94/124/13 96/131/13
f 48/246/13 98/130/13 50/251/13
f 52/249/13 98/130/13 100/137/13
f 52/249/13 102/136/13 54/254/13
f 54/254/13 104/143/13 56/252/13
f 58/257/13 104/143/13 106/142/13
f 60/255/13 106/142/13 108/149/13
f 60/255/13 110/148/13 62/260/13
f 64/258/13 110/148/13 112/155/13
f 66/263/13 112/155/13 114/154/13
f 66/263/13 116/161/13 68/261/13
f 70/266/13 116/161/13 118/160/13
f 72/264/13 118/160/13 120/167/13
f 72/264/13 122/166/13 74/269/13
f 76/267/13 122/166/13 124/173/13
f 76/267/13 126/172/13 78/272/13
f 78/272/13 128/179/13 80/270/13
f 82/273/13 128/179/13 130/178/13
f 82/273/13 132/185/13 84/303/13
f 84/303/13 86/184/13 38/278/13
f 40/276/13 38/278/13 86/184/13
f 40/276/13 87/117/13 90/119/13
f 42/281/13 90/119/13 92/125/13
f 46/248/13 44/279/13 92/125/13
f 48/246/13 46/248/13 94/124/13
f 48/246/13 96/131/13 98/130/13
f 52/249/13 50/251/13 98/130/13
f 52/249/13 100/137/13 102/136/13
f 54/254/13 102/136/13 104/143/13
f 58/257/13 56/252/13 104/143/13
f 60/255/13 58/257/13 106/142/13
f 60/255/13 108/149/13 110/148/13
f 64/258/13 62/260/13 110/148/13
f 66/263/13 64/258/13 112/155/13
f 66/263/13 114/154/13 116/161/13
f 70/266/13 68/261/13 116/161/13
f 72/264/13 70/266/13 118/160/13
f 72/264/13 120/167/13 122/166/13
f 76/267/13 74/269/13 122/166/13
f 76/267/13 124/173/13 126/172/13
f 78/272/13 126/172/13 128/179/13
f 82/273/13 80/270/13 128/179/13
f 82/273/13 130/178/13 132/185/13
f 84/303/13 132/185/13 86/184/13
s 7
f 41/242/18 89/114/18 39/291/18
f 41/242/18 91/120/18 88/186/18
f 43/241/18 93/188/18 91/120/18
f 47/293/18 93/188/18 45/244/18
f 49/214/18 95/126/18 47/293/18
f 49/214/18 99/132/18 97/190/18
f 53/211/18 99/132/18 51/283/18
f 53/211/18 103/138/18 101/192/18
f 55/282/18 105/194/18 103/138/18
f 59/284/18 105/194/18 57/217/18
f 61/220/18 107/144/18 59/284/18
f 61/220/18 111/150/18 109/196/18
f 65/223/18 111/150/18 63/285/18
f 67/286/18 113/198/18 65/223/18
f 67/286/18 117/200/18 115/156/18
f 71/287/18 117/200/18 69/226/18
f 73/229/18 119/162/18 71/287/18
f 73/229/18 123/168/18 121/202/18
f 77/232/18 123/168/18 75/288/18
f 77/232/18 127/174/18 125/204/18
f 79/289/18 129/206/18 127/174/18
f 83/290/18 129/206/18 81/235/18
f 83/290/18 133/181/18 131/208/18
f 85/238/18 89/114/18 133/181/18
f 41/242/18 88/186/18 89/114/18
f 41/242/18 43/241/18 91/120/18
f 43/241/18 45/244/18 93/188/18
f 47/293/18 95/126/18 93/188/18
f 49/214/18 97/190/18 95/126/18
f 49/214/18 51/283/18 99/132/18
f 53/211/18 101/192/18 99/132/18
f 53/211/18 55/282/18 103/138/18
f 55/282/18 57/217/18 105/194/18
f 59/284/18 107/144/18 105/194/18
f 61/220/18 109/196/18 107/144/18
f 61/220/18 63/285/18 111/150/18
f 65/223/18 113/198/18 111/150/18
f 67/286/18 115/156/18 113/198/18
f 67/286/18 69/226/18 117/200/18
f 71/287/18 119/162/18 117/200/18
f 73/229/18 121/202/18 119/162/18
f 73/229/18 75/288/18 123/168/18
f 77/232/18 125/204/18 123/168/18
f 77/232/18 79/289/18 127/174/18
f 79/289/18 81/235/18 129/206/18
f 83/290/18 131/208/18 129/206/18
f 83/290/18 85/238/18 133/181/18
f 85/238/18 39/291/18 89/114/18
