# Blender v2.93.6 OBJ File: 'Resonance Levels.blend'
# www.blender.org
mtllib Key 1.mtl
o Key
v 0.010591 0.000000 4.621598
v 0.010591 0.012573 4.621598
v 0.006557 0.000000 4.634013
v 0.006557 0.012573 4.634013
v -0.006497 0.000000 4.634013
v -0.006497 0.012573 4.634013
v -0.011174 0.000000 4.621598
v -0.011174 0.012573 4.621598
v 0.018455 0.000000 4.476406
v 0.018455 0.012573 4.476406
v 0.018585 0.000000 4.561655
v -0.011378 0.012573 4.561655
v -0.011378 0.000000 4.561655
v 0.018585 0.012573 4.561655
v 0.022395 0.000000 4.572366
v 0.022395 0.012573 4.572366
v 0.036235 0.000000 4.591416
v 0.036235 0.012573 4.591416
v 0.036235 0.000000 4.614963
v 0.036235 0.012573 4.614963
v 0.022395 0.000000 4.634013
v 0.022395 0.012573 4.634013
v -0.000000 0.000000 4.641289
v -0.000000 0.012573 4.641289
v -0.022395 0.000000 4.634013
v -0.022395 0.012573 4.634013
v -0.036235 0.000000 4.614963
v -0.036235 0.012573 4.614963
v -0.036235 0.000000 4.591416
v -0.036235 0.012573 4.591416
v -0.022395 0.000000 4.572366
v -0.022395 0.012573 4.572366
v -0.022395 0.000000 4.561655
v 0.022395 0.012573 4.561655
v 0.022395 0.000000 4.561655
v -0.022395 0.012573 4.561655
v -0.011378 0.012573 4.574057
v -0.011378 0.000000 4.574057
v 0.009140 -0.000038 4.471521
v 0.002845 0.012606 4.472141
v 0.009140 0.012611 4.471521
v 0.002831 0.000000 4.574057
v 0.009145 0.012573 4.578795
v 0.002831 0.012573 4.574057
v -0.011377 0.009525 4.561655
v 0.002836 0.009525 4.561655
v 0.002847 0.009558 4.472140
v -0.011377 0.003048 4.561655
v 0.002836 0.003048 4.561655
v 0.002847 0.003015 4.472140
v 0.015350 0.012586 4.474777
v 0.015438 0.012573 4.578795
v 0.009141 0.008001 4.561655
v 0.009137 0.008039 4.471521
v 0.015347 0.008014 4.474777
v 0.015435 0.008001 4.561655
v 0.009141 0.005296 4.471520
v 0.002846 0.005301 4.472140
v 0.002836 0.005334 4.561654
v 0.009145 0.005334 4.561654
v 0.009145 0.000001 4.580153
v 0.002831 0.000001 4.580153
v -0.011247 0.009525 4.481196
v -0.011247 0.003048 4.481196
v -0.009012 0.009525 4.491385
v -0.009012 0.009525 4.493912
v -0.013237 0.009525 4.502861
v -0.013237 0.009525 4.505392
v -0.007063 0.009525 4.514408
v -0.007063 0.009525 4.516948
v -0.013277 0.009525 4.525967
v -0.013277 0.009525 4.528498
v -0.009383 0.009525 4.537342
v -0.009383 0.009525 4.539872
v -0.015855 0.009525 4.548955
v -0.015855 0.009525 4.551486
v -0.009012 0.003048 4.493912
v -0.009012 0.003048 4.491385
v -0.013237 0.003048 4.505392
v -0.013237 0.003048 4.502861
v -0.007063 0.003048 4.516948
v -0.007063 0.003048 4.514408
v -0.013277 0.003048 4.528498
v -0.013277 0.003048 4.525967
v -0.009383 0.003048 4.539872
v -0.009383 0.003048 4.537342
v -0.015855 0.003048 4.551486
v -0.015855 0.003048 4.548955
vt 0.345954 0.396517
vt 0.319100 0.382178
vt 0.345954 0.382178
vt 0.319100 0.396517
vt 0.292247 0.382179
vt 0.292247 0.396517
vt 0.265393 0.382179
vt 0.265393 0.396517
vt 0.238540 0.382179
vt 0.238540 0.396517
vt 0.211686 0.382179
vt 0.211686 0.396517
vt 0.184832 0.382179
vt 0.184832 0.396517
vt 0.157979 0.382179
vt 0.157979 0.396517
vt 0.131125 0.382179
vt 0.092204 0.382169
vt 0.106347 0.382179
vt 0.106345 0.385655
vt 0.362514 0.382178
vt 0.459734 0.396517
vt 0.362514 0.396517
vt 0.358169 0.377833
vt 0.460959 0.367063
vt 0.455389 0.377685
vt 0.293051 0.439380
vt 0.268229 0.425041
vt 0.293051 0.425041
vt 0.307938 0.425041
vt 0.358169 0.396517
vt 0.131125 0.396517
vt 0.118910 0.382179
vt 0.136254 0.366394
vt 0.124039 0.353831
vt 0.138182 0.353831
vt 0.124039 0.424865
vt 0.136254 0.412301
vt 0.138182 0.424865
vt 0.253099 0.439380
vt 0.268229 0.439380
vt 0.192399 0.328777
vt 0.136254 0.315316
vt 0.157979 0.299532
vt 0.192399 0.449919
vt 0.157979 0.479164
vt 0.136254 0.463380
vt 0.184832 0.479164
vt 0.206557 0.463380
vt 0.214856 0.340855
vt 0.206557 0.366395
vt 0.206557 0.348264
vt 0.214856 0.437841
vt 0.206557 0.445319
vt 0.192399 0.353598
vt 0.192399 0.425097
vt 0.206557 0.412301
vt 0.253099 0.425041
vt 0.238212 0.439380
vt 0.238212 0.425041
vt 0.184832 0.299532
vt 0.206557 0.315316
vt 0.358169 0.382178
vt 0.143586 0.455447
vt 0.143586 0.448270
vt 0.358169 0.400862
vt 0.457246 0.404551
vt 0.338622 0.404450
vt 0.478940 0.393081
vt 0.478941 0.396557
vt 0.471727 0.396561
vt 0.145134 0.337626
vt 0.460958 0.422059
vt 0.344027 0.429285
vt 0.338621 0.422086
vt 0.358168 0.360978
vt 0.460958 0.360980
vt 0.138182 0.441070
vt 0.123617 0.424867
vt 0.460254 0.429239
vt 0.358171 0.432760
vt 0.106347 0.396517
vt 0.092204 0.396527
vt 0.106345 0.393041
vt 0.138182 0.337626
vt 0.123617 0.353829
vt 0.123617 0.337620
vt 0.358164 0.409683
vt 0.358165 0.416861
vt 0.460956 0.416846
vt 0.337934 0.416860
vt 0.457241 0.409765
vt 0.358168 0.353783
vt 0.336212 0.360978
vt 0.336213 0.353777
vt 0.460252 0.353800
vt 0.471728 0.388218
vt 0.471732 0.391347
vt 0.463736 0.391317
vt 0.337074 0.367069
vt 0.358169 0.351176
vt 0.460252 0.351193
vt 0.344027 0.347693
vt 0.118910 0.396517
vt 0.072633 0.348910
vt 0.069737 0.348910
vt 0.021535 0.337609
vt 0.019255 0.385655
vt 0.030541 0.393041
vt 0.019255 0.393041
vt 0.498045 0.393050
vt 0.478942 0.388225
vt 0.123618 0.441075
vt 0.072633 0.429786
vt 0.095891 0.427140
vt 0.033428 0.385655
vt 0.045889 0.393041
vt 0.033428 0.393041
vt 0.048785 0.393041
vt 0.061276 0.385655
vt 0.061276 0.393041
vt 0.064162 0.385655
vt 0.075183 0.393041
vt 0.064162 0.393041
vt 0.078069 0.393041
vt 0.090787 0.385655
vt 0.090787 0.393041
vt 0.093673 0.385655
vt 0.093673 0.393041
vt 0.016373 0.385655
vt 0.030541 0.385655
vt 0.045889 0.385655
vt 0.048785 0.385655
vt 0.075183 0.385655
vt 0.078069 0.385655
vt 0.004478 0.385655
vt 0.016373 0.393041
vt 0.004478 0.393041
vt 0.463732 0.396531
vt 0.459734 0.382178
vt 0.471729 0.382135
vt 0.307938 0.439380
vt 0.124039 0.366395
vt 0.124039 0.412301
vt 0.206557 0.333377
vt 0.206557 0.430431
vt 0.455389 0.401010
vt 0.145134 0.330426
vt 0.460254 0.432715
vt 0.337933 0.409683
vt 0.337075 0.347690
vt 0.112020 0.358936
vt 0.098777 0.351556
vt 0.109134 0.358936
vt 0.043482 0.351133
vt 0.031862 0.353682
vt 0.059456 0.355951
vt 0.056569 0.355951
vt 0.046364 0.351133
vt 0.095891 0.351556
vt 0.085805 0.355997
vt 0.082919 0.355997
vt 0.478943 0.385618
vt 0.498048 0.385664
vt 0.112020 0.419760
vt 0.021534 0.441087
vt 0.031861 0.425015
vt 0.043480 0.427564
vt 0.046362 0.427564
vt 0.056568 0.422745
vt 0.069735 0.429786
vt 0.059454 0.422745
vt 0.109134 0.419760
vt 0.098777 0.427140
vt 0.082919 0.422699
vt 0.085805 0.422699
vn 0.8090 0.0000 -0.5878
vn 1.0000 0.0000 0.0000
vn 0.8090 0.0000 0.5878
vn 0.3090 0.0000 0.9511
vn -0.3090 0.0000 0.9511
vn -0.8090 0.0000 0.5878
vn -1.0000 0.0000 0.0000
vn -0.8090 0.0000 -0.5878
vn 1.0000 -0.0006 0.0000
vn 1.0000 0.0000 -0.0015
vn 0.0041 -1.0000 -0.0000
vn 0.0000 0.0000 1.0000
vn -0.9511 -0.0000 -0.3090
vn 0.0000 -1.0000 0.0000
vn 0.0000 1.0000 0.0000
vn 0.9358 -0.0000 -0.3525
vn 0.0000 0.0000 -1.0000
vn 0.0007 1.0000 0.0001
vn -0.0978 0.0001 -0.9952
vn -0.0003 1.0000 0.0004
vn -1.0000 0.0002 0.0000
vn 0.0000 0.9711 -0.2387
vn -1.0000 -0.0011 -0.0001
vn 1.0000 0.0006 0.0000
vn 0.0000 -0.9711 -0.2387
vn -1.0000 -0.0024 0.0008
vn 1.0000 -0.0007 -0.0000
vn 0.0000 0.9662 -0.2577
vn 0.0039 1.0000 0.0004
vn 0.0000 -0.9609 -0.2770
vn 0.0000 -1.0000 0.0004
vn 0.4645 0.0008 -0.8856
vn -0.0001 -1.0000 0.0000
vn 1.0000 0.0003 0.0001
vn 1.0000 0.0003 0.0005
vn -0.0034 -1.0000 0.0000
vn -0.9043 0.0000 -0.4270
vn -0.5406 0.0002 -0.8413
vn -0.8251 0.0000 0.5650
vn -0.8234 -0.0000 -0.5674
vn -0.9152 0.0000 0.4030
vn -0.8144 -0.0000 -0.5803
vn -0.9768 -0.0000 0.2143
vn 0.4647 -0.0003 -0.8854
vn 0.4644 0.0001 -0.8856
vn -0.0980 0.0001 -0.9952
vn -0.0980 0.0000 -0.9952
vn 0.4648 -0.0002 -0.8854
vn -0.0978 0.0002 -0.9952
vn 0.0006 -1.0000 0.0004
vn 0.9358 0.0000 -0.3526
vn 0.0041 1.0000 -0.0000
vn 0.0000 -1.0000 0.0002
vn 0.0001 -1.0000 -0.0000
vn -0.0007 1.0000 0.0003
vn -1.0000 0.0001 0.0000
vn -1.0000 -0.0006 -0.0001
vn -1.0000 0.0007 0.0010
vn 0.0000 1.0000 0.0001
vn -0.0007 -1.0000 0.0004
vn 1.0000 -0.0008 0.0000
vn 0.0000 -0.0002 -1.0000
vn -0.0001 0.0000 -1.0000
vn 0.0000 0.0002 -1.0000
vn -0.0017 -1.0000 0.0004
vn -0.0021 -1.0000 0.0005
vn -0.0028 -1.0000 0.0000
vn -0.0024 -1.0000 0.0002
vn -0.9043 0.0000 -0.4269
vn -0.5406 -0.0004 -0.8413
vn -0.5406 -0.0000 -0.8413
vn -0.0021 1.0000 0.0005
vn -0.0028 1.0000 0.0000
vn -0.0017 1.0000 0.0004
vn -0.0024 1.0000 0.0002
vn -0.0034 1.0000 0.0000
vn -0.9152 -0.0000 0.4031
vn 0.4641 0.0000 -0.8858
g Key_Key_Keys
usemtl Keys
s off
f 16/1/1 17/2/1 15/3/1
f 18/4/2 19/5/2 17/2/2
f 20/6/3 21/7/3 19/5/3
f 22/8/4 23/9/4 21/7/4
f 24/10/5 25/11/5 23/9/5
f 26/12/6 27/13/6 25/11/6
f 28/14/7 29/15/7 27/13/7
f 30/16/8 31/17/8 29/15/8
f 38/18/9 13/19/9 48/20/9
f 11/21/10 10/22/10 14/23/10
f 11/24/11 39/25/11 9/26/11
f 2/27/12 7/28/12 1/29/12
f 3/30/13 2/27/13 1/29/13
f 15/3/2 34/31/2 16/1/2
f 32/32/7 33/33/7 31/17/7
f 31/34/14 13/35/14 38/36/14
f 12/37/15 32/38/15 37/39/15
f 6/40/16 7/28/16 8/41/16
f 1/42/14 15/43/14 17/44/14
f 2/45/15 18/46/15 16/47/15
f 20/48/15 2/45/15 22/49/15
f 23/50/14 25/51/14 5/52/14
f 24/53/15 22/49/15 4/54/15
f 27/13/14 7/55/14 25/51/14
f 8/56/15 28/14/15 26/57/15
f 7/55/14 29/15/14 31/34/14
f 8/56/15 32/38/15 30/16/15
f 5/58/17 4/59/17 3/60/17
f 1/42/14 19/61/14 21/62/14
f 14/23/17 35/63/17 11/21/17
f 2/45/15 52/64/15 43/65/15
f 14/66/18 51/67/18 52/68/18
f 47/69/19 40/70/19 41/71/19
f 1/42/14 7/55/14 62/72/14
f 41/73/20 44/74/20 43/75/20
f 39/25/21 60/76/21 57/77/21
f 44/78/22 45/79/22 37/39/22
f 40/80/23 46/81/23 44/74/23
f 12/82/24 37/83/24 45/84/24
f 42/85/25 48/86/25 49/87/25
f 51/67/26 56/88/26 52/68/26
f 41/73/27 53/89/27 54/90/27
f 43/91/28 56/88/28 53/89/28
f 53/89/29 55/92/29 54/90/29
f 16/1/15 14/66/15 52/68/15
f 59/93/30 61/94/30 62/95/30
f 58/96/31 60/76/31 59/93/31
f 57/97/32 54/98/32 55/99/32
f 11/24/33 15/3/33 61/100/33
f 58/96/34 49/101/34 50/102/34
f 59/93/35 42/103/35 49/101/35
f 45/84/17 48/20/17 36/104/17
f 81/105/36 82/106/36 50/107/36
f 77/108/37 67/109/37 66/110/37
f 63/111/38 47/69/38 58/112/38
f 46/113/15 70/114/15 73/115/15
f 79/116/39 69/117/39 68/118/39
f 70/119/40 84/120/40 71/121/40
f 83/122/41 73/123/41 72/124/41
f 74/125/42 88/126/42 75/127/42
f 87/128/41 45/84/41 76/129/41
f 66/110/7 78/130/7 77/108/7
f 68/118/7 80/131/7 79/116/7
f 70/119/7 82/132/7 81/133/7
f 72/124/7 84/120/7 83/122/7
f 74/125/7 86/134/7 85/135/7
f 76/129/7 88/126/7 87/128/7
f 64/136/43 65/137/43 63/138/43
f 10/22/44 55/99/44 51/139/44
f 9/140/45 39/141/45 55/99/45
f 58/112/46 47/69/46 54/98/46
f 57/97/47 58/112/47 54/98/47
f 39/141/48 57/97/48 55/99/48
f 54/98/49 47/69/49 41/71/49
f 16/1/1 18/4/1 17/2/1
f 18/4/2 20/6/2 19/5/2
f 20/6/3 22/8/3 21/7/3
f 22/8/4 24/10/4 23/9/4
f 24/10/5 26/12/5 25/11/5
f 26/12/6 28/14/6 27/13/6
f 28/14/7 30/16/7 29/15/7
f 30/16/8 32/32/8 31/17/8
f 11/21/10 9/140/10 10/22/10
f 11/24/50 61/100/50 39/25/50
f 2/27/12 8/41/12 7/28/12
f 3/30/13 4/142/13 2/27/13
f 15/3/2 35/63/2 34/31/2
f 32/32/7 36/104/7 33/33/7
f 31/34/14 33/143/14 13/35/14
f 12/37/15 36/144/15 32/38/15
f 6/40/51 5/58/51 7/28/51
f 18/46/15 2/45/15 20/48/15
f 2/45/15 4/54/15 22/49/15
f 5/52/14 3/145/14 23/50/14
f 3/145/14 21/62/14 23/50/14
f 4/54/15 6/146/15 24/53/15
f 6/146/15 26/57/15 24/53/15
f 29/15/14 7/55/14 27/13/14
f 7/55/14 5/52/14 25/51/14
f 26/57/15 6/146/15 8/56/15
f 8/56/15 30/16/15 28/14/15
f 5/58/17 6/40/17 4/59/17
f 21/62/14 3/145/14 1/42/14
f 1/42/14 17/44/14 19/61/14
f 14/23/17 34/31/17 35/63/17
f 32/38/15 8/56/15 37/39/15
f 8/56/15 2/45/15 43/65/15
f 37/39/15 8/56/15 43/65/15
f 2/45/15 16/47/15 52/64/15
f 43/65/15 44/78/15 37/39/15
f 14/66/52 10/147/52 51/67/52
f 38/36/53 42/85/53 62/72/53
f 61/148/33 15/43/33 1/42/33
f 31/34/14 38/36/14 7/55/14
f 38/36/54 62/72/54 7/55/54
f 62/72/14 61/148/14 1/42/14
f 41/73/55 40/80/55 44/74/55
f 39/25/56 61/100/56 60/76/56
f 44/78/22 46/113/22 45/79/22
f 40/80/57 47/149/57 46/81/57
f 42/85/25 38/36/25 48/86/25
f 51/67/58 55/92/58 56/88/58
f 41/73/27 43/75/27 53/89/27
f 43/91/28 52/150/28 56/88/28
f 53/89/59 56/88/59 55/92/59
f 16/1/15 34/31/15 14/66/15
f 59/93/30 60/76/30 61/94/30
f 58/96/60 57/77/60 60/76/60
f 11/24/14 35/63/14 15/3/14
f 58/96/34 59/93/34 49/101/34
f 59/93/61 62/151/61 42/103/61
f 13/19/62 33/33/62 48/20/62
f 33/33/63 36/104/63 48/20/63
f 36/104/64 12/82/64 45/84/64
f 50/107/65 49/87/65 81/105/65
f 49/87/14 48/86/14 87/152/14
f 85/153/14 49/87/14 87/152/14
f 87/152/14 88/154/14 85/153/14
f 78/155/66 64/156/66 50/107/66
f 79/157/14 80/158/14 82/106/14
f 80/158/14 77/159/14 82/106/14
f 77/159/67 78/155/67 50/107/67
f 49/87/14 85/153/14 86/160/14
f 86/160/14 83/161/14 81/105/14
f 83/161/14 84/162/14 81/105/14
f 49/87/14 86/160/14 81/105/14
f 77/159/68 50/107/68 82/106/68
f 77/108/69 80/131/69 67/109/69
f 50/163/70 64/164/70 58/112/70
f 64/164/71 63/111/71 58/112/71
f 76/165/15 45/79/15 46/113/15
f 47/166/72 63/167/72 65/168/72
f 66/169/15 67/170/15 69/171/15
f 67/170/15 68/172/15 69/171/15
f 47/166/73 65/168/73 66/169/73
f 75/173/15 76/165/15 74/174/15
f 76/165/15 46/113/15 74/174/15
f 46/113/74 47/166/74 70/114/74
f 47/166/75 66/169/75 69/171/75
f 70/114/15 71/175/15 72/176/15
f 47/166/76 69/171/76 70/114/76
f 70/114/15 72/176/15 73/115/15
f 73/115/15 74/174/15 46/113/15
f 79/116/39 82/132/39 69/117/39
f 70/119/40 81/133/40 84/120/40
f 83/122/77 86/134/77 73/123/77
f 74/125/42 85/135/42 88/126/42
f 87/128/41 48/20/41 45/84/41
f 66/110/7 65/137/7 78/130/7
f 68/118/7 67/109/7 80/131/7
f 70/119/7 69/117/7 82/132/7
f 72/124/7 71/121/7 84/120/7
f 74/125/7 73/123/7 86/134/7
f 76/129/7 75/127/7 88/126/7
f 64/136/43 78/130/43 65/137/43
f 10/22/78 9/140/78 55/99/78
