# Blender v2.93.6 OBJ File: 'Resonance Levels.blend'
# www.blender.org
mtllib Key 1.mtl
v -4.308940 0.812799 2.460263
v -4.308940 0.829144 2.460263
v -4.304058 0.812799 2.444010
v -4.304058 0.829144 2.444010
v -4.287091 0.812799 2.443631
v -4.287091 0.829144 2.443631
v -4.280652 0.812799 2.459631
v -4.280652 0.829144 2.459631
v -4.314942 0.812799 2.649195
v -4.314942 0.829144 2.649195
v -4.317587 0.812799 2.538402
v -4.278645 0.829144 2.537531
v -4.278645 0.812799 2.537531
v -4.317587 0.829144 2.538402
v -4.322850 0.812799 2.524592
v -4.322850 0.829144 2.524592
v -4.341392 0.812799 2.500235
v -4.341392 0.829144 2.500235
v -4.342076 0.812799 2.469631
v -4.342076 0.829144 2.469631
v -4.324641 0.812799 2.444470
v -4.324641 0.829144 2.444470
v -4.295746 0.812799 2.434363
v -4.295746 0.829144 2.434363
v -4.266429 0.812799 2.443169
v -4.266429 0.829144 2.443169
v -4.247888 0.812799 2.467526
v -4.247888 0.829144 2.467526
v -4.247203 0.812799 2.498130
v -4.247203 0.829144 2.498130
v -4.264638 0.812799 2.523290
v -4.264638 0.829144 2.523290
v -4.264328 0.812799 2.537211
v -4.322539 0.829144 2.538512
v -4.322539 0.812799 2.538512
v -4.264328 0.829144 2.537211
v -4.279005 0.829144 2.521413
v -4.279005 0.812799 2.521413
v -4.302694 0.812750 2.655272
v -4.294530 0.829188 2.654284
v -4.302694 0.829194 2.655272
v -4.297473 0.812799 2.521826
v -4.305817 0.829144 2.515851
v -4.297473 0.829144 2.521826
v -4.278647 0.825182 2.537532
v -4.297120 0.825182 2.537945
v -4.294532 0.825225 2.654284
v -4.278647 0.816762 2.537532
v -4.297120 0.816762 2.537945
v -4.294532 0.816718 2.654284
v -4.310859 0.829161 2.651220
v -4.313996 0.829144 2.516033
v -4.305314 0.823201 2.538128
v -4.302690 0.823251 2.655272
v -4.310855 0.823217 2.651221
v -4.313493 0.823201 2.538311
v -4.302695 0.819684 2.655273
v -4.294531 0.819690 2.654285
v -4.297119 0.819734 2.537946
v -4.305319 0.819734 2.538129
v -4.305856 0.812801 2.514086
v -4.297650 0.812801 2.513903
v -4.276478 0.825182 2.642105
v -4.276478 0.816762 2.642105
v -4.279679 0.825182 2.628928
v -4.279753 0.825182 2.625643
v -4.274521 0.825182 2.613890
v -4.274595 0.825182 2.610600
v -4.282881 0.825182 2.599063
v -4.282955 0.825182 2.595762
v -4.275140 0.825182 2.583859
v -4.275213 0.825182 2.580570
v -4.280532 0.825182 2.569189
v -4.280605 0.825182 2.565900
v -4.272458 0.825182 2.553907
v -4.272532 0.825182 2.550618
v -4.279753 0.816762 2.625643
v -4.279679 0.816762 2.628928
v -4.274595 0.816762 2.610600
v -4.274521 0.816762 2.613890
v -4.282955 0.816762 2.595762
v -4.282881 0.816762 2.599063
v -4.275213 0.816762 2.580570
v -4.275140 0.816762 2.583859
v -4.280605 0.816762 2.565900
v -4.280532 0.816762 2.569189
v -4.272532 0.816762 2.550618
v -4.272458 0.816762 2.553907
vt 0.345954 0.396517
vt 0.319100 0.382178
vt 0.345954 0.382178
vt 0.319100 0.396517
vt 0.292247 0.382179
vt 0.292247 0.396517
vt 0.265393 0.382179
vt 0.265393 0.396517
vt 0.238540 0.382179
vt 0.238540 0.396517
vt 0.211686 0.382179
vt 0.211686 0.396517
vt 0.184832 0.382179
vt 0.184832 0.396517
vt 0.157979 0.382179
vt 0.157979 0.396517
vt 0.131125 0.382179
vt 0.092204 0.382169
vt 0.106347 0.382179
vt 0.106345 0.385655
vt 0.362514 0.382178
vt 0.459734 0.396517
vt 0.362514 0.396517
vt 0.358169 0.377833
vt 0.460959 0.367063
vt 0.455389 0.377685
vt 0.293051 0.439380
vt 0.268229 0.425041
vt 0.293051 0.425041
vt 0.307938 0.425041
vt 0.358169 0.396517
vt 0.131125 0.396517
vt 0.118910 0.382179
vt 0.136254 0.366394
vt 0.124039 0.353831
vt 0.138182 0.353831
vt 0.124039 0.424865
vt 0.136254 0.412301
vt 0.138182 0.424865
vt 0.253099 0.439380
vt 0.268229 0.439380
vt 0.192399 0.328777
vt 0.136254 0.315316
vt 0.157979 0.299532
vt 0.192399 0.449919
vt 0.157979 0.479164
vt 0.136254 0.463380
vt 0.184832 0.479164
vt 0.206557 0.463380
vt 0.214856 0.340855
vt 0.206557 0.366395
vt 0.206557 0.348264
vt 0.214856 0.437841
vt 0.206557 0.445319
vt 0.192399 0.353598
vt 0.192399 0.425097
vt 0.206557 0.412301
vt 0.253099 0.425041
vt 0.238212 0.439380
vt 0.238212 0.425041
vt 0.184832 0.299532
vt 0.206557 0.315316
vt 0.358169 0.382178
vt 0.143586 0.455447
vt 0.143586 0.448270
vt 0.358169 0.400862
vt 0.457246 0.404551
vt 0.338622 0.404450
vt 0.478940 0.393081
vt 0.478941 0.396557
vt 0.471727 0.396561
vt 0.145134 0.337626
vt 0.460958 0.422059
vt 0.344027 0.429285
vt 0.338621 0.422086
vt 0.358168 0.360978
vt 0.460958 0.360980
vt 0.138182 0.441070
vt 0.123617 0.424867
vt 0.460254 0.429239
vt 0.358171 0.432760
vt 0.106347 0.396517
vt 0.092204 0.396527
vt 0.106345 0.393041
vt 0.138182 0.337626
vt 0.123617 0.353829
vt 0.123617 0.337620
vt 0.358164 0.409683
vt 0.358165 0.416861
vt 0.460956 0.416846
vt 0.337934 0.416860
vt 0.457241 0.409765
vt 0.358168 0.353783
vt 0.336212 0.360978
vt 0.336213 0.353777
vt 0.460252 0.353800
vt 0.471728 0.388218
vt 0.471732 0.391347
vt 0.463736 0.391317
vt 0.337074 0.367069
vt 0.358169 0.351176
vt 0.460252 0.351193
vt 0.344027 0.347693
vt 0.118910 0.396517
vt 0.072633 0.348910
vt 0.069737 0.348910
vt 0.021535 0.337609
vt 0.019255 0.385655
vt 0.030541 0.393041
vt 0.019255 0.393041
vt 0.498045 0.393050
vt 0.478942 0.388225
vt 0.123618 0.441075
vt 0.072633 0.429786
vt 0.095891 0.427140
vt 0.033428 0.385655
vt 0.045889 0.393041
vt 0.033428 0.393041
vt 0.048785 0.393041
vt 0.061276 0.385655
vt 0.061276 0.393041
vt 0.064162 0.385655
vt 0.075183 0.393041
vt 0.064162 0.393041
vt 0.078069 0.393041
vt 0.090787 0.385655
vt 0.090787 0.393041
vt 0.093673 0.385655
vt 0.093673 0.393041
vt 0.016373 0.385655
vt 0.030541 0.385655
vt 0.045889 0.385655
vt 0.048785 0.385655
vt 0.075183 0.385655
vt 0.078069 0.385655
vt 0.004478 0.385655
vt 0.016373 0.393041
vt 0.004478 0.393041
vt 0.463732 0.396531
vt 0.459734 0.382178
vt 0.471729 0.382135
vt 0.307938 0.439380
vt 0.124039 0.366395
vt 0.124039 0.412301
vt 0.206557 0.333377
vt 0.206557 0.430431
vt 0.455389 0.401010
vt 0.145134 0.330426
vt 0.460254 0.432715
vt 0.337933 0.409683
vt 0.337075 0.347690
vt 0.112020 0.358936
vt 0.098777 0.351556
vt 0.109134 0.358936
vt 0.043482 0.351133
vt 0.031862 0.353682
vt 0.059456 0.355951
vt 0.056569 0.355951
vt 0.046364 0.351133
vt 0.095891 0.351556
vt 0.085805 0.355997
vt 0.082919 0.355997
vt 0.478943 0.385618
vt 0.498048 0.385664
vt 0.112020 0.419760
vt 0.021534 0.441087
vt 0.031861 0.425015
vt 0.043480 0.427564
vt 0.046362 0.427564
vt 0.056568 0.422745
vt 0.069735 0.429786
vt 0.059454 0.422745
vt 0.109134 0.419760
vt 0.098777 0.427140
vt 0.082919 0.422699
vt 0.085805 0.422699
vn -0.7957 0.0000 0.6057
vn -0.9998 0.0000 0.0224
vn -0.8219 0.0000 -0.5696
vn -0.3302 0.0000 -0.9439
vn 0.2877 0.0000 -0.9577
vn 0.7957 0.0000 -0.6057
vn 0.9998 0.0000 -0.0224
vn 0.8219 0.0000 0.5696
vn -0.9998 -0.0007 0.0223
vn -0.9997 0.0000 0.0239
vn -0.0041 -1.0000 0.0001
vn -0.0223 0.0000 -0.9998
vn 0.9577 0.0000 0.2877
vn -0.9998 0.0000 0.0223
vn 0.9998 0.0000 -0.0223
vn 0.0000 -1.0000 0.0000
vn 0.0000 1.0000 0.0000
vn -0.9277 0.0000 0.3734
vn 0.0223 0.0000 0.9998
vn 0.0224 0.0000 0.9997
vn -0.0007 1.0000 -0.0001
vn 0.1202 0.0000 0.9928
vn 0.0003 1.0000 -0.0004
vn 0.9997 0.0001 -0.0224
vn 0.0053 0.9711 0.2386
vn 0.9998 -0.0014 -0.0222
vn -0.9998 0.0007 0.0223
vn 0.0053 -0.9711 0.2386
vn 0.9997 -0.0024 -0.0232
vn -0.9997 -0.0005 0.0224
vn 0.0058 0.9662 0.2577
vn -0.0039 1.0000 -0.0003
vn 0.0062 -0.9609 0.2769
vn -0.0000 -1.0000 -0.0004
vn -0.4445 0.0008 0.8958
vn 0.0001 -1.0000 -0.0000
vn -0.9998 0.0005 0.0222
vn -0.9998 0.0003 0.0219
vn 0.0034 -1.0000 -0.0000
vn 0.9136 0.0000 0.4066
vn 0.5592 0.0003 0.8290
vn 0.8123 0.0000 -0.5833
vn 0.8359 0.0000 0.5488
vn 0.9060 0.0000 -0.4233
vn 0.8272 0.0000 0.5619
vn 0.9060 0.0000 -0.4234
vn 0.9997 0.0000 -0.0225
vn 0.9997 0.0000 -0.0224
vn 0.9717 0.0000 -0.2361
vn -0.4445 -0.0002 0.8958
vn -0.4445 0.0002 0.8958
vn 0.1202 0.0002 0.9928
vn 0.1201 0.0001 0.9928
vn -0.4449 -0.0003 0.8956
vn -0.0006 -1.0000 -0.0004
vn -0.0041 1.0000 0.0001
vn -0.0000 -1.0000 -0.0002
vn -0.0001 -1.0000 0.0000
vn 0.0007 1.0000 -0.0003
vn 0.9997 0.0003 -0.0224
vn 0.9998 -0.0004 -0.0222
vn 0.9997 0.0006 -0.0234
vn -0.9997 -0.0008 0.0224
vn 0.0057 0.9662 0.2577
vn -0.0000 1.0000 -0.0001
vn 0.0007 -1.0000 -0.0004
vn -0.9998 0.0001 0.0222
vn 0.0224 -0.0001 0.9998
vn 0.0224 0.0001 0.9998
vn 0.0017 -1.0000 -0.0004
vn 0.0021 -1.0000 -0.0005
vn 0.0028 -1.0000 -0.0001
vn 0.0024 -1.0000 -0.0003
vn 0.5593 -0.0006 0.8290
vn 0.5593 0.0000 0.8290
vn 0.0021 1.0000 -0.0005
vn 0.0028 1.0000 -0.0001
vn 0.0017 1.0000 -0.0004
vn 0.0024 1.0000 -0.0003
vn 0.0034 1.0000 -0.0001
vn 0.8359 0.0000 0.5489
vn -0.4441 0.0000 0.8960
g Key_1_Key_Keys
usemtl Keys
s off
f 16/1/1 17/2/1 15/3/1
f 18/4/2 19/5/2 17/2/2
f 20/6/3 21/7/3 19/5/3
f 22/8/4 23/9/4 21/7/4
f 24/10/5 25/11/5 23/9/5
f 26/12/6 27/13/6 25/11/6
f 28/14/7 29/15/7 27/13/7
f 30/16/8 31/17/8 29/15/8
f 38/18/9 13/19/9 48/20/9
f 11/21/10 10/22/10 14/23/10
f 11/24/11 39/25/11 9/26/11
f 2/27/12 7/28/12 1/29/12
f 3/30/13 2/27/13 1/29/13
f 15/3/14 34/31/14 16/1/14
f 32/32/15 33/33/15 31/17/15
f 31/34/16 13/35/16 38/36/16
f 12/37/17 32/38/17 37/39/17
f 6/40/18 7/28/18 8/41/18
f 1/42/16 15/43/16 17/44/16
f 2/45/17 18/46/17 16/47/17
f 20/48/17 2/45/17 22/49/17
f 23/50/16 25/51/16 5/52/16
f 24/53/17 22/49/17 4/54/17
f 27/13/16 7/55/16 25/51/16
f 8/56/17 28/14/17 26/57/17
f 7/55/16 29/15/16 31/34/16
f 8/56/17 32/38/17 30/16/17
f 5/58/19 4/59/19 3/60/19
f 1/42/16 19/61/16 21/62/16
f 14/23/20 35/63/20 11/21/20
f 2/45/17 52/64/17 43/65/17
f 14/66/21 51/67/21 52/68/21
f 47/69/22 40/70/22 41/71/22
f 1/42/16 7/55/16 62/72/16
f 41/73/23 44/74/23 43/75/23
f 39/25/24 60/76/24 57/77/24
f 44/78/25 45/79/25 37/39/25
f 40/80/26 46/81/26 44/74/26
f 12/82/27 37/83/27 45/84/27
f 42/85/28 48/86/28 49/87/28
f 51/67/29 56/88/29 52/68/29
f 41/73/30 53/89/30 54/90/30
f 43/91/31 56/88/31 53/89/31
f 53/89/32 55/92/32 54/90/32
f 16/1/17 14/66/17 52/68/17
f 59/93/33 61/94/33 62/95/33
f 58/96/34 60/76/34 59/93/34
f 57/97/35 54/98/35 55/99/35
f 11/24/36 15/3/36 61/100/36
f 58/96/37 49/101/37 50/102/37
f 59/93/38 42/103/38 49/101/38
f 45/84/20 48/20/20 36/104/20
f 81/105/39 82/106/39 50/107/39
f 77/108/40 67/109/40 66/110/40
f 63/111/41 47/69/41 58/112/41
f 46/113/17 70/114/17 73/115/17
f 79/116/42 69/117/42 68/118/42
f 70/119/43 84/120/43 71/121/43
f 83/122/44 73/123/44 72/124/44
f 74/125/45 88/126/45 75/127/45
f 87/128/46 45/84/46 76/129/46
f 66/110/7 78/130/7 77/108/7
f 68/118/47 80/131/47 79/116/47
f 70/119/48 82/132/48 81/133/48
f 72/124/15 84/120/15 83/122/15
f 74/125/15 86/134/15 85/135/15
f 76/129/47 88/126/47 87/128/47
f 64/136/49 65/137/49 63/138/49
f 10/22/50 55/99/50 51/139/50
f 9/140/51 39/141/51 55/99/51
f 58/112/52 47/69/52 54/98/52
f 57/97/53 58/112/53 54/98/53
f 39/141/54 57/97/54 55/99/54
f 54/98/52 47/69/52 41/71/52
f 16/1/1 18/4/1 17/2/1
f 18/4/2 20/6/2 19/5/2
f 20/6/3 22/8/3 21/7/3
f 22/8/4 24/10/4 23/9/4
f 24/10/5 26/12/5 25/11/5
f 26/12/6 28/14/6 27/13/6
f 28/14/7 30/16/7 29/15/7
f 30/16/8 32/32/8 31/17/8
f 11/21/10 9/140/10 10/22/10
f 11/24/55 61/100/55 39/25/55
f 2/27/12 8/41/12 7/28/12
f 3/30/13 4/142/13 2/27/13
f 15/3/14 35/63/14 34/31/14
f 32/32/15 36/104/15 33/33/15
f 31/34/16 33/143/16 13/35/16
f 12/37/17 36/144/17 32/38/17
f 6/40/18 5/58/18 7/28/18
f 18/46/17 2/45/17 20/48/17
f 2/45/17 4/54/17 22/49/17
f 5/52/16 3/145/16 23/50/16
f 3/145/16 21/62/16 23/50/16
f 4/54/17 6/146/17 24/53/17
f 6/146/17 26/57/17 24/53/17
f 29/15/16 7/55/16 27/13/16
f 7/55/16 5/52/16 25/51/16
f 26/57/17 6/146/17 8/56/17
f 8/56/17 30/16/17 28/14/17
f 5/58/19 6/40/19 4/59/19
f 21/62/16 3/145/16 1/42/16
f 1/42/16 17/44/16 19/61/16
f 14/23/19 34/31/19 35/63/19
f 32/38/17 8/56/17 37/39/17
f 8/56/17 2/45/17 43/65/17
f 37/39/17 8/56/17 43/65/17
f 2/45/17 16/47/17 52/64/17
f 43/65/17 44/78/17 37/39/17
f 14/66/56 10/147/56 51/67/56
f 38/36/57 42/85/57 62/72/57
f 61/148/36 15/43/36 1/42/36
f 31/34/16 38/36/16 7/55/16
f 38/36/58 62/72/58 7/55/58
f 62/72/16 61/148/16 1/42/16
f 41/73/59 40/80/59 44/74/59
f 39/25/60 61/100/60 60/76/60
f 44/78/25 46/113/25 45/79/25
f 40/80/61 47/149/61 46/81/61
f 42/85/28 38/36/28 48/86/28
f 51/67/62 55/92/62 56/88/62
f 41/73/63 43/75/63 53/89/63
f 43/91/64 52/150/64 56/88/64
f 53/89/65 56/88/65 55/92/65
f 16/1/17 34/31/17 14/66/17
f 59/93/33 60/76/33 61/94/33
f 58/96/66 57/77/66 60/76/66
f 11/24/16 35/63/16 15/3/16
f 58/96/67 59/93/67 49/101/67
f 59/93/9 62/151/9 42/103/9
f 13/19/68 33/33/68 48/20/68
f 33/33/20 36/104/20 48/20/20
f 36/104/69 12/82/69 45/84/69
f 50/107/70 49/87/70 81/105/70
f 49/87/16 48/86/16 87/152/16
f 85/153/16 49/87/16 87/152/16
f 87/152/16 88/154/16 85/153/16
f 78/155/71 64/156/71 50/107/71
f 79/157/16 80/158/16 82/106/16
f 80/158/16 77/159/16 82/106/16
f 77/159/72 78/155/72 50/107/72
f 49/87/16 85/153/16 86/160/16
f 86/160/16 83/161/16 81/105/16
f 83/161/16 84/162/16 81/105/16
f 49/87/16 86/160/16 81/105/16
f 77/159/73 50/107/73 82/106/73
f 77/108/40 80/131/40 67/109/40
f 50/163/74 64/164/74 58/112/74
f 64/164/75 63/111/75 58/112/75
f 76/165/17 45/79/17 46/113/17
f 47/166/76 63/167/76 65/168/76
f 66/169/17 67/170/17 69/171/17
f 67/170/17 68/172/17 69/171/17
f 47/166/77 65/168/77 66/169/77
f 75/173/17 76/165/17 74/174/17
f 76/165/17 46/113/17 74/174/17
f 46/113/78 47/166/78 70/114/78
f 47/166/79 66/169/79 69/171/79
f 70/114/17 71/175/17 72/176/17
f 47/166/80 69/171/80 70/114/80
f 70/114/17 72/176/17 73/115/17
f 73/115/17 74/174/17 46/113/17
f 79/116/42 82/132/42 69/117/42
f 70/119/81 81/133/81 84/120/81
f 83/122/46 86/134/46 73/123/46
f 74/125/45 85/135/45 88/126/45
f 87/128/46 48/20/46 45/84/46
f 66/110/7 65/137/7 78/130/7
f 68/118/47 67/109/47 80/131/47
f 70/119/48 69/117/48 82/132/48
f 72/124/15 71/121/15 84/120/15
f 74/125/15 73/123/15 86/134/15
f 76/129/47 75/127/47 88/126/47
f 64/136/49 78/130/49 65/137/49
f 10/22/82 9/140/82 55/99/82
