# Blender v2.93.6 OBJ File: 'Resonance Levels.blend'
# www.blender.org
mtllib Key 2.mtl
v 1.372106 0.926783 -16.015350
v 1.421749 0.926783 -16.107414
v 1.388383 0.926783 -16.006607
v 1.443460 0.926826 -16.109116
v 1.372106 0.918362 -16.015350
v 1.421749 0.918362 -16.107414
v 1.388383 0.918362 -16.006607
v 1.443460 0.918319 -16.109116
v 1.443459 0.921291 -16.109118
v 1.412883 0.926783 -16.097139
v 1.411328 0.926783 -16.094244
v 1.410894 0.926783 -16.081127
v 1.409339 0.926783 -16.078232
v 1.401608 0.926783 -16.069273
v 1.400053 0.926783 -16.066378
v 1.399346 0.926783 -16.053556
v 1.397789 0.926783 -16.050659
v 1.384426 0.926783 -16.044350
v 1.382890 0.926783 -16.041491
v 1.379963 0.926783 -16.029932
v 1.411328 0.918362 -16.094244
v 1.412883 0.918362 -16.097139
v 1.409339 0.918362 -16.078232
v 1.410894 0.918362 -16.081127
v 1.400053 0.918362 -16.066378
v 1.401608 0.918362 -16.069273
v 1.397789 0.918362 -16.050659
v 1.399346 0.918362 -16.053556
v 1.382890 0.918362 -16.041491
v 1.384426 0.918362 -16.044350
v 1.379963 0.918362 -16.029932
v 1.360389 0.914400 -15.933186
v 1.360389 0.930745 -15.933186
v 1.348132 0.914400 -15.921449
v 1.348132 0.930745 -15.921449
v 1.333182 0.914400 -15.929480
v 1.333182 0.930745 -15.929480
v 1.335463 0.914400 -15.946575
v 1.335463 0.930745 -15.946575
v 1.458711 0.914400 -16.094629
v 1.458711 0.930745 -16.094629
v 1.406418 0.914400 -15.996918
v 1.372103 0.930745 -16.015350
v 1.372103 0.914400 -16.015350
v 1.406418 0.930745 -15.996918
v 1.404192 0.914400 -15.982307
v 1.404192 0.930745 -15.982307
v 1.408325 0.914400 -15.951977
v 1.408325 0.930745 -15.951977
v 1.393839 0.914400 -15.925010
v 1.393839 0.930745 -15.925010
v 1.366270 0.914400 -15.911707
v 1.366270 0.930745 -15.911707
v 1.336146 0.914400 -15.917150
v 1.336146 0.930745 -15.917150
v 1.314975 0.914400 -15.939260
v 1.314975 0.930745 -15.939260
v 1.310843 0.914400 -15.969590
v 1.310843 0.930745 -15.969590
v 1.325328 0.914400 -15.996557
v 1.325328 0.930745 -15.996557
v 1.352898 0.914400 -16.009861
v 1.352898 0.930745 -16.009861
v 1.359487 0.914400 -16.022127
v 1.410781 0.930745 -15.994575
v 1.410781 0.914400 -15.994575
v 1.359487 0.930745 -16.022127
v 1.364474 0.930745 -16.001146
v 1.364474 0.914400 -16.001146
v 1.451048 0.914350 -16.105953
v 1.443457 0.930789 -16.109116
v 1.451048 0.930795 -16.105953
v 1.380748 0.914400 -15.992406
v 1.385064 0.930745 -15.983095
v 1.380748 0.930745 -15.992406
v 1.456157 0.930762 -16.098404
v 1.392271 0.930745 -15.979224
v 1.395603 0.924801 -16.002728
v 1.451045 0.924851 -16.105955
v 1.456154 0.924818 -16.098406
v 1.402811 0.924801 -15.998857
v 1.451050 0.921284 -16.105953
v 1.388382 0.921334 -16.006607
v 1.395608 0.921334 -16.002726
v 1.384229 0.914402 -15.981541
v 1.376998 0.914402 -15.985424
vt 0.579948 0.217285
vt 0.577035 0.217285
vt 0.618243 0.206167
vt 0.517446 0.254640
vt 0.529066 0.262094
vt 0.517446 0.262094
vt 0.600813 0.254640
vt 0.586150 0.262094
vt 0.586150 0.254640
vt 0.996091 0.262104
vt 0.976812 0.262135
vt 0.976814 0.257234
vt 0.577035 0.299449
vt 0.515227 0.310579
vt 0.553606 0.296906
vt 0.531975 0.254640
vt 0.542450 0.262094
vt 0.531975 0.262094
vt 0.545359 0.254640
vt 0.556726 0.262094
vt 0.545359 0.262094
vt 0.559639 0.262094
vt 0.572721 0.254640
vt 0.572721 0.262094
vt 0.575594 0.254640
vt 0.575594 0.262094
vt 0.514537 0.254640
vt 0.529065 0.254640
vt 0.542450 0.254640
vt 0.556726 0.254640
vt 0.559639 0.254640
vt 0.502524 0.262094
vt 0.514537 0.262094
vt 0.842611 0.265602
vt 0.815512 0.251132
vt 0.842611 0.251132
vt 0.815512 0.265602
vt 0.788413 0.251132
vt 0.788413 0.265602
vt 0.761314 0.251132
vt 0.761314 0.265602
vt 0.734216 0.251132
vt 0.734216 0.265602
vt 0.707117 0.251132
vt 0.707117 0.265602
vt 0.680018 0.251132
vt 0.680018 0.265602
vt 0.652919 0.251132
vt 0.652919 0.265602
vt 0.625820 0.251132
vt 0.586543 0.251120
vt 0.600815 0.251132
vt 0.859323 0.251132
vt 0.957431 0.265602
vt 0.859323 0.265602
vt 0.854938 0.246748
vt 0.958667 0.235879
vt 0.953046 0.246598
vt 0.791617 0.313677
vt 0.766568 0.299207
vt 0.791617 0.299207
vt 0.806640 0.299207
vt 0.854938 0.265602
vt 0.625820 0.265602
vt 0.613493 0.251132
vt 0.630996 0.235204
vt 0.618669 0.222526
vt 0.632941 0.222526
vt 0.618669 0.294208
vt 0.630996 0.281530
vt 0.632941 0.294208
vt 0.751300 0.313677
vt 0.766568 0.313677
vt 0.687653 0.197242
vt 0.630995 0.183659
vt 0.652919 0.167730
vt 0.687653 0.319492
vt 0.652919 0.349003
vt 0.630996 0.333075
vt 0.680018 0.349004
vt 0.701941 0.333075
vt 0.710315 0.209431
vt 0.701941 0.235204
vt 0.701941 0.216908
vt 0.710315 0.307303
vt 0.701941 0.314849
vt 0.687653 0.222291
vt 0.687653 0.294443
vt 0.701941 0.281530
vt 0.751300 0.299207
vt 0.736277 0.313677
vt 0.736277 0.299207
vt 0.680018 0.167730
vt 0.701941 0.183659
vt 0.854938 0.251132
vt 0.638395 0.325069
vt 0.638395 0.317827
vt 0.854938 0.269986
vt 0.954919 0.273709
vt 0.835212 0.273607
vt 0.976813 0.265642
vt 0.969533 0.265646
vt 0.639957 0.206173
vt 0.958666 0.291378
vt 0.840666 0.298669
vt 0.835211 0.291404
vt 0.854937 0.229739
vt 0.958666 0.229740
vt 0.632941 0.310561
vt 0.618243 0.294210
vt 0.957955 0.298623
vt 0.854939 0.302176
vt 0.600815 0.265602
vt 0.586543 0.265614
vt 0.600813 0.262094
vt 0.632941 0.206173
vt 0.618243 0.222524
vt 0.854933 0.278888
vt 0.854934 0.286131
vt 0.958663 0.286116
vt 0.834518 0.286130
vt 0.954915 0.278971
vt 0.854937 0.222477
vt 0.832780 0.229738
vt 0.832780 0.222471
vt 0.957954 0.222495
vt 0.969534 0.257227
vt 0.969538 0.260384
vt 0.961469 0.260355
vt 0.833650 0.235885
vt 0.854938 0.219846
vt 0.957954 0.219864
vt 0.840666 0.216331
vt 0.613493 0.265602
vt 0.961465 0.265616
vt 0.957431 0.251132
vt 0.969535 0.251088
vt 0.515227 0.206155
vt 0.603579 0.222505
vt 0.593339 0.225064
vt 0.590465 0.225064
vt 0.537375 0.224985
vt 0.525649 0.222375
vt 0.550697 0.219828
vt 0.540284 0.224985
vt 0.566740 0.222104
vt 0.563831 0.222104
vt 0.553606 0.219828
vt 0.976815 0.254604
vt 0.996094 0.254650
vt 0.603579 0.294229
vt 0.618243 0.310567
vt 0.525649 0.294360
vt 0.537375 0.291749
vt 0.550697 0.296906
vt 0.540284 0.291749
vt 0.593339 0.291670
vt 0.579948 0.299449
vt 0.590465 0.291670
vt 0.563831 0.294630
vt 0.566740 0.294630
vt 0.502524 0.254640
vt 0.806640 0.313677
vt 0.618669 0.235204
vt 0.618669 0.281530
vt 0.701941 0.201885
vt 0.701941 0.299826
vt 0.953046 0.270136
vt 0.639957 0.198906
vt 0.957956 0.302131
vt 0.834517 0.278888
vt 0.833649 0.216328
vn 0.0000 -1.0000 0.0000
vn -0.9995 0.0000 -0.0331
vn -0.8804 0.0000 -0.4742
vn -0.0781 0.0004 -0.9969
vn -0.0020 1.0000 -0.0008
vn -0.7571 0.0000 -0.6533
vn -0.9985 0.0000 -0.0551
vn -0.4270 0.0000 -0.9042
vn -0.9694 0.0000 -0.2455
vn -0.8810 0.0000 -0.4732
vn -0.8810 0.0000 -0.4731
vn -0.8808 0.0000 -0.4736
vn -0.7570 0.0000 -0.6534
vn 0.9908 0.0000 -0.1350
vn 0.8810 0.0000 0.4732
vn 0.4346 0.0000 0.9006
vn -0.1779 0.0000 0.9841
vn -0.7223 0.0000 0.6916
vn -0.9908 0.0000 0.1350
vn -0.4345 0.0000 -0.9007
vn 0.8810 -0.0006 0.4731
vn 0.8817 0.0000 0.4719
vn 0.0036 -1.0000 0.0019
vn -0.4732 0.0000 0.8809
vn -0.6917 0.0000 -0.7222
vn 0.0000 1.0000 0.0000
vn 0.9912 0.0000 0.1322
vn 0.4733 0.0000 -0.8809
vn 0.4734 0.0000 -0.8809
vn 0.0005 1.0000 0.0004
vn 0.3843 0.0003 -0.9232
vn -0.0004 1.0000 0.0002
vn -0.8810 0.0002 -0.4732
vn 0.1129 0.9711 -0.2102
vn -0.8809 -0.0011 -0.4733
vn 0.8810 0.0006 0.4731
vn 0.1129 -0.9711 -0.2102
vn -0.8813 -0.0025 -0.4725
vn 0.8810 -0.0006 0.4732
vn 0.1219 0.9662 -0.2271
vn 0.0032 1.0000 0.0022
vn 0.1311 -0.9609 -0.2440
vn -0.0002 -1.0000 0.0003
vn 0.8281 0.0009 -0.5606
vn -0.0001 -1.0000 -0.0000
vn 0.8809 0.0004 0.4733
vn 0.8808 0.0002 0.4735
vn 0.4732 0.0000 -0.8810
vn 0.8281 -0.0003 -0.5606
vn 0.8283 0.0001 -0.5603
vn 0.3845 0.0003 -0.9231
vn 0.3848 0.0001 -0.9230
vn 0.8283 -0.0002 -0.5603
vn 0.3849 0.0001 -0.9229
vn -0.0014 -1.0000 -0.0003
vn -0.0021 -1.0000 -0.0018
vn -0.0015 -1.0000 -0.0002
vn -0.0025 -1.0000 -0.0013
vn -0.0020 -1.0000 -0.0008
vn -0.8803 0.0000 -0.4744
vn -0.0782 -0.0007 -0.9969
vn -0.0781 0.0000 -0.9969
vn -0.0014 1.0000 -0.0003
vn -0.0021 1.0000 -0.0019
vn -0.0015 1.0000 -0.0002
vn -0.0025 1.0000 -0.0013
vn -0.9694 0.0000 -0.2456
vn -0.7572 0.0000 -0.6531
vn -0.1777 0.0000 0.9841
vn -0.4347 0.0000 -0.9006
vn 0.8817 0.0000 0.4718
vn 0.0003 -1.0000 0.0006
vn -0.4731 0.0000 0.8810
vn -0.6916 0.0000 -0.7223
vn 0.8809 0.0000 0.4733
vn 0.9912 0.0000 0.1323
vn 0.0036 1.0000 0.0020
vn -0.0001 -1.0000 0.0002
vn -0.0001 -1.0000 -0.0001
vn 0.0001 -1.0000 0.0000
vn -0.0008 1.0000 -0.0001
vn -0.8810 0.0002 -0.4731
vn -0.8809 -0.0005 -0.4733
vn -0.8814 0.0006 -0.4723
vn 0.8810 -0.0007 0.4732
vn 0.1219 0.9662 -0.2270
vn -0.0001 1.0000 0.0001
vn -0.0008 -1.0000 0.0000
vn 0.8809 0.0003 0.4733
vn 0.8809 -0.0009 0.4733
vn 0.4730 -0.0003 -0.8811
vn 0.4730 0.0003 -0.8811
vn 0.8280 0.0000 -0.5608
g Key_2_Key.001_Keys
usemtl Keys
s off
f 27/1/1 28/2/1 7/3/1
f 21/4/2 12/5/2 11/6/2
f 5/7/3 20/8/3 31/9/3
f 2/10/4 4/11/4 9/12/4
f 16/13/5 4/14/5 13/15/5
f 23/16/6 14/17/6 13/18/6
f 25/19/7 16/20/7 15/21/7
f 17/22/8 30/23/8 18/24/8
f 29/25/9 20/8/9 19/26/9
f 11/6/10 22/27/10 21/4/10
f 13/18/10 24/28/10 23/16/10
f 15/21/10 26/29/10 25/19/10
f 17/22/11 28/30/11 27/31/11
f 19/26/12 30/23/12 29/25/12
f 2/32/13 22/27/13 10/33/13
f 47/34/14 48/35/14 46/36/14
f 49/37/15 50/38/15 48/35/15
f 51/39/16 52/40/16 50/38/16
f 53/41/17 54/42/17 52/40/17
f 55/43/18 56/44/18 54/42/18
f 57/45/19 58/46/19 56/44/19
f 59/47/10 60/48/10 58/46/10
f 61/49/20 62/50/20 60/48/20
f 69/51/21 44/52/21 5/7/21
f 42/53/22 41/54/22 45/55/22
f 42/56/23 70/57/23 40/58/23
f 33/59/24 38/60/24 32/61/24
f 34/62/25 33/59/25 32/61/25
f 46/36/15 65/63/15 47/34/15
f 63/64/10 64/65/10 62/50/10
f 62/66/1 44/67/1 69/68/1
f 43/69/26 63/70/26 68/71/26
f 37/72/27 38/60/27 39/73/27
f 32/74/1 46/75/1 48/76/1
f 33/77/26 49/78/26 47/79/26
f 51/80/26 33/77/26 53/81/26
f 54/82/1 56/83/1 36/84/1
f 55/85/26 53/81/26 35/86/26
f 58/46/1 38/87/1 56/83/1
f 39/88/26 59/47/26 57/89/26
f 38/87/1 60/48/1 62/66/1
f 39/88/26 63/70/26 61/49/26
f 36/90/28 35/91/28 34/92/28
f 32/74/1 50/93/1 52/94/1
f 45/55/29 66/95/29 42/53/29
f 33/77/26 77/96/26 74/97/26
f 45/98/30 76/99/30 77/100/30
f 4/11/31 71/101/31 72/102/31
f 32/74/1 38/87/1 86/103/1
f 72/104/32 75/105/32 74/106/32
f 70/57/33 84/107/33 82/108/33
f 75/109/34 1/110/34 68/71/34
f 71/111/35 3/112/35 75/105/35
f 43/113/36 68/114/36 1/115/36
f 73/116/37 5/117/37 7/3/37
f 76/99/38 81/118/38 77/100/38
f 72/104/39 78/119/39 79/120/39
f 74/121/40 81/118/40 78/119/40
f 78/119/41 80/122/41 79/120/41
f 47/34/26 45/98/26 77/100/26
f 83/123/42 85/124/42 86/125/42
f 9/126/43 84/107/43 83/123/43
f 82/127/44 79/128/44 80/129/44
f 42/56/45 46/36/45 85/130/45
f 9/126/46 7/131/46 8/132/46
f 83/123/47 73/133/47 7/131/47
f 1/115/48 5/7/48 67/134/48
f 41/54/49 80/129/49 76/135/49
f 40/136/50 70/137/50 80/129/50
f 9/12/51 4/11/51 79/128/51
f 82/127/52 9/12/52 79/128/52
f 70/137/53 82/127/53 80/129/53
f 79/128/54 4/11/54 72/102/54
f 8/138/55 7/3/55 28/2/55
f 7/3/1 5/117/1 31/139/1
f 27/1/1 7/3/1 31/139/1
f 31/139/1 29/140/1 27/1/1
f 29/140/1 30/141/1 27/1/1
f 22/142/56 6/143/56 8/138/56
f 24/144/1 21/145/1 22/142/1
f 25/146/1 26/147/1 28/2/1
f 26/147/1 23/148/1 28/2/1
f 24/144/57 22/142/57 8/138/57
f 23/148/58 24/144/58 8/138/58
f 28/2/59 23/148/59 8/138/59
f 21/4/2 24/28/2 12/5/2
f 5/7/60 1/115/60 20/8/60
f 8/149/61 6/150/61 9/12/61
f 6/150/62 2/10/62 9/12/62
f 20/151/26 1/110/26 3/152/26
f 3/152/63 4/14/63 16/13/63
f 4/14/64 2/153/64 10/154/64
f 12/155/65 4/14/65 10/154/65
f 10/154/26 11/156/26 12/155/26
f 19/157/26 20/151/26 17/158/26
f 20/151/26 3/152/26 17/158/26
f 17/158/26 18/159/26 19/157/26
f 14/160/26 15/161/26 16/13/26
f 13/15/26 14/160/26 16/13/26
f 16/13/26 17/158/26 3/152/26
f 4/14/66 12/155/66 13/15/66
f 23/16/6 26/29/6 14/17/6
f 25/19/7 28/30/7 16/20/7
f 17/22/8 27/31/8 30/23/8
f 29/25/67 31/9/67 20/8/67
f 11/6/10 10/33/10 22/27/10
f 13/18/10 12/5/10 24/28/10
f 15/21/10 14/17/10 26/29/10
f 17/22/12 16/20/12 28/30/12
f 19/26/11 18/24/11 30/23/11
f 2/32/68 6/162/68 22/27/68
f 47/34/14 49/37/14 48/35/14
f 49/37/15 51/39/15 50/38/15
f 51/39/16 53/41/16 52/40/16
f 53/41/69 55/43/69 54/42/69
f 55/43/18 57/45/18 56/44/18
f 57/45/19 59/47/19 58/46/19
f 59/47/10 61/49/10 60/48/10
f 61/49/70 63/64/70 62/50/70
f 42/53/71 40/136/71 41/54/71
f 42/56/72 85/130/72 70/57/72
f 33/59/73 39/73/73 38/60/73
f 34/62/74 35/163/74 33/59/74
f 46/36/75 66/95/75 65/63/75
f 63/64/10 67/134/10 64/65/10
f 62/66/1 64/164/1 44/67/1
f 43/69/26 67/165/26 63/70/26
f 37/72/76 36/90/76 38/60/76
f 49/78/26 33/77/26 51/80/26
f 33/77/26 35/86/26 53/81/26
f 36/84/1 34/166/1 54/82/1
f 34/166/1 52/94/1 54/82/1
f 35/86/26 37/167/26 55/85/26
f 37/167/26 57/89/26 55/85/26
f 60/48/1 38/87/1 58/46/1
f 38/87/1 36/84/1 56/83/1
f 57/89/26 37/167/26 39/88/26
f 39/88/26 61/49/26 59/47/26
f 36/90/48 37/72/48 35/91/48
f 52/94/1 34/166/1 32/74/1
f 32/74/1 48/76/1 50/93/1
f 45/55/29 65/63/29 66/95/29
f 63/70/26 39/88/26 68/71/26
f 39/88/26 33/77/26 74/97/26
f 68/71/26 39/88/26 74/97/26
f 33/77/26 47/79/26 77/96/26
f 74/97/26 75/109/26 68/71/26
f 45/98/77 41/168/77 76/99/77
f 69/68/78 73/116/78 86/103/78
f 85/169/79 46/75/79 32/74/79
f 62/66/1 69/68/1 38/87/1
f 69/68/80 86/103/80 38/87/80
f 86/103/1 85/169/1 32/74/1
f 72/104/81 71/111/81 75/105/81
f 70/57/82 85/130/82 84/107/82
f 75/109/34 3/152/34 1/110/34
f 71/111/83 4/170/83 3/112/83
f 73/116/37 69/68/37 5/117/37
f 76/99/84 80/122/84 81/118/84
f 72/104/85 74/106/85 78/119/85
f 74/121/86 77/171/86 81/118/86
f 78/119/87 81/118/87 80/122/87
f 47/34/26 65/63/26 45/98/26
f 83/123/42 84/107/42 85/124/42
f 9/126/88 82/108/88 84/107/88
f 42/56/1 66/95/1 46/36/1
f 9/126/89 83/123/89 7/131/89
f 83/123/90 86/172/90 73/133/90
f 44/52/91 64/65/91 5/7/91
f 64/65/29 67/134/29 5/7/29
f 67/134/92 43/113/92 1/115/92
f 41/54/93 40/136/93 80/129/93
