# Blender v2.93.6 OBJ File: 'Resonance Levels.blend'
# www.blender.org
mtllib Orange Door.mtl
v 0.015240 0.731520 -0.137160
v 0.015240 0.944880 -0.137160
v 0.899160 0.731520 -0.137160
v 0.899160 0.944880 -0.137160
v 0.914400 0.228600 -0.091440
v 0.914400 0.228600 0.000000
v 0.914400 1.752600 0.000000
v 0.914400 1.752600 -0.091440
v -0.000000 1.752600 -0.091440
v -0.000000 0.228600 -0.091440
v -0.000000 0.228600 0.000000
v -0.000000 1.752600 0.000000
v 0.326364 0.902039 -0.208280
v 0.315939 0.873397 -0.208280
v 0.521039 0.969037 -0.208280
v 0.492397 0.979461 -0.208280
v 0.598461 0.803004 0.116840
v 0.588036 0.774362 0.116840
v 0.492397 0.979461 0.116840
v 0.521039 0.969037 0.116840
v 0.588036 0.774362 0.147320
v 0.598461 0.803004 0.147320
v 0.521039 0.969037 0.147320
v 0.492397 0.979461 0.147320
v 0.315939 0.873397 -0.238760
v 0.326364 0.902039 -0.238760
v 0.496267 0.856417 -0.241808
v 0.492397 0.979461 -0.238760
v 0.521039 0.969037 -0.238760
v 0.475417 0.799134 -0.241808
v 0.496267 0.856417 0.150368
v 0.475417 0.799134 0.150368
v 0.315939 0.873397 0.147320
v 0.326364 0.902039 0.147320
v 0.422003 0.696939 0.147320
v 0.393362 0.707364 0.147320
v 0.588036 0.774362 -0.238760
v 0.598461 0.803004 -0.238760
v 0.393362 0.707364 -0.238760
v 0.422003 0.696939 -0.238760
v 0.588036 0.774362 -0.208280
v 0.598461 0.803004 -0.208280
v 0.422003 0.696939 0.116840
v 0.393362 0.707364 0.116840
v 0.315939 0.873397 0.116840
v 0.326364 0.902039 0.116840
v 0.393362 0.707364 -0.208280
v 0.422003 0.696939 -0.208280
v 0.606629 0.825127 0.153416
v 0.580073 0.752164 0.153416
v 0.307771 0.851274 0.153416
v 0.334327 0.924237 0.153416
v 0.444127 0.688771 0.153416
v 0.371164 0.715328 0.153416
v 0.470274 0.987630 0.153416
v 0.543237 0.961073 0.153416
v 0.580073 0.752164 -0.244856
v 0.606629 0.825127 -0.244856
v 0.371164 0.715328 -0.244856
v 0.444127 0.688771 -0.244856
v 0.543237 0.961073 -0.244856
v 0.470274 0.987630 -0.244856
v 0.334327 0.924237 -0.244856
v 0.307771 0.851274 -0.244856
v 0.334327 0.924237 -0.202184
v 0.307771 0.851274 -0.202184
v 0.580073 0.752164 -0.202184
v 0.606629 0.825127 -0.202184
v 0.543237 0.961073 -0.202184
v 0.470274 0.987630 -0.202184
v 0.444127 0.688771 0.110744
v 0.371164 0.715328 0.110744
v 0.606629 0.825127 0.110744
v 0.580073 0.752164 0.110744
v 0.307771 0.851274 0.110744
v 0.334327 0.924237 0.110744
v 0.470274 0.987630 0.110744
v 0.543237 0.961073 0.110744
v 0.371164 0.715328 -0.202184
v 0.444127 0.688771 -0.202184
v 0.393807 0.974147 0.110744
v 0.393807 0.974147 0.153416
v 0.593146 0.901593 0.153416
v 0.593146 0.901593 0.110744
v 0.520593 0.702254 0.153416
v 0.520593 0.702254 0.110744
v 0.321254 0.774808 0.110744
v 0.321254 0.774808 0.153416
v 0.321254 0.774808 -0.202184
v 0.321254 0.774808 -0.244856
v 0.520593 0.702254 -0.244856
v 0.520593 0.702254 -0.202184
v 0.593146 0.901593 -0.202184
v 0.593146 0.901593 -0.244856
v 0.393807 0.974147 -0.244856
v 0.393807 0.974147 -0.202184
v 0.636993 0.822470 0.153416
v 0.605041 0.734681 0.153416
v 0.277407 0.853930 0.153416
v 0.309360 0.941719 0.153416
v 0.441470 0.658407 0.153416
v 0.353681 0.690360 0.153416
v 0.472930 1.017994 0.153416
v 0.560719 0.986041 0.153416
v 0.605041 0.734681 -0.244856
v 0.636993 0.822470 -0.244856
v 0.353681 0.690360 -0.244856
v 0.441470 0.658407 -0.244856
v 0.560719 0.986041 -0.244856
v 0.472930 1.017994 -0.244856
v 0.309360 0.941719 -0.244856
v 0.277407 0.853930 -0.244856
v 0.309360 0.941719 -0.202184
v 0.277407 0.853930 -0.202184
v 0.605041 0.734681 -0.202184
v 0.636993 0.822470 -0.202184
v 0.560719 0.986041 -0.202184
v 0.472930 1.017994 -0.202184
v 0.441470 0.658407 0.110744
v 0.353681 0.690360 0.110744
v 0.636993 0.822470 0.110744
v 0.605041 0.734681 0.110744
v 0.277407 0.853930 0.110744
v 0.309360 0.941719 0.110744
v 0.472930 1.017994 0.110744
v 0.560719 0.986041 0.110744
v 0.353681 0.690360 -0.202184
v 0.441470 0.658407 -0.202184
v 0.380926 1.001771 0.110744
v 0.380926 1.001771 0.153416
v 0.620771 0.914474 0.153416
v 0.620771 0.914474 0.110744
v 0.533474 0.674630 0.153416
v 0.533474 0.674630 0.110744
v 0.293630 0.761926 0.110744
v 0.293630 0.761926 0.153416
v 0.293630 0.761926 -0.202184
v 0.293630 0.761926 -0.244856
v 0.533474 0.674630 -0.244856
v 0.533474 0.674630 -0.202184
v 0.620771 0.914474 -0.202184
v 0.620771 0.914474 -0.244856
v 0.380926 1.001771 -0.244856
v 0.380926 1.001771 -0.202184
v 0.228600 0.000000 -0.091440
v 0.640080 1.935480 0.015240
v 0.640080 0.045720 0.015240
v 0.640080 1.935480 -0.106680
v 0.640080 0.045720 -0.106680
v 0.418133 0.819983 0.150368
v 0.438983 0.877267 0.150368
v 0.418133 0.819983 -0.241808
v 0.438983 0.877267 -0.241808
v 0.274320 0.045720 0.015240
v 0.274320 1.935480 0.015240
v 0.274320 0.045720 -0.106680
v 0.274320 1.935480 -0.106680
v 0.685800 0.000000 -0.091440
v 0.685800 1.981200 -0.091440
v 0.228600 1.981200 -0.091440
v 0.685800 0.000000 0.000000
v 0.228600 0.000000 0.000000
v 0.228600 1.981200 0.000000
v 0.685800 1.981200 0.000000
v -0.000000 0.975360 -0.091440
v -0.000000 0.701040 -0.091440
v 0.914400 0.975360 -0.091440
v 0.914400 0.701040 -0.091440
v 0.899160 0.944880 0.045720
v 0.899160 0.731520 0.045720
v 0.015240 0.731520 0.045720
v 0.015240 0.944880 0.045720
v -0.000000 0.701040 0.000000
v -0.000000 0.975360 0.000000
v 0.914400 0.975360 0.000000
v 0.914400 0.701040 0.000000
vt 0.314168 0.045000
vt 0.294152 0.025137
vt 0.223303 0.095988
vt 0.314220 0.687525
vt 0.456504 0.687529
vt 0.456537 0.659135
vt 0.456506 0.016857
vt 0.314221 0.016853
vt 0.314168 0.045000
vt 0.456537 0.659135
vt 0.476573 0.679245
vt 0.547422 0.608394
vt 0.476574 0.025149
vt 0.456537 0.045006
vt 0.527389 0.115913
vt 0.294151 0.679233
vt 0.314168 0.659128
vt 0.243320 0.588274
vt 0.243321 0.115908
vt 0.243320 0.588274
vt 0.951213 0.931171
vt 0.951213 0.921744
vt 0.861655 0.921744
vt 0.951213 0.912317
vt 0.951213 0.902889
vt 0.861654 0.902889
vt 0.861655 0.912317
vt 0.861655 0.912317
vt 0.861655 0.921744
vt 0.951213 0.921744
vt 0.861655 0.931171
vt 0.861654 0.940598
vt 0.861654 0.902889
vt 0.861655 0.912317
vt 0.951213 0.912317
vt 0.861655 0.931171
vt 0.951213 0.931171
vt 0.951213 0.921744
vt 0.861655 0.931171
vt 0.861654 0.940598
vt 0.951213 0.940598
vt 0.861654 0.902889
vt 0.861655 0.912317
vt 0.951213 0.912317
vt 0.861655 0.921744
vt 0.951213 0.921744
vt 0.861654 0.940598
vt 0.951213 0.940598
vt 0.861655 0.921744
vt 0.861655 0.931171
vt 0.951213 0.931171
vt 0.951213 0.931171
vt 0.861654 0.902889
vt 0.951213 0.912317
vt 0.861654 0.940598
vt 0.951213 0.940598
vt 0.527389 0.588280
vt 0.555650 0.588253
vt 0.555650 0.116134
vt 0.243321 0.115908
vt 0.215075 0.116130
vt 0.527389 0.588280
vt 0.527389 0.115913
vt 0.702299 0.632178
vt 0.985115 0.632179
vt 0.980401 0.615183
vt 0.995307 0.624610
vt 0.995307 0.539766
vt 0.707013 0.549193
vt 0.980401 0.549193
vt 0.985115 0.532197
vt 0.707013 0.615183
vt 0.692107 0.539766
vt 0.419345 0.762567
vt 0.419350 0.782718
vt 0.548956 0.782718
vt 0.548956 0.823010
vt 0.548955 0.802864
vt 0.419350 0.802864
vt 0.548955 0.762572
vt 0.548955 0.742426
vt 0.419342 0.742417
vt 0.328736 0.059514
vt 0.328739 0.644583
vt 0.441967 0.644582
vt 0.328736 0.059514
vt 0.328739 0.644583
vt 0.441967 0.644582
vt 0.441963 0.059513
vt 0.314168 0.659128
vt 0.441963 0.059513
vt 0.456537 0.045006
vt 0.980401 0.549193
vt 0.707013 0.549193
vt 0.707013 0.615183
vt 0.702299 0.532198
vt 0.692107 0.539766
vt 0.692107 0.624610
vt 0.980401 0.615183
vt 0.702299 0.632178
vt 0.995307 0.624610
vt 0.399181 0.742400
vt 0.399181 0.762547
vt 0.569101 0.762572
vt 0.569101 0.742426
vt 0.547422 0.095997
vt 0.223303 0.608385
vt 0.951213 0.940598
vt 0.951213 0.902889
vt 0.951213 0.902889
vt 0.951213 0.902889
vt 0.215075 0.588249
vt 0.702299 0.532198
vt 0.692107 0.624610
vt 0.419350 0.823010
vt 0.985115 0.532197
vt 0.985115 0.632179
vt 0.995307 0.539766
vt 0.260415 0.908693
vt 0.268996 0.928306
vt 0.258988 0.936166
vt 0.342669 0.897607
vt 0.334098 0.878001
vt 0.344111 0.870156
vt 0.249800 0.882472
vt 0.267533 0.858179
vt 0.275741 0.869371
vt 0.353254 0.923801
vt 0.335597 0.948040
vt 0.327378 0.936885
vt 0.344111 0.870156
vt 0.355427 0.895449
vt 0.342669 0.897607
vt 0.307100 0.944644
vt 0.308341 0.957709
vt 0.280803 0.953064
vt 0.247646 0.910865
vt 0.260415 0.908693
vt 0.268996 0.928306
vt 0.296034 0.861622
vt 0.294815 0.848554
vt 0.322336 0.853238
vt 0.267533 0.858179
vt 0.275741 0.869371
vt 0.262550 0.887135
vt 0.296034 0.861622
vt 0.294815 0.848554
vt 0.322336 0.853238
vt 0.335597 0.948040
vt 0.327378 0.936885
vt 0.340544 0.919140
vt 0.285899 0.941348
vt 0.307100 0.944644
vt 0.308341 0.957709
vt 0.250522 0.942862
vt 0.236844 0.949132
vt 0.223116 0.919187
vt 0.352580 0.863475
vt 0.366256 0.857224
vt 0.379942 0.887164
vt 0.244890 0.836175
vt 0.260285 0.847795
vt 0.238350 0.878739
vt 0.358116 0.969798
vt 0.342869 0.958371
vt 0.364650 0.927536
vt 0.379942 0.887164
vt 0.366267 0.893415
vt 0.352580 0.863475
vt 0.276392 0.962979
vt 0.309136 0.968959
vt 0.306405 0.983915
vt 0.236844 0.949132
vt 0.223116 0.919187
vt 0.236794 0.912917
vt 0.326758 0.843336
vt 0.294044 0.837305
vt 0.296799 0.822363
vt 0.220879 0.867401
vt 0.244890 0.836175
vt 0.260285 0.847795
vt 0.326758 0.843336
vt 0.294044 0.837305
vt 0.296799 0.822363
vt 0.379706 0.937403
vt 0.358116 0.969798
vt 0.342869 0.958371
vt 0.309136 0.968959
vt 0.306405 0.983915
vt 0.273661 0.977935
vt 0.258988 0.936166
vt 0.250522 0.942862
vt 0.247646 0.910865
vt 0.236794 0.912917
vt 0.238350 0.878739
vt 0.280803 0.953064
vt 0.353254 0.923801
vt 0.364650 0.927536
vt 0.355427 0.895449
vt 0.249800 0.882472
vt 0.276392 0.962979
vt 0.366267 0.893415
vt 0.262550 0.887135
vt 0.340544 0.919140
vt 0.334098 0.878001
vt 0.285899 0.941348
vt 0.317226 0.864940
vt 0.317226 0.864940
vt 0.220879 0.867401
vt 0.379706 0.937403
vt 0.366256 0.857224
vt 0.273661 0.977935
vt 0.329513 0.828394
vt 0.329513 0.828394
vt 0.249800 0.882472
vt 0.262550 0.887135
vt 0.275741 0.869371
vt 0.106799 -0.850782
vt 0.103240 -0.844175
vt 0.106586 -0.841132
vt 0.078868 -0.857772
vt 0.082395 -0.864383
vt 0.079039 -0.867418
vt 0.335597 0.948040
vt 0.353254 0.923801
vt 0.340544 0.919140
vt 0.097825 -0.873485
vt 0.087285 -0.872972
vt 0.088780 -0.868474
vt 0.334098 0.878001
vt 0.342669 0.897607
vt 0.355427 0.895449
vt 0.294815 0.848554
vt 0.296034 0.861622
vt 0.317226 0.864940
vt 0.268996 0.928306
vt 0.260415 0.908693
vt 0.247646 0.910865
vt 0.079229 -0.840587
vt 0.082564 -0.843757
vt 0.078889 -0.850307
vt 0.089116 -0.839878
vt 0.087824 -0.835166
vt 0.098319 -0.835623
vt 0.111088 -0.859393
vt 0.106425 -0.868023
vt 0.103070 -0.864845
vt 0.307100 0.944644
vt 0.285899 0.941348
vt 0.280803 0.953064
vt 0.238350 0.878739
vt 0.260285 0.847795
vt 0.244890 0.836175
vt 0.109484 -0.838588
vt 0.114159 -0.836159
vt 0.119476 -0.846393
vt 0.076130 -0.869948
vt 0.071458 -0.872352
vt 0.066196 -0.862123
vt 0.379706 0.937403
vt 0.364650 0.927536
vt 0.342869 0.958371
vt 0.085155 -0.883157
vt 0.085815 -0.876897
vt 0.099106 -0.877768
vt 0.366267 0.893415
vt 0.379942 0.887164
vt 0.366256 0.857224
vt 0.329513 0.828394
vt 0.296799 0.822363
vt 0.294044 0.837305
vt 0.236794 0.912917
vt 0.223116 0.919187
vt 0.236844 0.949132
vt 0.076298 -0.837935
vt 0.070884 -0.848265
vt 0.066166 -0.845792
vt 0.099768 -0.831704
vt 0.086541 -0.830896
vt 0.086758 -0.824092
vt 0.114103 -0.873151
vt 0.109370 -0.870679
vt 0.114782 -0.860316
vt 0.276392 0.962979
vt 0.273661 0.977935
vt 0.306405 0.983915
vt 0.322336 0.853238
vt 0.326758 0.843336
vt 0.352580 0.863475
vt 0.250522 0.942862
vt 0.074565 -0.849187
vt 0.074537 -0.858836
vt 0.070868 -0.859720
vt 0.114802 -0.848822
vt 0.267533 0.858179
vt 0.308341 0.957709
vt 0.309136 0.968959
vt 0.344111 0.870156
vt 0.258988 0.936166
vt 0.111126 -0.849714
vt 0.327378 0.936885
vt 0.096549 -0.868782
vt 0.096837 -0.840111
vt 0.106743 -0.858272
vt 0.220879 0.867401
vt 0.358116 0.969798
vt 0.098861 -0.884601
vt 0.071580 -0.835462
vt 0.100399 -0.825474
vt 0.119516 -0.862788
vn -0.7071 -0.7071 0.0000
vn 0.0000 -1.0000 0.0000
vn 0.0000 1.0000 0.0000
vn 0.7071 0.7071 0.0000
vn 0.7071 -0.7071 0.0000
vn -0.7071 0.7071 0.0000
vn 0.0000 0.0000 1.0000
vn 0.9397 -0.3420 0.0000
vn -0.9397 0.3420 0.0000
vn -0.0000 0.0000 -1.0000
vn 0.3420 0.9397 0.0000
vn -0.3420 -0.9397 0.0000
vn 1.0000 0.0000 0.0000
vn -1.0000 0.0000 0.0000
vn 0.0000 0.8320 -0.5547
vn 0.9487 0.0000 -0.3162
vn -0.0000 -0.8321 -0.5547
vn -0.9487 0.0000 -0.3162
vn 0.0000 -0.3162 -0.9487
vn 0.0000 0.3162 -0.9487
vn 0.0000 -0.3162 0.9487
vn 0.0000 0.3162 0.9487
vn 0.3162 0.0000 0.9487
vn -0.3162 0.0000 0.9487
vn -0.3162 0.0000 -0.9487
vn 0.3162 0.0000 -0.9487
vn 0.0000 0.8321 0.5547
vn -0.9487 0.0000 0.3162
vn -0.0000 -0.8321 0.5547
vn 0.9487 0.0000 0.3162
vn 0.0000 0.8321 -0.5547
vn 0.0000 -0.8320 -0.5547
vn 0.0000 0.8320 0.5547
vn 0.8192 -0.5736 0.0000
vn 0.9962 -0.0872 0.0000
vn -0.8192 0.5736 0.0000
vn -0.9962 0.0872 0.0000
vn -0.5736 -0.8192 0.0000
vn -0.0872 -0.9962 0.0000
vn 0.5736 0.8192 0.0000
vn 0.0872 0.9962 0.0000
vn 0.9063 0.4226 0.0000
vn -0.4226 0.9063 0.0000
vn -0.9063 -0.4226 0.0000
vn 0.4226 -0.9063 0.0000
g Orange_Door.003_Door_Orange_Doors_And_Door_Frames
usemtl Doors_And_Door_Frames
s off
f 145/1/1 162/2/1 11/3/1
f 145/4/2 158/5/2 161/6/2
f 159/7/3 160/8/3 163/9/3
f 159/10/4 164/11/4 7/12/4
f 161/13/5 158/14/5 5/15/5
f 163/16/6 160/17/6 9/18/6
f 163/9/7 12/19/7 11/20/7
f 20/21/8 23/22/8 35/23/8
f 24/24/9 19/25/9 44/26/9
f 23/22/7 24/24/7 36/27/7
f 16/28/9 28/29/9 39/30/9
f 20/21/10 43/31/10 44/32/10
f 17/33/10 18/34/10 45/35/10
f 26/36/10 38/37/10 37/38/10
f 22/39/11 17/40/11 46/41/11
f 13/42/7 14/43/7 41/44/7
f 18/34/12 21/45/12 33/46/12
f 26/36/11 13/47/11 42/48/11
f 14/43/12 25/49/12 37/38/12
f 29/50/10 40/51/10 39/30/10
f 21/45/7 22/39/7 34/52/7
f 15/53/7 16/28/7 47/54/7
f 29/50/8 15/55/8 48/56/8
f 6/57/13 5/58/13 8/59/13
f 145/1/10 10/60/10 9/18/10
f 11/20/14 12/19/14 9/61/14
f 158/14/10 159/10/10 8/62/10
f 161/6/7 6/57/7 7/63/7
f 165/64/15 167/65/15 4/66/15
f 4/66/16 167/67/16 168/68/16
f 1/69/17 3/70/17 168/71/17
f 2/72/18 1/69/18 166/73/18
f 2/72/10 4/66/10 3/70/10
f 31/74/8 32/75/8 30/76/8
f 153/77/9 152/78/9 150/79/9
f 27/80/11 153/81/11 151/82/11
f 155/83/7 154/84/7 147/85/7
f 156/86/10 157/87/10 148/88/10
f 156/86/19 149/89/19 158/14/19
f 157/87/20 160/17/20 159/10/20
f 154/84/21 162/90/21 161/6/21
f 155/83/22 146/91/22 164/92/22
f 146/91/23 147/85/23 161/6/23
f 154/84/24 155/83/24 163/9/24
f 152/78/12 30/76/12 32/75/12
f 157/87/25 156/86/25 145/1/25
f 149/89/26 148/88/26 159/10/26
f 169/93/7 172/94/7 171/95/7
f 174/96/27 172/94/27 169/93/27
f 172/94/28 174/97/28 173/98/28
f 170/99/29 171/95/29 173/100/29
f 169/93/30 170/99/30 176/101/30
f 150/102/7 32/103/7 31/74/7
f 27/80/10 30/104/10 152/105/10
f 145/1/1 11/3/1 10/60/1
f 145/4/2 161/6/2 162/90/2
f 159/7/3 163/9/3 164/92/3
f 159/10/4 7/12/4 8/62/4
f 161/13/5 5/15/5 6/106/5
f 163/16/6 9/18/6 12/107/6
f 163/9/7 11/20/7 162/90/7
f 20/21/8 35/23/8 43/31/8
f 24/24/9 44/26/9 36/27/9
f 23/22/7 36/27/7 35/23/7
f 16/28/9 39/30/9 47/54/9
f 20/21/10 44/32/10 19/108/10
f 17/33/10 45/35/10 46/109/10
f 26/36/10 37/38/10 25/49/10
f 22/39/11 46/41/11 34/52/11
f 13/42/7 41/44/7 42/110/7
f 18/34/12 33/46/12 45/35/12
f 26/36/11 42/48/11 38/37/11
f 14/43/12 37/38/12 41/44/12
f 29/50/10 39/30/10 28/29/10
f 21/45/7 34/52/7 33/46/7
f 15/53/7 47/54/7 48/111/7
f 29/50/8 48/56/8 40/51/8
f 6/57/13 8/59/13 7/63/13
f 145/1/10 9/18/10 160/17/10
f 11/20/14 9/61/14 10/112/14
f 158/14/10 8/62/10 5/15/10
f 161/6/7 7/63/7 164/92/7
f 165/64/31 4/66/31 2/72/31
f 4/66/16 168/68/16 3/70/16
f 1/69/32 168/71/32 166/113/32
f 2/72/18 166/73/18 165/114/18
f 2/72/10 3/70/10 1/69/10
f 31/74/8 30/76/8 27/80/8
f 153/77/9 150/79/9 151/115/9
f 27/80/11 151/82/11 31/74/11
f 155/83/7 147/85/7 146/91/7
f 156/86/10 148/88/10 149/89/10
f 156/86/19 158/14/19 145/1/19
f 157/87/20 159/10/20 148/88/20
f 154/84/21 161/6/21 147/85/21
f 155/83/22 164/92/22 163/9/22
f 146/91/23 161/6/23 164/92/23
f 154/84/24 163/9/24 162/90/24
f 152/78/12 32/75/12 150/79/12
f 157/87/25 145/1/25 160/17/25
f 149/89/26 159/10/26 158/14/26
f 169/93/7 171/95/7 170/99/7
f 174/96/33 169/93/33 175/116/33
f 172/94/28 173/98/28 171/95/28
f 170/99/29 173/100/29 176/117/29
f 169/93/30 176/101/30 175/118/30
f 150/102/7 31/74/7 151/82/7
f 27/80/10 152/105/10 153/81/10
s 24
f 65/119/34 66/120/35 64/121/35
f 67/122/36 68/123/37 58/124/37
f 69/125/38 70/126/39 62/127/39
f 79/128/40 80/129/41 60/130/41
f 66/131/35 89/132/42 90/133/42
f 91/134/43 92/135/43 67/136/36
f 93/137/44 94/138/44 58/139/37
f 95/140/45 96/141/45 65/142/34
f 62/143/39 70/144/39 96/145/45
f 69/146/38 61/147/38 94/148/44
f 60/149/41 80/150/41 92/151/43
f 89/152/42 79/153/40 59/154/40
f 112/155/37 114/156/37 113/157/36
f 106/158/35 116/159/35 115/160/34
f 110/161/41 118/162/41 117/163/40
f 108/164/39 128/165/39 127/166/38
f 138/167/44 137/168/44 114/169/37
f 115/170/34 140/171/45 139/172/45
f 106/173/35 142/174/42 141/175/42
f 113/176/36 144/177/43 143/178/43
f 144/179/43 118/180/41 110/181/41
f 142/182/42 109/183/40 117/184/40
f 140/185/45 128/186/39 108/187/39
f 107/188/38 127/189/38 137/190/44
f 93/137/7 68/191/7 116/192/7
f 67/136/7 115/170/7 116/192/7
f 94/148/10 142/182/10 106/158/10
f 63/193/10 111/194/10 143/195/10
f 89/132/7 137/168/7 127/166/7
f 65/142/7 96/141/7 144/177/7
f 69/125/7 117/163/7 118/162/7
f 90/196/10 59/154/10 107/188/10
f 91/197/10 139/198/10 108/187/10
f 79/128/7 127/166/7 128/165/7
f 92/135/7 80/129/7 128/165/7
f 69/125/7 93/137/7 141/175/7
f 57/199/10 58/124/10 106/158/10
f 94/148/10 61/147/10 109/183/10
f 59/154/10 60/149/10 108/187/10
f 62/143/10 95/200/10 143/195/10
f 61/147/10 62/143/10 110/181/10
f 89/132/7 66/131/7 114/169/7
f 70/126/7 118/162/7 144/177/7
f 63/193/10 64/121/10 112/155/10
f 90/196/10 138/201/10 112/155/10
f 65/142/7 113/176/7 114/169/7
f 91/197/10 57/199/10 105/202/10
f 92/135/7 140/171/7 115/170/7
f 65/119/34 64/121/35 63/193/34
f 67/122/36 58/124/37 57/199/36
f 69/125/38 62/127/39 61/203/38
f 79/128/40 60/130/41 59/204/40
f 66/131/35 90/133/42 64/205/35
f 91/134/43 67/136/36 57/206/36
f 93/137/44 58/139/37 68/191/37
f 95/140/45 65/142/34 63/207/34
f 62/143/39 96/145/45 95/200/45
f 69/146/38 94/148/44 93/208/44
f 60/149/41 92/151/43 91/197/43
f 89/152/42 59/154/40 90/196/42
f 112/155/37 113/157/36 111/194/36
f 106/158/35 115/160/34 105/202/34
f 110/161/41 117/163/40 109/209/40
f 108/164/39 127/166/38 107/210/38
f 138/167/44 114/169/37 112/211/37
f 115/170/34 139/172/45 105/212/34
f 106/173/35 141/175/42 116/192/35
f 113/176/36 143/178/43 111/213/36
f 144/179/43 110/181/41 143/195/43
f 142/182/42 117/184/40 141/214/42
f 140/185/45 108/187/39 139/198/45
f 107/188/38 137/190/44 138/201/44
f 93/137/7 116/192/7 141/175/7
f 67/136/7 116/192/7 68/191/7
f 94/148/10 106/158/10 58/124/10
f 63/193/10 143/195/10 95/200/10
f 89/132/7 127/166/7 79/128/7
f 65/142/7 144/177/7 113/176/7
f 69/125/7 118/162/7 70/126/7
f 90/196/10 107/188/10 138/201/10
f 91/197/10 108/187/10 60/149/10
f 79/128/7 128/165/7 80/129/7
f 92/135/7 128/165/7 140/171/7
f 69/125/7 141/175/7 117/163/7
f 57/199/10 106/158/10 105/202/10
f 94/148/10 109/183/10 142/182/10
f 59/154/10 108/187/10 107/188/10
f 62/143/10 143/195/10 110/181/10
f 61/147/10 110/181/10 109/183/10
f 89/132/7 114/169/7 137/168/7
f 70/126/7 144/177/7 96/141/7
f 63/193/10 112/155/10 111/194/10
f 90/196/10 112/155/10 64/121/10
f 65/142/7 114/169/7 66/131/7
f 91/197/10 105/202/10 139/198/10
f 92/135/7 115/170/7 67/136/7
s 25
f 72/215/40 54/216/40 53/217/41
f 73/218/37 74/219/36 50/220/36
f 75/221/35 76/222/34 52/223/34
f 77/224/39 78/225/38 56/226/38
f 55/227/39 82/228/45 81/229/45
f 49/230/37 83/231/44 84/232/44
f 86/233/43 85/234/43 50/235/36
f 51/236/35 88/237/42 87/238/42
f 54/239/40 72/240/40 87/241/42
f 71/242/41 53/243/41 85/244/43
f 83/245/44 56/246/38 78/247/38
f 82/248/45 52/249/34 76/250/34
f 120/251/38 119/252/39 101/253/39
f 98/254/34 122/255/34 121/256/35
f 100/257/36 124/258/36 123/259/37
f 104/260/40 126/261/40 125/262/41
f 129/263/43 130/264/43 103/265/41
f 132/266/42 131/267/42 97/268/35
f 98/269/34 133/270/45 134/271/45
f 135/272/44 136/273/44 99/274/37
f 102/275/38 136/276/44 135/277/44
f 133/278/45 101/279/39 119/280/39
f 126/281/40 104/282/40 131/283/42
f 124/284/36 100/285/36 130/286/43
f 86/233/10 74/287/10 122/288/10
f 84/232/10 132/266/10 121/289/10
f 87/238/10 135/272/10 123/290/10
f 85/244/7 53/243/7 101/279/7
f 88/291/7 51/292/7 99/293/7
f 78/225/10 77/224/10 125/262/10
f 86/233/10 134/271/10 119/252/10
f 50/220/7 98/254/7 97/294/7
f 87/238/10 72/215/10 120/251/10
f 52/223/7 100/257/7 99/293/7
f 88/291/7 136/276/7 102/275/7
f 54/239/7 102/275/7 101/279/7
f 56/246/7 104/282/7 103/265/7
f 72/215/10 71/295/10 119/252/10
f 77/224/10 81/296/10 129/297/10
f 55/227/7 103/265/7 130/264/7
f 74/287/10 73/298/10 121/289/10
f 56/246/7 83/245/7 131/283/7
f 76/250/10 124/284/10 129/297/10
f 84/232/10 78/225/10 126/261/10
f 52/223/7 82/228/7 130/264/7
f 85/244/7 133/278/7 98/254/7
f 76/250/10 75/299/10 123/290/10
f 83/245/7 49/300/7 97/294/7
f 72/215/40 53/217/41 71/295/41
f 73/218/37 50/220/36 49/300/37
f 75/221/35 52/223/34 51/292/35
f 77/224/39 56/226/38 55/301/39
f 55/227/39 81/229/45 77/302/39
f 49/230/37 84/232/44 73/298/37
f 86/233/43 50/235/36 74/287/36
f 51/236/35 87/238/42 75/299/35
f 54/239/40 87/241/42 88/291/42
f 71/242/41 85/244/43 86/303/43
f 83/245/44 78/247/38 84/304/44
f 82/248/45 76/250/34 81/296/45
f 120/251/38 101/253/39 102/305/38
f 98/254/34 121/256/35 97/294/35
f 100/257/36 123/259/37 99/293/37
f 104/260/40 125/262/41 103/306/41
f 129/263/43 103/265/41 125/307/41
f 132/266/42 97/268/35 121/289/35
f 98/269/34 134/271/45 122/288/34
f 135/272/44 99/274/37 123/290/37
f 102/275/38 135/277/44 120/308/38
f 133/278/45 119/280/39 134/309/45
f 126/281/40 131/283/42 132/310/42
f 124/284/36 130/286/43 129/297/43
f 86/233/10 122/288/10 134/271/10
f 84/232/10 121/289/10 73/298/10
f 87/238/10 123/290/10 75/299/10
f 85/244/7 101/279/7 133/278/7
f 88/291/7 99/293/7 136/276/7
f 78/225/10 125/262/10 126/261/10
f 86/233/10 119/252/10 71/295/10
f 50/220/7 97/294/7 49/300/7
f 87/238/10 120/251/10 135/272/10
f 52/223/7 99/293/7 51/292/7
f 88/291/7 102/275/7 54/239/7
f 54/239/7 101/279/7 53/243/7
f 56/246/7 103/265/7 55/227/7
f 72/215/10 119/252/10 120/251/10
f 77/224/10 129/297/10 125/262/10
f 55/227/7 130/264/7 82/228/7
f 74/287/10 121/289/10 122/288/10
f 56/246/7 131/283/7 104/282/7
f 76/250/10 129/297/10 81/296/10
f 84/232/10 126/261/10 132/266/10
f 52/223/7 130/264/7 100/257/7
f 85/244/7 98/254/7 50/220/7
f 76/250/10 123/290/10 124/284/10
f 83/245/7 97/294/7 131/283/7
