# Blender v2.83.0 OBJ File: ''
# www.blender.org
mtllib Elevator Door Left.mtl
o Elevator_Door.001_Elevator_Door
v 0.913436 1.980325 -0.015121
v 0.913436 0.000614 0.010277
v 0.913436 0.000614 -0.015121
v 0.913436 1.980325 0.010277
v 0.608636 0.000614 0.010277
v 0.608636 1.980325 -0.015121
v 0.608636 0.000614 -0.015121
v 0.608636 1.980325 0.016629
v 0.303836 0.000614 0.016628
v 0.608636 0.000614 0.016628
v 0.608636 0.000614 -0.021473
v 0.303836 1.980325 -0.021472
v 0.608636 1.980325 -0.021472
v 0.303836 0.000614 -0.021473
v 0.303836 1.980325 -0.027822
v 0.608636 1.980325 0.010277
v 0.303836 1.980325 0.022978
v 0.004102 0.000614 0.022978
v 0.303836 0.000614 0.022978
v 0.303836 0.000614 -0.027822
v 0.004102 1.980325 -0.027822
v 0.303836 1.980325 0.016629
v 0.004102 1.980325 0.022978
v 0.004102 0.000614 -0.027822
vt 0.764599 0.265111
vt 0.768095 0.538143
vt 0.764592 0.538143
vt 0.768102 0.265111
vt 0.810131 0.538144
vt 0.722562 0.265110
vt 0.722556 0.538142
vt 0.811014 0.265112
vt 0.853047 0.538144
vt 0.811010 0.538144
vt 0.721680 0.538142
vt 0.679646 0.265110
vt 0.721683 0.265110
vt 0.679644 0.538141
vt 0.678767 0.265110
vt 0.810138 0.265112
vt 0.853926 0.265113
vt 0.895264 0.538144
vt 0.853926 0.538144
vt 0.678768 0.538141
vt 0.637429 0.265110
vt 0.853050 0.265113
vt 0.895264 0.265113
vt 0.637430 0.538141
vn 1.0000 0.0000 0.0000
vn 0.0000 -0.0000 1.0000
vn 0.0000 0.0000 -1.0000
usemtl Elevator_and_Container_Supports
s 1
f 1/1/1 2/2/1 3/3/1
f 4/4/2 5/5/2 2/2/2
f 6/6/3 3/3/3 7/7/3
f 8/8/2 9/9/2 10/10/2
f 11/11/3 12/12/3 13/13/3
f 14/14/1 15/15/1 12/12/1
f 7/7/1 13/13/1 6/6/1
f 16/16/1 10/10/1 5/5/1
f 17/17/2 18/18/2 19/19/2
f 20/20/3 21/21/3 15/15/3
f 22/22/1 19/19/1 9/9/1
f 1/1/1 4/4/1 2/2/1
f 4/4/2 16/16/2 5/5/2
f 6/6/3 1/1/3 3/3/3
f 8/8/2 22/22/2 9/9/2
f 11/11/3 14/14/3 12/12/3
f 14/14/1 20/20/1 15/15/1
f 7/7/1 11/11/1 13/13/1
f 16/16/1 8/8/1 10/10/1
f 17/17/2 23/23/2 18/18/2
f 20/20/3 24/24/3 21/21/3
f 22/22/1 17/17/1 19/19/1
