# Blender v3.1.2 OBJ File: 'Resonance Levels.blend'
# www.blender.org
mtllib Glass Double Door Left 4.mtl
o Glass_Double_Door_Left_4_Glass_Double_Door_Left
v -10.921996 0.063500 -22.453600
v -10.921996 1.968500 -22.453600
v -10.363196 0.063500 -22.453600
v -10.363196 1.968500 -22.453600
v -10.921996 0.063500 -22.377399
v -10.921996 1.968500 -22.377399
v -10.363196 0.063500 -22.377399
v -10.363196 1.968500 -22.377399
v -10.286997 2.057400 -22.453600
v -10.286997 0.000000 -22.453600
v -10.286996 0.000000 -22.377399
v -10.286996 2.057400 -22.377399
v -11.048996 0.000000 -22.453600
v -11.048996 2.057400 -22.453600
v -11.048996 2.057400 -22.377399
v -11.048996 0.000000 -22.377399
v -10.680698 1.219200 -22.402502
v -10.833098 0.914400 -22.402502
v -10.452103 1.219200 -22.402502
v -10.604503 0.914400 -22.402502
v -10.401299 1.219200 -22.402502
v -10.553699 0.914400 -22.402502
v -10.369389 1.219200 -22.402502
v -10.369391 0.914400 -22.402502
v -10.916598 1.219200 -22.402502
v -10.916601 0.914400 -22.402502
v -10.731503 1.219200 -22.402502
v -10.883903 0.914400 -22.402502
v -10.680698 1.219200 -22.428732
v -10.833098 0.914400 -22.428732
v -10.452103 1.219200 -22.428732
v -10.604503 0.914400 -22.428732
v -10.401299 1.219200 -22.428732
v -10.553699 0.914400 -22.428732
v -10.369389 1.219200 -22.428732
v -10.369391 0.914400 -22.428732
v -10.916598 1.219200 -22.428732
v -10.916601 0.914400 -22.428732
v -10.731503 1.219200 -22.428732
v -10.883903 0.914400 -22.428732
vt 0.437636 0.573260
vt 0.447595 0.324282
vt 0.447595 0.573260
vt 0.510669 0.573260
vt 0.520628 0.315983
vt 0.520629 0.584879
vt 0.421037 0.594838
vt 0.520629 0.594838
vt 0.530588 0.584879
vt 0.530588 0.315983
vt 0.421037 0.306024
vt 0.520628 0.306024
vt 0.421037 0.584879
vt 0.411078 0.315983
vt 0.421037 0.315983
vt 0.394479 0.324282
vt 0.311487 0.315983
vt 0.394480 0.573260
vt 0.411078 0.584879
vt 0.311487 0.584879
vt 0.321447 0.573260
vt 0.437636 0.324282
vt 0.510669 0.324282
vt 0.394479 0.334241
vt 0.321446 0.324283
vt 0.321447 0.563301
vt 0.500710 0.573260
vt 0.500710 0.324282
vt 0.860470 0.847482
vt 0.901783 0.857852
vt 0.860440 0.878474
vt 0.907261 0.989206
vt 0.947098 0.993377
vt 0.907261 0.993377
vt 0.907261 0.776024
vt 0.947098 0.780298
vt 0.907261 0.800216
vt 0.860470 0.847482
vt 0.901783 0.857852
vt 0.901813 0.826860
vt 0.907261 0.989206
vt 0.947098 0.993377
vt 0.947098 0.969289
vt 0.907262 0.776024
vt 0.947098 0.780298
vt 0.947098 0.776024
vt 0.321446 0.334242
vt 0.394480 0.563301
vt 0.901813 0.826860
vt 0.947098 0.969289
vt 0.947098 0.776024
vt 0.860440 0.878474
vt 0.907261 0.993377
vt 0.907261 0.800216
vn 1.0000 0.0000 0.0000
vn 0.0000 0.0000 1.0000
vn 0.0000 1.0000 -0.0000
vn 0.0000 -1.0000 0.0000
vn -1.0000 0.0000 0.0000
vn 0.0000 0.0000 -1.0000
usemtl Glass_Walls_and_Doors
s off
f 6/1/1 1/2/1 2/3/1
f 8/4/2 11/5/2 12/6/2
f 14/7/3 12/6/3 9/8/3
f 9/9/1 11/5/1 10/10/1
f 11/5/4 13/11/4 10/12/4
f 15/13/5 13/14/5 16/15/5
f 1/16/6 10/17/6 13/14/6
f 2/18/6 13/14/6 14/19/6
f 2/18/6 9/20/6 4/21/6
f 5/22/2 11/5/2 7/23/2
f 6/1/2 12/6/2 15/13/2
f 6/1/2 16/15/2 5/22/2
f 5/24/3 3/25/3 1/16/3
f 8/26/4 2/18/4 4/21/4
f 7/23/5 4/27/5 3/28/5
f 4/21/6 10/17/6 3/25/6
f 17/29/2 20/30/2 19/31/2
f 21/32/2 24/33/2 23/34/2
f 25/35/2 28/36/2 27/37/2
f 29/38/6 32/39/6 30/40/6
f 33/41/6 36/42/6 34/43/6
f 37/44/6 40/45/6 38/46/6
f 6/1/1 5/22/1 1/2/1
f 8/4/2 7/23/2 11/5/2
f 14/7/3 15/13/3 12/6/3
f 9/9/1 12/6/1 11/5/1
f 11/5/4 16/15/4 13/11/4
f 15/13/5 14/19/5 13/14/5
f 1/16/6 3/25/6 10/17/6
f 2/18/6 1/16/6 13/14/6
f 2/18/6 14/19/6 9/20/6
f 5/22/2 16/15/2 11/5/2
f 6/1/2 8/4/2 12/6/2
f 6/1/2 15/13/2 16/15/2
f 5/24/3 7/47/3 3/25/3
f 8/26/4 6/48/4 2/18/4
f 7/23/5 8/4/5 4/27/5
f 4/21/6 9/20/6 10/17/6
f 17/29/2 18/49/2 20/30/2
f 21/32/2 22/50/2 24/33/2
f 25/35/2 26/51/2 28/36/2
f 29/38/6 31/52/6 32/39/6
f 33/41/6 35/53/6 36/42/6
f 37/44/6 39/54/6 40/45/6
