# Blender v3.0.0 OBJ File: ''
# www.blender.org
mtllib M_Hand.mtl
v -0.020000 -0.000000 0.002500
v -0.020000 -0.000000 0.010824
v -0.020000 0.296595 0.002500
v -0.020000 0.296595 0.010824
v 0.020000 -0.000000 0.002500
v 0.020000 -0.000000 0.010824
v 0.020000 0.296595 0.002500
v 0.020000 0.296595 0.010824
v -0.005000 0.371606 0.010824
v -0.005000 0.371606 0.002500
v 0.005000 0.371606 0.002500
v 0.005000 0.371606 0.010824
v 0.045000 0.296595 0.010824
v 0.045000 0.296595 0.002500
v -0.045000 0.296595 0.010824
v -0.045000 0.296595 0.002500
vt 0.953916 0.208361
vt 0.775689 0.208026
vt 0.773965 0.204616
vt 0.954114 0.184152
vt 0.774277 0.182281
vt 0.736971 0.195466
vt 0.732283 0.190902
vt 0.736446 0.190465
vt 0.772230 0.217046
vt 0.772537 0.171510
vt 0.776142 0.178919
vt 0.954121 0.179156
vt 0.734411 0.186687
vt 0.771929 0.215133
vt 0.954121 0.213401
vt 0.732808 0.195903
vt 0.772911 0.169562
vt 0.735213 0.199091
vn 1.0000 0.0000 0.0000
vn 0.0000 0.0000 1.0000
vn 0.0000 1.0000 0.0000
vn 0.0000 -1.0000 0.0000
vn -1.0000 -0.0000 0.0000
vn -0.8824 0.4705 0.0000
vn 0.8824 0.4705 0.0000
g Minute_Hand_Cube.003_Clock
usemtl Clock
s 1
f 6/1/1 7/2/1 8/3/1
f 2/4/2 8/3/2 4/5/2
f 12/6/3 10/7/3 9/8/3
f 14/9/4 8/3/4 7/2/4
f 15/10/4 3/11/4 4/5/4
f 4/5/5 1/12/5 2/4/5
f 10/13/6 15/10/6 9/8/6
f 14/9/7 12/6/7 13/14/7
f 9/8/2 15/10/2 4/5/2
f 6/1/1 5/15/1 7/2/1
f 2/4/2 6/1/2 8/3/2
f 12/6/3 11/16/3 10/7/3
f 14/9/4 13/14/4 8/3/4
f 15/10/4 16/17/4 3/11/4
f 4/5/5 3/11/5 1/12/5
f 10/13/6 16/17/6 15/10/6
f 14/9/7 11/18/7 12/6/7
f 4/5/2 8/3/2 9/8/2
f 8/3/2 13/14/2 12/6/2
f 9/8/2 8/3/2 12/6/2
