# Blender v3.0.1 OBJ File: 'Resonance Levels.blend'
# www.blender.org
mtllib Crate 1.5 (extra).mtl
o Crate_1.5ft.017_Crate_1
v -0.228600 0.076200 0.152400
v -0.228600 0.381000 0.098518
v -0.228600 0.130082 -0.152400
v -0.228600 0.381000 -0.152400
v 0.228600 0.130082 0.152400
v 0.228600 0.381000 0.152400
v 0.228600 0.076200 -0.152400
v 0.228600 0.381000 -0.098518
v -0.152400 0.076200 -0.228600
v -0.152400 0.130082 0.228600
v -0.152400 0.381000 0.228600
v -0.098518 0.381000 -0.228600
v 0.152400 0.381000 -0.228600
v 0.152400 0.130082 -0.228600
v 0.152400 0.076200 0.228600
v 0.098518 0.381000 0.228600
v -0.152400 0.000000 0.098518
v -0.152400 0.457200 0.152400
v -0.098518 0.457200 -0.152400
v -0.152400 0.000000 -0.152400
v 0.098518 0.000000 -0.152400
v 0.152400 0.457200 -0.152400
v 0.152400 0.457200 0.098518
v 0.152400 0.000000 0.152400
v -0.228600 0.000000 -0.228600
v -0.228600 0.000000 0.228600
v -0.228600 0.457200 0.228600
v -0.228600 0.457200 -0.228600
v 0.228600 0.000000 -0.228600
v 0.228600 0.457200 -0.228600
v 0.228600 0.000000 0.228600
v 0.228600 0.457200 0.228600
v -0.228600 0.076200 -0.098518
v -0.228600 0.327119 0.152400
v 0.098518 0.076200 -0.228600
v -0.152400 0.327119 -0.228600
v 0.228600 0.076200 0.098518
v 0.228600 0.327119 -0.152400
v -0.098518 0.076200 0.228600
v 0.152400 0.327119 0.228600
v -0.098518 0.000000 0.152400
v 0.152400 0.000000 -0.098518
v 0.098518 0.457200 0.152400
v -0.152400 0.457200 -0.098518
v -0.228600 0.076200 -0.152400
v -0.228600 0.381000 0.152400
v 0.152400 0.076200 -0.228600
v -0.152400 0.381000 -0.228600
v 0.228600 0.076200 0.152400
v 0.228600 0.381000 -0.152400
v -0.152400 0.076200 0.228600
v 0.152400 0.381000 0.228600
v -0.152400 0.000000 0.152400
v 0.152400 0.000000 -0.152400
v 0.152400 0.457200 0.152400
v -0.152400 0.457200 -0.152400
v -0.209550 0.130082 -0.152400
v -0.209550 0.381000 0.098518
v 0.152400 0.130082 -0.209550
v -0.098518 0.381000 -0.209550
v 0.209550 0.130082 0.152400
v 0.209550 0.381000 -0.098518
v -0.152400 0.130082 0.209550
v 0.098518 0.381000 0.209550
v -0.152400 0.019050 0.098518
v 0.098518 0.019050 -0.152400
v 0.152400 0.438150 0.098518
v -0.098518 0.438150 -0.152400
v -0.209550 0.381000 -0.152400
v 0.209550 0.381000 0.152400
v -0.152400 0.381000 0.209550
v 0.152400 0.381000 -0.209550
v -0.152400 0.019050 -0.152400
v 0.152400 0.438150 -0.152400
v -0.209550 0.076200 -0.098518
v -0.209550 0.327119 0.152400
v 0.098518 0.076200 -0.209550
v -0.152400 0.327119 -0.209550
v 0.209550 0.076200 0.098518
v 0.209550 0.327119 -0.152400
v -0.098518 0.076200 0.209550
v 0.152400 0.327119 0.209550
v -0.098518 0.019050 0.152400
v 0.152400 0.019050 -0.098518
v 0.098518 0.438150 0.152400
v -0.152400 0.438150 -0.098518
v -0.209550 0.076200 0.152400
v 0.209550 0.076200 -0.152400
v -0.152400 0.076200 -0.209550
v 0.152400 0.076200 0.209550
v -0.152400 0.438150 0.152400
v 0.152400 0.019050 0.152400
v -0.209550 0.438150 -0.209550
v 0.209550 0.438150 0.209550
v -0.209550 0.438150 0.209550
v 0.209550 0.438150 -0.209550
v -0.209550 0.019050 0.209550
v 0.209550 0.019050 -0.209550
v -0.209550 0.019050 -0.209550
v 0.209550 0.019050 0.209550
vt 0.417828 0.027231
vt 0.420554 0.063131
vt 0.417828 0.063131
vt 0.382761 0.027231
vt 0.385485 0.063131
vt 0.382760 0.063131
vt 0.579070 0.306494
vt 0.576344 0.255723
vt 0.579070 0.255723
vt 0.347692 0.019522
vt 0.350417 0.055422
vt 0.347692 0.055422
vt 0.290819 0.055422
vt 0.288093 0.019522
vt 0.290819 0.019522
vt 0.565806 0.255723
vt 0.568532 0.306494
vt 0.565806 0.306494
vt 0.530738 0.306493
vt 0.528012 0.255723
vt 0.530738 0.255723
vt 0.325887 0.063131
vt 0.323162 0.027231
vt 0.325887 0.027231
vt 0.517474 0.255724
vt 0.520199 0.306494
vt 0.517474 0.306494
vt 0.482406 0.306493
vt 0.479681 0.255724
vt 0.482406 0.255723
vt 0.255751 0.063131
vt 0.253025 0.027231
vt 0.255751 0.027231
vt 0.277555 0.027231
vt 0.280281 0.063131
vt 0.277555 0.063131
vt 0.406926 0.008619
vt 0.406926 0.074033
vt 0.220683 0.027231
vt 0.231585 0.008619
vt 0.231585 0.074033
vt 0.593570 0.164372
vt 0.604473 0.182983
vt 0.593570 0.229786
vt 0.628640 0.229785
vt 0.617737 0.211174
vt 0.628640 0.164372
vt 0.652807 0.182983
vt 0.663709 0.164372
vt 0.663709 0.229785
vt 0.687875 0.182984
vt 0.698777 0.164372
vt 0.698777 0.229786
vt 0.733846 0.229786
vt 0.722944 0.211174
vt 0.733846 0.164372
vt 0.396024 0.055422
vt 0.582668 0.211174
vt 0.312623 0.055422
vt 0.301721 0.074033
vt 0.301721 0.008619
vt 0.360956 0.027231
vt 0.371858 0.008619
vt 0.371858 0.074033
vt 0.639542 0.182983
vt 0.744748 0.182983
vt 0.758012 0.182984
vt 0.768914 0.164372
vt 0.768914 0.229786
vt 0.266653 0.008619
vt 0.266653 0.074033
vt 0.336790 0.008619
vt 0.336790 0.074033
vt 0.242487 0.055421
vt 0.674611 0.211174
vt 0.709679 0.211174
vt 0.779817 0.182983
vt 0.554904 0.306494
vt 0.589972 0.255723
vt 0.469142 0.255723
vt 0.469142 0.306494
vt 0.458240 0.306494
vt 0.493308 0.255723
vt 0.493309 0.306494
vt 0.541640 0.255723
vt 0.541640 0.306494
vt 0.471868 0.306494
vt 0.709680 0.175274
vt 0.712404 0.211174
vt 0.615012 0.175275
vt 0.617737 0.175274
vt 0.496034 0.306494
vt 0.652807 0.218883
vt 0.650081 0.182984
vt 0.544366 0.306493
vt 0.579943 0.175274
vt 0.582668 0.175274
vt 0.220682 0.063131
vt 0.217957 0.027231
vt 0.312623 0.019522
vt 0.315349 0.055422
vt 0.607198 0.218883
vt 0.604473 0.218883
vt 0.747473 0.218883
vt 0.744748 0.218883
vt 0.687875 0.218883
vt 0.685149 0.182983
vt 0.758012 0.218883
vt 0.755287 0.182983
vt 0.720218 0.175274
vt 0.722944 0.175274
vt 0.506572 0.306494
vt 0.503846 0.255723
vt 0.506572 0.255723
vt 0.242487 0.019522
vt 0.245213 0.055422
vt 0.393299 0.019522
vt 0.396024 0.019522
vt 0.552178 0.255723
vt 0.554904 0.255723
vt 0.674612 0.175274
vt 0.677336 0.211174
vt 0.360956 0.063131
vt 0.358230 0.027231
vt 0.592698 0.306494
vt 0.589972 0.306494
vt 0.782542 0.218883
vt 0.779817 0.218883
vt 0.642268 0.218884
vt 0.639542 0.218883
vt 0.455515 0.255723
vt 0.458240 0.255723
vt 0.420554 0.027231
vt 0.385486 0.027231
vt 0.576344 0.306494
vt 0.350418 0.019522
vt 0.288094 0.055422
vt 0.568531 0.255723
vt 0.528012 0.306494
vt 0.323162 0.063131
vt 0.520200 0.255724
vt 0.479681 0.306494
vt 0.253025 0.063131
vt 0.280281 0.027231
vt 0.417829 0.019522
vt 0.220682 0.019522
vt 0.604473 0.175274
vt 0.617738 0.218884
vt 0.652807 0.175274
vt 0.687875 0.175274
vt 0.722943 0.218883
vt 0.396023 0.063131
vt 0.582668 0.218883
vt 0.312623 0.063131
vt 0.360956 0.019522
vt 0.639542 0.175274
vt 0.744748 0.175274
vt 0.758012 0.175274
vt 0.255751 0.019522
vt 0.325887 0.019522
vt 0.242487 0.063131
vt 0.290819 0.063131
vt 0.382760 0.019522
vt 0.674611 0.218883
vt 0.709680 0.218883
vt 0.779817 0.175274
vt 0.277556 0.019522
vt 0.560355 0.311945
vt 0.560355 0.250272
vt 0.584521 0.250272
vt 0.584521 0.311945
vt 0.463691 0.311945
vt 0.463691 0.250272
vt 0.487857 0.311945
vt 0.487857 0.250272
vt 0.536189 0.311945
vt 0.536189 0.250272
vt 0.347692 0.063131
vt 0.471868 0.255723
vt 0.712405 0.175274
vt 0.615011 0.211174
vt 0.496034 0.255723
vt 0.650081 0.218883
vt 0.544366 0.255723
vt 0.579942 0.211174
vt 0.217957 0.063131
vt 0.315349 0.019522
vt 0.607199 0.182983
vt 0.747474 0.182983
vt 0.685149 0.218883
vt 0.755286 0.218883
vt 0.720218 0.211174
vt 0.503846 0.306494
vt 0.245213 0.019522
vt 0.393298 0.055422
vt 0.552178 0.306494
vt 0.677337 0.175274
vt 0.358230 0.063131
vt 0.592698 0.255723
vt 0.782542 0.182983
vt 0.642267 0.182984
vt 0.455515 0.306494
vt 0.512023 0.311945
vt 0.512023 0.250272
vt 0.484450 0.936131
vt 0.424487 0.876169
vt 0.484450 0.876169
vt 0.544412 0.936131
vt 0.604374 0.936131
vt 0.544412 0.876169
vt 0.424487 0.936131
vt 0.484450 0.996094
vt 0.424487 0.996094
vt 0.424487 0.816207
vt 0.484450 0.816207
vt 0.364525 0.936131
vt 0.364525 0.876169
vt 0.604374 0.876169
vn 0.0000 0.0000 -1.0000
vn 0.0000 0.0000 1.0000
vn 0.0000 0.7071 0.7071
vn 0.0000 1.0000 0.0000
vn 0.7071 0.7071 0.0000
vn -0.7071 0.0000 0.7071
vn 1.0000 0.0000 0.0000
vn 0.0000 0.7071 -0.7071
vn 0.7071 0.0000 0.7071
vn 0.0000 -1.0000 0.0000
vn -1.0000 -0.0000 0.0000
vn -0.7071 0.7071 0.0000
vn -0.7071 0.0000 -0.7071
vn 0.7071 0.0000 -0.7071
vn 0.0000 -0.7071 0.7071
vn -0.7071 -0.7071 0.0000
vn 0.0000 -0.7071 -0.7071
vn 0.7071 -0.7071 0.0000
usemtl Crates
s 1
f 34/1/1 87/2/1 1/3/1
f 19/4/2 74/5/2 22/6/2
f 8/7/3 61/8/3 5/9/3
f 1/10/4 75/11/4 33/12/4
f 21/13/2 73/14/2 20/15/2
f 12/16/5 59/17/5 14/18/5
f 44/19/6 85/20/6 43/21/6
f 20/22/7 65/23/7 17/24/7
f 2/25/8 57/26/8 3/27/8
f 42/28/9 83/29/9 41/30/9
f 11/31/10 64/32/10 16/33/10
f 43/34/1 91/35/1 18/36/1
f 27/37/11 34/1/11 26/38/11
f 2/39/11 27/40/11 28/41/11
f 25/42/11 3/43/11 28/44/11
f 30/45/7 38/46/7 29/47/7
f 37/48/7 31/49/7 29/50/7
f 8/51/7 30/52/7 32/53/7
f 31/54/7 5/55/7 32/56/7
f 26/38/2 10/57/2 27/37/2
f 28/44/1 36/58/1 25/42/1
f 35/59/1 29/60/1 25/61/1
f 12/62/1 28/63/1 30/64/1
f 29/47/1 14/65/1 30/45/1
f 32/56/2 40/66/2 31/54/2
f 39/67/2 26/68/2 31/69/2
f 16/33/2 32/70/2 27/71/2
f 17/24/10 26/72/10 25/73/10
f 44/74/4 28/41/4 27/40/4
f 29/60/10 21/13/10 25/61/10
f 28/63/4 19/4/4 30/64/4
f 42/75/10 29/50/10 31/49/10
f 23/76/4 32/53/4 30/52/4
f 26/68/10 41/77/10 31/69/10
f 32/70/4 43/34/4 27/71/4
f 12/16/1 14/18/1 35/78/1
f 8/7/7 5/9/7 37/79/7
f 16/80/2 10/81/2 39/82/2
f 17/83/10 21/84/10 41/30/10
f 23/85/4 19/86/4 43/21/4
f 33/12/11 25/73/11 26/72/11
f 16/80/12 63/87/12 10/81/12
f 22/88/11 67/89/11 23/76/11
f 38/46/2 88/90/2 7/91/2
f 17/83/13 66/92/13 21/84/13
f 7/93/4 79/94/4 37/48/4
f 23/85/14 68/95/14 19/86/14
f 36/58/7 89/96/7 9/97/7
f 4/98/10 58/99/10 2/39/10
f 9/100/4 77/101/4 35/59/4
f 3/43/2 69/102/2 4/103/2
f 40/66/11 90/104/11 15/105/11
f 6/106/10 62/107/10 8/51/10
f 15/108/4 81/109/4 39/67/4
f 5/55/1 70/110/1 6/111/1
f 33/112/15 76/113/15 34/114/15
f 18/115/7 86/116/7 44/74/7
f 10/57/7 71/117/7 11/118/7
f 35/78/16 78/119/16 36/120/16
f 24/121/11 84/122/11 42/75/11
f 13/123/10 60/124/10 12/62/10
f 37/79/17 80/125/17 38/126/17
f 41/77/1 92/127/1 24/128/1
f 14/65/11 72/129/11 13/130/11
f 39/82/18 82/131/18 40/132/18
f 2/25/11 3/27/11 33/112/11
f 34/1/1 76/133/1 87/2/1
f 19/4/2 68/134/2 74/5/2
f 8/7/3 62/135/3 61/8/3
f 1/10/4 87/136/4 75/11/4
f 21/13/2 66/137/2 73/14/2
f 12/16/5 60/138/5 59/17/5
f 44/19/6 86/139/6 85/20/6
f 20/22/7 73/140/7 65/23/7
f 2/25/8 58/141/8 57/26/8
f 42/28/9 84/142/9 83/29/9
f 11/31/10 71/143/10 64/32/10
f 43/34/1 85/144/1 91/35/1
f 46/145/11 34/1/11 27/37/11
f 34/1/11 1/3/11 26/38/11
f 28/41/11 4/98/11 2/39/11
f 2/39/11 46/146/11 27/40/11
f 45/147/11 3/43/11 25/42/11
f 3/43/11 4/103/11 28/44/11
f 50/148/7 38/46/7 30/45/7
f 38/46/7 7/91/7 29/47/7
f 29/50/7 7/93/7 37/48/7
f 37/48/7 49/149/7 31/49/7
f 32/53/7 6/106/7 8/51/7
f 8/51/7 50/150/7 30/52/7
f 49/151/7 5/55/7 31/54/7
f 5/55/7 6/111/7 32/56/7
f 51/152/2 10/57/2 26/38/2
f 10/57/2 11/118/2 27/37/2
f 48/153/1 36/58/1 28/44/1
f 36/58/1 9/97/1 25/42/1
f 25/61/1 9/100/1 35/59/1
f 35/59/1 47/154/1 29/60/1
f 30/64/1 13/123/1 12/62/1
f 12/62/1 48/155/1 28/63/1
f 47/156/1 14/65/1 29/47/1
f 14/65/1 13/130/1 30/45/1
f 52/157/2 40/66/2 32/56/2
f 40/66/2 15/105/2 31/54/2
f 31/69/2 15/108/2 39/67/2
f 39/67/2 51/158/2 26/68/2
f 27/71/2 11/31/2 16/33/2
f 16/33/2 52/159/2 32/70/2
f 25/73/10 20/22/10 17/24/10
f 17/24/10 53/160/10 26/72/10
f 27/40/4 18/115/4 44/74/4
f 44/74/4 56/161/4 28/41/4
f 54/162/10 21/13/10 29/60/10
f 21/13/10 20/15/10 25/61/10
f 56/163/4 19/4/4 28/63/4
f 19/4/4 22/6/4 30/64/4
f 31/49/10 24/121/10 42/75/10
f 42/75/10 54/164/10 29/50/10
f 30/52/4 22/88/4 23/76/4
f 23/76/4 55/165/4 32/53/4
f 53/166/10 41/77/10 26/68/10
f 41/77/10 24/128/10 31/69/10
f 55/167/4 43/34/4 32/70/4
f 43/34/4 18/36/4 27/71/4
f 47/168/1 35/78/1 14/18/1
f 35/78/1 36/120/1 12/16/1
f 36/120/1 48/169/1 12/16/1
f 49/170/7 37/79/7 5/9/7
f 37/79/7 38/126/7 8/7/7
f 38/126/7 50/171/7 8/7/7
f 51/172/2 39/82/2 10/81/2
f 39/82/2 40/132/2 16/80/2
f 40/132/2 52/173/2 16/80/2
f 54/174/10 42/28/10 21/84/10
f 42/28/10 41/30/10 21/84/10
f 41/30/10 53/175/10 17/83/10
f 56/176/4 44/19/4 19/86/4
f 44/19/4 43/21/4 19/86/4
f 43/21/4 55/177/4 23/85/4
f 26/72/11 1/10/11 33/12/11
f 33/12/11 45/178/11 25/73/11
f 16/80/12 64/179/12 63/87/12
f 22/88/11 74/180/11 67/89/11
f 38/46/2 80/181/2 88/90/2
f 17/83/13 65/182/13 66/92/13
f 7/93/4 88/183/4 79/94/4
f 23/85/14 67/184/14 68/95/14
f 36/58/7 78/185/7 89/96/7
f 4/98/10 69/186/10 58/99/10
f 9/100/4 89/187/4 77/101/4
f 3/43/2 57/188/2 69/102/2
f 40/66/11 82/189/11 90/104/11
f 6/106/10 70/190/10 62/107/10
f 15/108/4 90/191/4 81/109/4
f 5/55/1 61/192/1 70/110/1
f 33/112/15 75/193/15 76/113/15
f 18/115/7 91/194/7 86/116/7
f 10/57/7 63/195/7 71/117/7
f 35/78/16 77/196/16 78/119/16
f 24/121/11 92/197/11 84/122/11
f 13/123/10 72/198/10 60/124/10
f 37/79/17 79/199/17 80/125/17
f 41/77/1 83/200/1 92/127/1
f 14/65/11 59/201/11 72/129/11
f 39/82/18 81/202/18 82/131/18
f 45/203/11 33/112/11 3/27/11
f 33/112/11 34/114/11 2/25/11
f 34/114/11 46/204/11 2/25/11
s 2
f 95/205/11 99/206/11 97/207/11
f 94/208/2 95/205/2 97/207/2
f 96/209/7 94/208/7 100/210/7
f 95/205/11 93/211/11 99/206/11
f 93/211/4 94/212/4 96/213/4
f 94/208/2 97/207/2 100/210/2
f 93/211/4 95/205/4 94/212/4
f 98/214/10 100/215/10 97/207/10
f 93/211/1 96/216/1 98/217/1
f 98/214/10 97/207/10 99/206/10
f 96/209/7 100/210/7 98/218/7
f 93/211/1 98/217/1 99/206/1
