# Blender v3.1.2 OBJ File: 'Resonance Levels.blend'
# www.blender.org
mtllib Glass Door 1.mtl
o Glass_Door_1_Glass_Door
v 3.098800 0.063500 -28.054298
v 3.098800 1.968500 -28.054298
v 3.098800 0.063500 -27.266899
v 3.098800 1.968500 -27.266899
v 3.022600 0.063500 -28.054298
v 3.022600 1.968500 -28.054298
v 3.022600 0.063500 -27.266899
v 3.022600 1.968500 -27.266899
v 3.098800 2.057400 -27.190699
v 3.098800 0.000000 -27.190699
v 3.022600 0.000000 -27.190699
v 3.022600 2.057400 -27.190699
v 3.098800 0.000000 -28.181299
v 3.098800 2.057400 -28.181299
v 3.022600 2.057400 -28.181299
v 3.022600 0.000000 -28.181299
v 3.047660 1.219200 -27.838379
v 3.047660 0.914400 -27.990778
v 3.047660 1.219200 -27.609783
v 3.047660 0.914400 -27.762182
v 3.047660 1.219200 -27.558979
v 3.047660 0.914400 -27.711378
v 3.047660 1.219200 -27.330383
v 3.047660 0.914400 -27.482782
v 3.047660 1.219200 -27.279579
v 3.047660 0.914400 -27.431978
v 3.047660 1.219200 -27.270706
v 3.047660 0.914400 -27.270708
v 3.047660 1.219200 -28.052626
v 3.047660 0.914400 -28.052624
v 3.047660 1.219200 -27.889183
v 3.047660 0.914400 -28.041582
v 3.073974 1.219200 -27.838379
v 3.073974 0.914400 -27.990778
v 3.073974 1.219200 -27.609783
v 3.073974 0.914400 -27.762182
v 3.073974 1.219200 -27.558979
v 3.073974 0.914400 -27.711378
v 3.073974 1.219200 -27.330383
v 3.073974 0.914400 -27.482782
v 3.073974 1.219200 -27.279579
v 3.073974 0.914400 -27.431978
v 3.073974 1.219200 -27.270706
v 3.073974 0.914400 -27.270708
v 3.073974 1.219200 -28.052626
v 3.073974 0.914400 -28.052624
v 3.073974 1.219200 -27.889183
v 3.073974 0.914400 -28.041582
vt 0.023278 0.171155
vt 0.286236 0.181673
vt 0.023278 0.181673
vt 0.011007 0.290363
vt 0.011007 0.153624
vt 0.011007 0.300882
vt 0.295001 0.290363
vt 0.295001 0.300881
vt 0.295002 0.153624
vt 0.305520 0.290363
vt 0.023278 0.016887
vt 0.295001 0.006368
vt 0.286236 0.016887
vt 0.000488 0.153624
vt 0.000488 0.290363
vt 0.295002 0.143106
vt 0.023278 0.125576
vt 0.011007 0.143106
vt 0.011007 0.006368
vt 0.286236 0.125575
vt 0.286236 0.171155
vt 0.286236 0.279844
vt 0.275718 0.125575
vt 0.033796 0.016887
vt 0.023278 0.269326
vt 0.286236 0.269326
vt 0.860470 0.915331
vt 0.902309 0.925833
vt 0.860440 0.946717
vt 0.860470 0.881316
vt 0.902309 0.891818
vt 0.860440 0.912702
vt 0.949335 0.822624
vt 0.907261 0.821400
vt 0.949335 0.821400
vt 0.995400 0.857394
vt 0.953326 0.855870
vt 0.995400 0.834833
vt 0.860470 0.915331
vt 0.902309 0.925833
vt 0.902339 0.894447
vt 0.860470 0.881316
vt 0.902309 0.891818
vt 0.902339 0.860431
vt 0.949335 0.822624
vt 0.907262 0.821400
vt 0.907261 0.843661
vt 0.995400 0.857394
vt 0.953326 0.855870
vt 0.953326 0.857394
vt 0.023278 0.279845
vt 0.305520 0.153624
vt 0.275718 0.016887
vt 0.033796 0.125576
vt 0.902339 0.894447
vt 0.902339 0.860431
vt 0.907261 0.843661
vt 0.953326 0.857394
vt 0.860440 0.946717
vt 0.860440 0.912702
vt 0.949335 0.821400
vt 0.995400 0.834833
vn 0.0000 0.0000 1.0000
vn -1.0000 -0.0000 -0.0000
vn 0.0000 -1.0000 0.0000
vn 1.0000 0.0000 0.0000
vn 0.0000 1.0000 0.0000
vn 0.0000 0.0000 -1.0000
usemtl Glass_Walls_and_Doors
s off
f 6/1/1 1/2/1 2/3/1
f 6/1/2 12/4/2 15/5/2
f 9/6/1 11/7/1 10/8/1
f 16/9/3 10/10/3 11/7/3
f 4/11/4 10/12/4 3/13/4
f 14/14/5 12/4/5 9/15/5
f 15/5/6 13/16/6 16/9/6
f 2/17/4 13/16/4 14/18/4
f 2/17/4 9/19/4 4/11/4
f 1/20/4 10/12/4 13/16/4
f 5/21/2 11/7/2 7/22/2
f 6/1/2 16/9/2 5/21/2
f 5/23/5 3/13/5 1/20/5
f 8/24/3 2/17/3 4/11/3
f 7/22/6 4/25/6 3/26/6
f 17/27/2 20/28/2 19/29/2
f 21/30/2 24/31/2 23/32/2
f 25/33/2 28/34/2 27/35/2
f 29/36/2 32/37/2 31/38/2
f 33/39/4 36/40/4 34/41/4
f 37/42/4 40/43/4 38/44/4
f 41/45/4 44/46/4 42/47/4
f 45/48/4 48/49/4 46/50/4
f 8/51/2 11/7/2 12/4/2
f 6/1/1 5/21/1 1/2/1
f 6/1/2 8/51/2 12/4/2
f 9/6/1 12/4/1 11/7/1
f 16/9/3 13/52/3 10/10/3
f 4/11/4 9/19/4 10/12/4
f 14/14/5 15/5/5 12/4/5
f 15/5/6 14/18/6 13/16/6
f 2/17/4 1/20/4 13/16/4
f 2/17/4 14/18/4 9/19/4
f 1/20/4 3/13/4 10/12/4
f 5/21/2 16/9/2 11/7/2
f 6/1/2 15/5/2 16/9/2
f 5/23/5 7/53/5 3/13/5
f 8/24/3 6/54/3 2/17/3
f 7/22/6 8/51/6 4/25/6
f 17/27/2 18/55/2 20/28/2
f 21/30/2 22/56/2 24/31/2
f 25/33/2 26/57/2 28/34/2
f 29/36/2 30/58/2 32/37/2
f 33/39/4 35/59/4 36/40/4
f 37/42/4 39/60/4 40/43/4
f 41/45/4 43/61/4 44/46/4
f 45/48/4 47/62/4 48/49/4
f 8/51/2 7/22/2 11/7/2
