# Blender v3.0.1 OBJ File: 'Resonance Levels.blend'
# www.blender.org
mtllib Magenta Door.mtl
o Door_Magenta.001
v -0.015240 0.731520 -0.045720
v -0.015240 0.944880 -0.045720
v -0.899160 0.731520 -0.045720
v -0.899160 0.944880 -0.045720
v -0.914400 0.228600 0.000000
v -0.914400 0.228600 0.091440
v -0.914400 1.752600 0.091440
v -0.914400 1.752600 0.000000
v 0.000000 1.752600 0.000000
v 0.000000 0.228600 0.000000
v 0.000000 0.228600 0.091440
v 0.000000 1.752600 0.091440
v -0.326364 0.902039 -0.116840
v -0.315939 0.873397 -0.116840
v -0.521039 0.969036 -0.116840
v -0.492397 0.979461 -0.116840
v -0.598461 0.803004 0.208280
v -0.588036 0.774362 0.208280
v -0.492397 0.979461 0.208280
v -0.521039 0.969036 0.208280
v -0.588036 0.774362 0.238760
v -0.598461 0.803004 0.238760
v -0.521039 0.969036 0.238760
v -0.492397 0.979461 0.238760
v -0.315939 0.873397 -0.147320
v -0.326364 0.902039 -0.147320
v -0.496267 0.856417 -0.150368
v -0.492397 0.979461 -0.147320
v -0.521039 0.969036 -0.147320
v -0.475417 0.799134 -0.150368
v -0.496267 0.856417 0.241808
v -0.475417 0.799134 0.241808
v -0.315939 0.873397 0.238760
v -0.326364 0.902039 0.238760
v -0.422003 0.696939 0.238760
v -0.393361 0.707364 0.238760
v -0.588036 0.774362 -0.147320
v -0.598461 0.803004 -0.147320
v -0.393361 0.707364 -0.147320
v -0.422003 0.696939 -0.147320
v -0.588036 0.774362 -0.116840
v -0.598461 0.803004 -0.116840
v -0.422003 0.696939 0.208280
v -0.393361 0.707364 0.208280
v -0.315939 0.873397 0.208280
v -0.326364 0.902039 0.208280
v -0.393361 0.707364 -0.116840
v -0.422003 0.696939 -0.116840
v -0.606629 0.825127 0.244856
v -0.580073 0.752164 0.244856
v -0.307771 0.851274 0.244856
v -0.334327 0.924237 0.244856
v -0.444127 0.688771 0.244856
v -0.371164 0.715328 0.244856
v -0.470273 0.987630 0.244856
v -0.543237 0.961073 0.244856
v -0.580073 0.752164 -0.153416
v -0.606629 0.825127 -0.153416
v -0.371164 0.715328 -0.153416
v -0.444127 0.688771 -0.153416
v -0.543237 0.961073 -0.153416
v -0.470274 0.987630 -0.153416
v -0.334327 0.924237 -0.153416
v -0.307771 0.851274 -0.153416
v -0.334327 0.924237 -0.110744
v -0.307771 0.851274 -0.110744
v -0.580073 0.752164 -0.110744
v -0.606629 0.825127 -0.110744
v -0.543237 0.961073 -0.110744
v -0.470274 0.987630 -0.110744
v -0.444127 0.688771 0.202184
v -0.371164 0.715328 0.202184
v -0.606629 0.825127 0.202184
v -0.580073 0.752164 0.202184
v -0.307771 0.851274 0.202184
v -0.334327 0.924237 0.202184
v -0.470274 0.987630 0.202184
v -0.543237 0.961073 0.202184
v -0.371164 0.715328 -0.110744
v -0.444127 0.688771 -0.110744
v -0.393807 0.974147 0.202184
v -0.393807 0.974147 0.244856
v -0.593146 0.901593 0.244856
v -0.593146 0.901593 0.202184
v -0.520593 0.702254 0.244856
v -0.520593 0.702254 0.202184
v -0.321254 0.774808 0.202184
v -0.321254 0.774808 0.244856
v -0.321254 0.774808 -0.110744
v -0.321254 0.774808 -0.153416
v -0.520593 0.702254 -0.153416
v -0.520593 0.702254 -0.110744
v -0.593146 0.901593 -0.110744
v -0.593146 0.901593 -0.153416
v -0.393807 0.974147 -0.153416
v -0.393807 0.974147 -0.110744
v -0.636993 0.822470 0.244856
v -0.605041 0.734681 0.244856
v -0.277407 0.853930 0.244856
v -0.309360 0.941719 0.244856
v -0.441470 0.658407 0.244856
v -0.353681 0.690360 0.244856
v -0.472930 1.017994 0.244856
v -0.560719 0.986041 0.244856
v -0.605041 0.734681 -0.153416
v -0.636993 0.822470 -0.153416
v -0.353681 0.690360 -0.153416
v -0.441470 0.658407 -0.153416
v -0.560719 0.986041 -0.153416
v -0.472930 1.017994 -0.153416
v -0.309360 0.941719 -0.153416
v -0.277407 0.853930 -0.153416
v -0.309360 0.941719 -0.110744
v -0.277407 0.853930 -0.110744
v -0.605041 0.734681 -0.110744
v -0.636993 0.822470 -0.110744
v -0.560719 0.986041 -0.110744
v -0.472930 1.017994 -0.110744
v -0.441470 0.658407 0.202184
v -0.353681 0.690360 0.202184
v -0.636993 0.822470 0.202184
v -0.605041 0.734681 0.202184
v -0.277407 0.853930 0.202184
v -0.309360 0.941719 0.202184
v -0.472930 1.017994 0.202184
v -0.560719 0.986041 0.202184
v -0.353681 0.690360 -0.110744
v -0.441470 0.658407 -0.110744
v -0.380926 1.001771 0.202184
v -0.380926 1.001771 0.244856
v -0.620771 0.914474 0.244856
v -0.620771 0.914474 0.202184
v -0.533474 0.674630 0.244856
v -0.533474 0.674630 0.202184
v -0.293630 0.761926 0.202184
v -0.293630 0.761926 0.244856
v -0.293630 0.761926 -0.110744
v -0.293630 0.761926 -0.153416
v -0.533474 0.674630 -0.153416
v -0.533474 0.674630 -0.110744
v -0.620771 0.914474 -0.110744
v -0.620771 0.914474 -0.153416
v -0.380926 1.001771 -0.153416
v -0.380926 1.001771 -0.110744
v -0.228600 0.000000 0.000000
v -0.640080 1.935480 0.106680
v -0.640080 0.045720 0.106680
v -0.640080 1.935480 -0.015240
v -0.640080 0.045720 -0.015240
v -0.418133 0.819983 0.241808
v -0.438983 0.877267 0.241808
v -0.418133 0.819983 -0.150368
v -0.438983 0.877267 -0.150368
v -0.274320 0.045720 0.106680
v -0.274320 1.935480 0.106680
v -0.274320 0.045720 -0.015240
v -0.274320 1.935480 -0.015240
v -0.685800 0.000000 0.000000
v -0.685800 1.981200 0.000000
v -0.228600 1.981200 0.000000
v -0.685800 0.000000 0.091440
v -0.228600 0.000000 0.091440
v -0.228600 1.981200 0.091440
v -0.685800 1.981200 0.091440
v 0.000000 0.975360 0.000000
v 0.000000 0.701040 0.000000
v -0.914400 0.975360 0.000000
v -0.914400 0.701040 0.000000
v -0.899160 0.944880 0.137160
v -0.899160 0.731520 0.137160
v -0.015240 0.731520 0.137160
v -0.015240 0.944880 0.137160
v 0.000000 0.701040 0.091440
v 0.000000 0.975360 0.091440
v -0.914400 0.975360 0.091440
v -0.914400 0.701040 0.091440
vt 0.534304 0.019486
vt 0.490485 0.044076
vt 0.524618 0.009832
vt 0.452237 0.005766
vt 0.382983 0.019687
vt 0.382970 0.005833
vt 0.383477 0.329841
vt 0.452731 0.315920
vt 0.452744 0.329774
vt 0.604052 0.315720
vt 0.647871 0.291130
vt 0.613738 0.325375
vt 0.613226 0.009733
vt 0.637816 0.053552
vt 0.603571 0.019419
vt 0.525130 0.325473
vt 0.500540 0.281654
vt 0.534784 0.315788
vt 0.486495 0.053752
vt 0.486864 0.281677
vt 0.348850 0.053931
vt 0.335543 0.281877
vt 0.335175 0.053953
vt 0.500171 0.053730
vt 0.638185 0.281476
vt 0.349219 0.281855
vt 0.445469 0.308692
vt 0.390246 0.026914
vt 0.445048 0.026915
vt 0.541566 0.026714
vt 0.596789 0.308492
vt 0.541987 0.308492
vt 0.596369 0.026714
vt 0.452251 0.019619
vt 0.383463 0.315988
vt 0.390666 0.308692
vt 0.647470 0.043866
vt 0.490886 0.291340
vt 0.681132 0.911267
vt 0.717737 0.915120
vt 0.681132 0.915120
vt 0.681131 0.918973
vt 0.717737 0.922826
vt 0.681131 0.922826
vt 0.717737 0.918973
vt 0.717737 0.907414
vt 0.717737 0.911267
vt 0.681131 0.907414
vt 0.728155 0.944019
vt 0.732008 0.907414
vt 0.732008 0.944019
vt 0.735861 0.944019
vt 0.735861 0.907414
vt 0.724302 0.944019
vt 0.728155 0.907414
vt 0.739715 0.907414
vt 0.739715 0.944019
vt 0.724302 0.907414
vt 0.681131 0.955222
vt 0.717737 0.951369
vt 0.717737 0.955222
vt 0.681131 0.962928
vt 0.717737 0.966781
vt 0.681131 0.966781
vt 0.717737 0.959075
vt 0.681131 0.959075
vt 0.717737 0.962928
vt 0.681131 0.951369
vt 0.717737 0.933244
vt 0.681131 0.937098
vt 0.681131 0.933244
vt 0.717737 0.944804
vt 0.681131 0.940951
vt 0.717737 0.940951
vt 0.681131 0.929391
vt 0.717737 0.929391
vt 0.717737 0.937098
vt 0.681131 0.944804
vt 0.777793 0.877288
vt 0.769791 0.871690
vt 0.774632 0.870523
vt 0.797743 0.856866
vt 0.806302 0.862518
vt 0.800952 0.863716
vt 0.797226 0.877918
vt 0.792081 0.886422
vt 0.790923 0.881444
vt 0.784668 0.852879
vt 0.774917 0.852945
vt 0.783356 0.847775
vt 0.769989 0.861625
vt 0.774777 0.862827
vt 0.793122 0.848369
vt 0.791640 0.852941
vt 0.800920 0.871338
vt 0.805730 0.872784
vt 0.782358 0.885736
vt 0.783890 0.881191
vt 0.800453 0.881273
vt 0.778473 0.856390
vt 0.765969 0.872647
vt 0.766565 0.887651
vt 0.759434 0.873979
vt 0.810222 0.861552
vt 0.809198 0.846182
vt 0.816365 0.860056
vt 0.792920 0.890142
vt 0.808091 0.889400
vt 0.794184 0.896081
vt 0.782485 0.844281
vt 0.767878 0.845275
vt 0.781051 0.838462
vt 0.765967 0.860494
vt 0.759645 0.858404
vt 0.794213 0.844714
vt 0.795789 0.838425
vt 0.816365 0.875643
vt 0.809796 0.873987
vt 0.781243 0.889113
vt 0.779510 0.895299
vt 0.803151 0.884162
vt 0.772199 0.850142
vt 0.821277 0.874327
vt 0.821277 0.861372
vt 0.820132 0.856626
vt 0.814175 0.845095
vt 0.774492 0.880271
vt 0.771715 0.882877
vt 0.763045 0.843789
vt 0.756202 0.854701
vt 0.765248 0.892376
vt 0.776006 0.898733
vt 0.797463 0.899900
vt 0.809023 0.894347
vt 0.766843 0.840549
vt 0.794533 0.833784
vt 0.782284 0.833814
vt 0.813125 0.890846
vt 0.820002 0.879412
vt 0.804007 0.851069
vt 0.754718 0.859653
vt 0.754543 0.872598
vt 0.780502 0.899989
vt 0.792698 0.900640
vt 0.755727 0.877381
vt 0.761654 0.888744
vt 0.801181 0.853769
vt 0.810510 0.841301
vt 0.799366 0.834854
vt 0.777792 0.834886
vt 0.704330 0.878075
vt 0.696288 0.872980
vt 0.700860 0.871750
vt 0.724230 0.877301
vt 0.719361 0.886250
vt 0.717811 0.881065
vt 0.704811 0.857726
vt 0.709526 0.848997
vt 0.711076 0.853706
vt 0.724550 0.857012
vt 0.732856 0.861996
vt 0.728082 0.863297
vt 0.727877 0.853464
vt 0.718304 0.853453
vt 0.719337 0.848662
vt 0.727916 0.880854
vt 0.728026 0.870826
vt 0.732882 0.872048
vt 0.710630 0.881520
vt 0.709426 0.886214
vt 0.701096 0.854290
vt 0.701027 0.864268
vt 0.696205 0.863046
vt 0.701168 0.881270
vt 0.692406 0.874031
vt 0.693727 0.888863
vt 0.685980 0.875598
vt 0.720417 0.890028
vt 0.735336 0.888391
vt 0.722013 0.895921
vt 0.708444 0.845284
vt 0.693630 0.846837
vt 0.706730 0.838900
vt 0.736609 0.861028
vt 0.735385 0.846129
vt 0.743097 0.859460
vt 0.722041 0.838582
vt 0.730596 0.850735
vt 0.720280 0.844949
vt 0.743097 0.874951
vt 0.730713 0.883632
vt 0.736660 0.873070
vt 0.706992 0.896133
vt 0.708467 0.889851
vt 0.686029 0.860200
vt 0.698297 0.851560
vt 0.692430 0.862056
vt 0.698649 0.883834
vt 0.720812 0.900673
vt 0.746677 0.878531
vt 0.682460 0.856676
vt 0.740237 0.844825
vt 0.703580 0.899699
vt 0.681131 0.874282
vt 0.682454 0.879160
vt 0.688892 0.890184
vt 0.725547 0.835014
vt 0.736584 0.893225
vt 0.707923 0.834048
vt 0.747978 0.860768
vt 0.692235 0.842039
vt 0.708327 0.900849
vt 0.740227 0.889702
vt 0.688777 0.845570
vt 0.746646 0.855904
vt 0.692556 0.893657
vt 0.681172 0.861484
vt 0.736636 0.841287
vt 0.725511 0.899484
vt 0.720648 0.833784
vt 0.747978 0.873643
vt 0.703122 0.835442
vt 0.691851 0.372199
vt 0.826370 0.363978
vt 0.828650 0.372199
vt 0.833580 0.327499
vt 0.833580 0.368538
vt 0.694130 0.332058
vt 0.828650 0.323838
vt 0.826370 0.332058
vt 0.694130 0.363978
vt 0.686921 0.327499
vt 0.691851 0.323838
vt 0.686921 0.368538
vt 0.762249 0.964489
vt 0.769956 0.914911
vt 0.769956 0.964489
vt 0.785369 0.914911
vt 0.777662 0.964489
vt 0.777662 0.914911
vt 0.762249 0.914911
vt 0.754543 0.964489
vt 0.754543 0.914911
vt 0.754543 0.972195
vt 0.762249 0.972195
vt 0.754543 0.907204
vt 0.762249 0.907204
vt 0.785369 0.964489
vt 0.694131 0.363978
vt 0.826370 0.332058
vt 0.826370 0.363978
vt 0.828650 0.372199
vt 0.833580 0.327499
vt 0.833580 0.368538
vt 0.694131 0.332058
vt 0.828650 0.323838
vt 0.686921 0.327499
vt 0.691851 0.372199
vt 0.691851 0.323838
vt 0.686921 0.368538
vn 0.7071 -0.7071 0.0000
vn 0.0000 -1.0000 0.0000
vn 0.0000 1.0000 0.0000
vn -0.7071 0.7071 0.0000
vn -0.7071 -0.7071 0.0000
vn 0.7071 0.7071 0.0000
vn 0.0000 0.0000 1.0000
vn -1.0000 0.0000 0.0000
vn 0.0000 0.0000 -1.0000
vn 1.0000 0.0000 0.0000
vn 0.0000 -0.3162 -0.9487
vn 0.0000 0.3162 -0.9487
vn 0.0000 -0.3162 0.9487
vn 0.0000 0.3162 0.9487
vn -0.3162 0.0000 0.9487
vn 0.3162 0.0000 0.9487
vn 0.3162 0.0000 -0.9487
vn -0.3162 0.0000 -0.9487
vn -0.9397 -0.3420 0.0000
vn 0.9397 0.3420 0.0000
vn -0.3420 0.9397 0.0000
vn 0.3420 -0.9397 0.0000
vn -0.9848 0.1736 0.0000
vn 0.6428 0.7660 0.0000
vn 0.9848 -0.1736 0.0000
vn -0.6428 -0.7660 0.0000
vn -0.1736 -0.9848 0.0000
vn 0.7660 -0.6428 0.0000
vn 0.1736 0.9848 0.0000
vn -0.7660 0.6428 0.0000
vn 0.0000 0.8321 -0.5547
vn 0.0000 0.8320 -0.5547
vn -0.9487 0.0000 -0.3162
vn 0.0000 -0.8321 -0.5547
vn 0.9487 0.0000 -0.3162
vn 0.0000 0.8321 0.5547
vn 0.0000 0.8320 0.5547
vn 0.9487 0.0000 0.3162
vn 0.0000 -0.8321 0.5547
vn -0.9487 0.0000 0.3162
usemtl Door
s 1
f 145/1/1 11/2/1 162/3/1
f 145/4/2 161/5/2 158/6/2
f 159/7/3 163/8/3 160/9/3
f 159/10/4 7/11/4 164/12/4
f 161/13/5 5/14/5 158/15/5
f 163/16/6 9/17/6 160/18/6
f 163/8/7 11/19/7 12/20/7
f 6/21/8 8/22/8 5/23/8
f 145/1/9 9/17/9 10/24/9
f 11/19/10 9/17/10 12/20/10
f 158/15/9 8/25/9 159/10/9
f 161/5/7 7/26/7 6/21/7
f 155/27/7 147/28/7 154/29/7
f 156/30/9 148/31/9 157/32/9
f 156/30/11 158/15/11 149/33/11
f 157/32/12 159/10/12 160/18/12
f 147/28/13 162/34/13 154/29/13
f 155/27/14 164/35/14 146/36/14
f 146/36/15 161/5/15 147/28/15
f 154/29/16 163/8/16 155/27/16
f 157/32/17 145/1/17 156/30/17
f 149/33/18 159/10/18 148/31/18
f 145/1/1 10/24/1 11/2/1
f 145/4/2 162/34/2 161/5/2
f 159/7/3 164/35/3 163/8/3
f 159/10/4 8/25/4 7/11/4
f 161/13/5 6/37/5 5/14/5
f 163/16/6 12/38/6 9/17/6
f 163/8/7 162/34/7 11/19/7
f 6/21/8 7/26/8 8/22/8
f 145/1/9 160/18/9 9/17/9
f 11/19/10 10/24/10 9/17/10
f 158/15/9 5/14/9 8/25/9
f 161/5/7 164/35/7 7/26/7
f 155/27/7 146/36/7 147/28/7
f 156/30/9 149/33/9 148/31/9
f 156/30/11 145/1/11 158/15/11
f 157/32/12 148/31/12 159/10/12
f 147/28/13 161/5/13 162/34/13
f 155/27/14 163/8/14 164/35/14
f 146/36/15 164/35/15 161/5/15
f 154/29/16 162/34/16 163/8/16
f 157/32/17 160/18/17 145/1/17
f 149/33/18 158/15/18 159/10/18
s 2
f 20/39/19 35/40/19 23/41/19
f 24/42/20 44/43/20 19/44/20
f 23/41/7 36/45/7 24/42/7
f 20/39/9 44/46/9 43/47/9
f 20/39/19 43/47/19 35/40/19
f 24/42/20 36/45/20 44/43/20
f 23/41/7 35/40/7 36/45/7
f 20/39/9 19/48/9 44/46/9
s 3
f 16/49/20 39/50/20 28/51/20
f 29/52/9 39/50/9 40/53/9
f 15/54/7 47/55/7 16/49/7
f 29/52/19 48/56/19 15/57/19
f 16/49/20 47/55/20 39/50/20
f 29/52/9 28/51/9 39/50/9
f 15/54/7 48/58/7 47/55/7
f 29/52/19 40/53/19 48/56/19
s 4
f 18/59/9 46/60/9 45/61/9
f 22/62/21 46/63/21 17/64/21
f 18/59/22 33/65/22 21/66/22
f 21/66/7 34/67/7 22/62/7
f 18/59/9 17/68/9 46/60/9
f 22/62/21 34/67/21 46/63/21
f 18/59/22 45/61/22 33/65/22
f 21/66/7 33/65/7 34/67/7
s 5
f 26/69/9 37/70/9 38/71/9
f 13/72/7 41/73/7 14/74/7
f 26/69/21 42/75/21 13/76/21
f 14/74/22 37/70/22 25/77/22
f 26/69/9 25/77/9 37/70/9
f 13/72/7 42/78/7 41/73/7
f 26/69/21 38/71/21 42/75/21
f 14/74/22 41/73/22 37/70/22
s 6
f 65/79/19 64/80/19 66/81/19
f 67/82/20 58/83/20 68/84/20
f 69/85/22 62/86/22 70/87/22
f 80/88/21 59/89/21 60/90/21
f 66/81/23 90/91/23 89/92/23
f 91/93/24 67/82/24 92/94/24
f 93/95/25 58/83/25 94/96/25
f 95/97/26 65/79/26 96/98/26
f 62/86/27 96/98/27 70/87/27
f 69/85/28 94/96/28 61/99/28
f 60/90/29 92/94/29 80/88/29
f 79/100/30 90/91/30 59/89/30
f 112/101/20 113/102/20 114/103/20
f 106/104/19 115/105/19 116/106/19
f 110/107/21 117/108/21 118/109/21
f 108/110/22 127/111/22 128/112/22
f 138/113/25 114/103/25 137/114/25
f 115/105/26 139/115/26 140/116/26
f 106/104/23 141/117/23 142/118/23
f 113/102/24 143/119/24 144/120/24
f 144/120/29 110/107/29 118/109/29
f 142/118/30 117/108/30 109/121/30
f 140/116/27 108/110/27 128/112/27
f 107/122/28 137/114/28 127/111/28
f 93/123/7 116/106/7 68/124/7
f 68/125/7 115/105/7 67/126/7
f 94/96/9 106/104/9 142/118/9
f 63/127/9 143/119/9 111/128/9
f 79/129/7 137/114/7 89/130/7
f 65/131/7 144/120/7 96/132/7
f 70/133/7 117/108/7 69/134/7
f 59/89/9 138/113/9 107/122/9
f 91/93/9 108/110/9 139/115/9
f 79/135/7 128/112/7 127/111/7
f 92/136/7 128/112/7 80/137/7
f 69/138/7 141/117/7 93/139/7
f 58/83/9 105/140/9 106/104/9
f 61/99/9 142/118/9 109/121/9
f 59/89/9 108/110/9 60/90/9
f 95/97/9 110/107/9 143/119/9
f 62/86/9 109/121/9 110/107/9
f 89/141/7 114/103/7 66/142/7
f 96/143/7 118/109/7 70/144/7
f 64/80/9 111/128/9 112/101/9
f 90/91/9 112/101/9 138/113/9
f 66/145/7 113/102/7 65/146/7
f 57/147/9 139/115/9 105/140/9
f 67/148/7 140/116/7 92/149/7
f 65/79/19 63/127/19 64/80/19
f 67/82/20 57/147/20 58/83/20
f 69/85/22 61/99/22 62/86/22
f 80/88/21 79/100/21 59/89/21
f 66/81/23 64/80/23 90/91/23
f 91/93/24 57/147/24 67/82/24
f 93/95/25 68/84/25 58/83/25
f 95/97/26 63/127/26 65/79/26
f 62/86/27 95/97/27 96/98/27
f 69/85/28 93/95/28 94/96/28
f 60/90/29 91/93/29 92/94/29
f 79/100/30 89/92/30 90/91/30
f 112/101/20 111/128/20 113/102/20
f 106/104/19 105/140/19 115/105/19
f 110/107/21 109/121/21 117/108/21
f 108/110/22 107/122/22 127/111/22
f 138/113/25 112/101/25 114/103/25
f 115/105/26 105/140/26 139/115/26
f 106/104/23 116/106/23 141/117/23
f 113/102/24 111/128/24 143/119/24
f 144/120/29 143/119/29 110/107/29
f 142/118/30 141/117/30 117/108/30
f 140/116/27 139/115/27 108/110/27
f 107/122/28 138/113/28 137/114/28
f 93/123/7 141/117/7 116/106/7
f 68/125/7 116/106/7 115/105/7
f 94/96/9 58/83/9 106/104/9
f 63/127/9 95/97/9 143/119/9
f 79/129/7 127/111/7 137/114/7
f 65/131/7 113/102/7 144/120/7
f 70/133/7 118/109/7 117/108/7
f 59/89/9 90/91/9 138/113/9
f 91/93/9 60/90/9 108/110/9
f 79/135/7 80/150/7 128/112/7
f 92/136/7 140/116/7 128/112/7
f 69/138/7 117/108/7 141/117/7
f 58/83/9 57/147/9 105/140/9
f 61/99/9 94/96/9 142/118/9
f 59/89/9 107/122/9 108/110/9
f 95/97/9 62/86/9 110/107/9
f 62/86/9 61/99/9 109/121/9
f 89/141/7 137/114/7 114/103/7
f 96/143/7 144/120/7 118/109/7
f 64/80/9 63/127/9 111/128/9
f 90/91/9 64/80/9 112/101/9
f 66/145/7 114/103/7 113/102/7
f 57/147/9 91/93/9 139/115/9
f 67/148/7 115/105/7 140/116/7
s 7
f 71/151/21 54/152/21 72/153/21
f 73/154/20 50/155/20 74/156/20
f 75/157/19 52/158/19 76/159/19
f 77/160/22 56/161/22 78/162/22
f 55/163/27 81/164/27 82/165/27
f 49/166/25 84/167/25 83/168/25
f 86/169/24 50/155/24 85/170/24
f 51/171/23 87/172/23 88/173/23
f 88/173/30 72/153/30 54/152/30
f 71/151/29 85/170/29 53/174/29
f 83/168/28 78/162/28 56/161/28
f 82/165/26 76/159/26 52/158/26
f 102/175/22 119/176/22 120/177/22
f 98/178/19 121/179/19 122/180/19
f 100/181/20 123/182/20 124/183/20
f 104/184/21 125/185/21 126/186/21
f 129/187/29 103/188/29 130/189/29
f 132/190/23 97/191/23 131/192/23
f 98/178/26 134/193/26 133/194/26
f 135/195/25 99/196/25 136/197/25
f 120/177/28 136/197/28 102/175/28
f 133/194/27 119/176/27 101/198/27
f 126/186/30 131/192/30 104/184/30
f 124/183/24 130/189/24 100/181/24
f 74/199/9 134/193/9 122/180/9
f 84/200/9 121/179/9 132/190/9
f 87/201/9 123/182/9 135/195/9
f 85/170/7 101/198/7 53/174/7
f 88/173/7 99/196/7 51/171/7
f 77/202/9 126/186/9 125/185/9
f 86/203/9 119/176/9 134/193/9
f 49/166/7 98/178/7 50/155/7
f 72/204/9 135/195/9 120/177/9
f 51/171/7 100/181/7 52/158/7
f 54/152/7 136/197/7 88/173/7
f 54/152/7 101/198/7 102/175/7
f 55/163/7 104/184/7 56/161/7
f 72/205/9 119/176/9 71/206/9
f 81/207/9 125/185/9 129/187/9
f 82/165/7 103/188/7 55/163/7
f 73/208/9 122/180/9 121/179/9
f 56/161/7 131/192/7 83/168/7
f 76/209/9 129/187/9 124/183/9
f 78/210/9 132/190/9 126/186/9
f 52/158/7 130/189/7 82/165/7
f 50/155/7 133/194/7 85/170/7
f 75/211/9 124/183/9 123/182/9
f 83/168/7 97/191/7 49/166/7
f 71/151/21 53/174/21 54/152/21
f 73/154/20 49/166/20 50/155/20
f 75/157/19 51/171/19 52/158/19
f 77/160/22 55/163/22 56/161/22
f 55/163/27 77/160/27 81/164/27
f 49/166/25 73/154/25 84/167/25
f 86/169/24 74/156/24 50/155/24
f 51/171/23 75/157/23 87/172/23
f 88/173/30 87/172/30 72/153/30
f 71/151/29 86/169/29 85/170/29
f 83/168/28 84/167/28 78/162/28
f 82/165/26 81/164/26 76/159/26
f 102/175/22 101/198/22 119/176/22
f 98/178/19 97/191/19 121/179/19
f 100/181/20 99/196/20 123/182/20
f 104/184/21 103/188/21 125/185/21
f 129/187/29 125/185/29 103/188/29
f 132/190/23 121/179/23 97/191/23
f 98/178/26 122/180/26 134/193/26
f 135/195/25 123/182/25 99/196/25
f 120/177/28 135/195/28 136/197/28
f 133/194/27 134/193/27 119/176/27
f 126/186/30 132/190/30 131/192/30
f 124/183/24 129/187/24 130/189/24
f 74/199/9 86/212/9 134/193/9
f 84/200/9 73/213/9 121/179/9
f 87/201/9 75/214/9 123/182/9
f 85/170/7 133/194/7 101/198/7
f 88/173/7 136/197/7 99/196/7
f 77/202/9 78/215/9 126/186/9
f 86/203/9 71/216/9 119/176/9
f 49/166/7 97/191/7 98/178/7
f 72/204/9 87/217/9 135/195/9
f 51/171/7 99/196/7 100/181/7
f 54/152/7 102/175/7 136/197/7
f 54/152/7 53/174/7 101/198/7
f 55/163/7 103/188/7 104/184/7
f 72/205/9 120/177/9 119/176/9
f 81/207/9 77/218/9 125/185/9
f 82/165/7 130/189/7 103/188/7
f 73/208/9 74/219/9 122/180/9
f 56/161/7 104/184/7 131/192/7
f 76/209/9 81/220/9 129/187/9
f 78/210/9 84/221/9 132/190/9
f 52/158/7 100/181/7 130/189/7
f 50/155/7 98/178/7 133/194/7
f 75/211/9 76/222/9 124/183/9
f 83/168/7 131/192/7 97/191/7
s 8
f 165/223/31 4/224/32 167/225/32
f 4/224/33 168/226/33 167/227/33
f 1/228/34 168/229/34 3/230/34
f 2/231/35 166/232/35 1/228/35
f 2/231/9 3/230/9 4/224/9
f 165/223/31 2/231/31 4/224/32
f 4/224/33 3/230/33 168/226/33
f 1/228/34 166/233/34 168/229/34
f 2/231/35 165/234/35 166/232/35
f 2/231/9 1/228/9 3/230/9
s 9
f 31/235/19 30/236/19 32/237/19
f 153/238/20 150/239/20 152/240/20
f 27/241/21 151/242/21 153/243/21
f 152/240/22 32/237/22 30/236/22
f 150/244/7 31/235/7 32/245/7
f 27/241/9 152/246/9 30/247/9
f 31/235/19 27/241/19 30/236/19
f 153/238/20 151/248/20 150/239/20
f 27/241/21 31/235/21 151/242/21
f 152/240/22 150/239/22 32/237/22
f 150/244/7 151/242/7 31/235/7
f 27/241/9 153/243/9 152/246/9
s 10
f 169/249/7 171/250/7 172/251/7
f 174/252/36 169/249/37 172/251/36
f 172/251/38 173/253/38 174/254/38
f 170/255/39 173/256/39 171/250/39
f 169/249/40 176/257/40 170/255/40
f 169/249/7 170/255/7 171/250/7
f 174/252/36 175/258/37 169/249/37
f 172/251/38 171/250/38 173/253/38
f 170/255/39 176/259/39 173/256/39
f 169/249/40 175/260/40 176/257/40
