# Blender v2.83.0 OBJ File: 'soundRing.blend'
# www.blender.org
mtllib soundRing.mtl
o Circle
v 1.000000 0.000000 0.000000
v 0.980785 -0.195090 0.000000
v 0.923880 -0.382683 0.000000
v 0.831470 -0.555570 0.000000
v 0.707107 -0.707107 0.000000
v 0.555570 -0.831470 0.000000
v 0.382683 -0.923880 0.000000
v 0.195090 -0.980785 0.000000
v 0.000000 -1.000000 0.000000
v -0.195090 -0.980785 0.000000
v -0.382683 -0.923880 0.000000
v -0.555570 -0.831470 0.000000
v -0.707107 -0.707107 0.000000
v -0.831470 -0.555570 0.000000
v -0.923880 -0.382683 0.000000
v -0.980785 -0.195090 0.000000
v -1.000000 0.000000 0.000000
v -0.980785 0.195091 0.000000
v -0.923879 0.382684 0.000000
v -0.831469 0.555571 0.000000
v -0.707106 0.707107 0.000000
v -0.555570 0.831470 0.000000
v -0.382683 0.923880 0.000000
v -0.195089 0.980785 0.000000
v 0.000001 1.000000 0.000000
v 0.195091 0.980785 0.000000
v 0.382684 0.923879 0.000000
v 0.555571 0.831469 0.000000
v 0.707108 0.707106 0.000000
v 0.831470 0.555569 0.000000
v 0.923880 0.382682 0.000000
v 0.980786 0.195089 0.000000
v 1.178225 0.000000 0.000000
v 1.155586 -0.229860 0.000000
v 1.088538 -0.450887 0.000000
v 0.979658 -0.654587 0.000000
v 0.833131 -0.833131 0.000000
v 0.654587 -0.979658 0.000000
v 0.450887 -1.088538 0.000000
v 0.229860 -1.155586 0.000000
v 0.000000 -1.178225 0.000000
v -0.229860 -1.155586 0.000000
v -0.450887 -1.088538 0.000000
v -0.654587 -0.979658 0.000000
v -0.833131 -0.833131 0.000000
v -0.979658 -0.654587 0.000000
v -1.088538 -0.450887 0.000000
v -1.155586 -0.229860 0.000000
v -1.178225 0.000000 0.000000
v -1.155586 0.229861 0.000000
v -1.088538 0.450888 0.000000
v -0.979658 0.654587 0.000000
v -0.833130 0.833131 0.000000
v -0.654586 0.979659 0.000000
v -0.450886 1.088538 0.000000
v -0.229859 1.155586 0.000000
v 0.000001 1.178225 0.000000
v 0.229861 1.155585 0.000000
v 0.450888 1.088537 0.000000
v 0.654588 0.979657 0.000000
v 0.833132 0.833130 0.000000
v 0.979659 0.654585 0.000000
v 1.088538 0.450886 0.000000
v 1.155586 0.229859 0.000000
vt 0.000000 0.000000
vt 0.000000 0.000000
vt 0.000000 0.000000
vt 0.000000 0.000000
vt 0.000000 0.000000
vt 0.000000 0.000000
vt 0.000000 0.000000
vt 0.000000 0.000000
vt 0.000000 0.000000
vt 0.000000 0.000000
vt 0.000000 0.000000
vt 0.000000 0.000000
vt 0.000000 0.000000
vt 0.000000 0.000000
vt 0.000000 0.000000
vt 0.000000 0.000000
vt 0.000000 0.000000
vt 0.000000 0.000000
vt 0.000000 0.000000
vt 0.000000 0.000000
vt 0.000000 0.000000
vt 0.000000 0.000000
vt 0.000000 0.000000
vt 0.000000 0.000000
vt 0.000000 0.000000
vt 0.000000 0.000000
vt 0.000000 0.000000
vt 0.000000 0.000000
vt 0.000000 0.000000
vt 0.000000 0.000000
vt 0.000000 0.000000
vt 0.000000 0.000000
vt 0.000000 0.000000
vt 0.000000 0.000000
vt 0.000000 0.000000
vt 0.000000 0.000000
vt 0.000000 0.000000
vt 0.000000 0.000000
vt 0.000000 0.000000
vt 0.000000 0.000000
vt 0.000000 0.000000
vt 0.000000 0.000000
vt 0.000000 0.000000
vt 0.000000 0.000000
vt 0.000000 0.000000
vt 0.000000 0.000000
vt 0.000000 0.000000
vt 0.000000 0.000000
vt 0.000000 0.000000
vt 0.000000 0.000000
vt 0.000000 0.000000
vt 0.000000 0.000000
vt 0.000000 0.000000
vt 0.000000 0.000000
vt 0.000000 0.000000
vt 0.000000 0.000000
vt 0.000000 0.000000
vt 0.000000 0.000000
vt 0.000000 0.000000
vt 0.000000 0.000000
vt 0.000000 0.000000
vt 0.000000 0.000000
vt 0.000000 0.000000
vt 0.000000 0.000000
vn 0.0000 0.0000 1.0000
usemtl None
s off
f 14/1/1 45/2/1 13/3/1
f 28/4/1 59/5/1 27/6/1
f 15/7/1 46/8/1 14/1/1
f 1/9/1 34/10/1 33/11/1
f 28/4/1 61/12/1 60/13/1
f 16/14/1 47/15/1 15/7/1
f 3/16/1 34/10/1 2/17/1
f 30/18/1 61/12/1 29/19/1
f 17/20/1 48/21/1 16/14/1
f 4/22/1 35/23/1 3/16/1
f 30/18/1 63/24/1 62/25/1
f 18/26/1 49/27/1 17/20/1
f 5/28/1 36/29/1 4/22/1
f 31/30/1 64/31/1 63/24/1
f 19/32/1 50/33/1 18/26/1
f 6/34/1 37/35/1 5/28/1
f 1/9/1 64/31/1 32/36/1
f 19/32/1 52/37/1 51/38/1
f 7/39/1 38/40/1 6/34/1
f 20/41/1 53/42/1 52/37/1
f 8/43/1 39/44/1 7/39/1
f 21/45/1 54/46/1 53/42/1
f 9/47/1 40/48/1 8/43/1
f 22/49/1 55/50/1 54/46/1
f 10/51/1 41/52/1 9/47/1
f 23/53/1 56/54/1 55/50/1
f 11/55/1 42/56/1 10/51/1
f 24/57/1 57/58/1 56/54/1
f 12/59/1 43/60/1 11/55/1
f 25/61/1 58/62/1 57/58/1
f 13/3/1 44/63/1 12/59/1
f 27/6/1 58/62/1 26/64/1
f 14/1/1 46/8/1 45/2/1
f 28/4/1 60/13/1 59/5/1
f 15/7/1 47/15/1 46/8/1
f 1/9/1 2/17/1 34/10/1
f 28/4/1 29/19/1 61/12/1
f 16/14/1 48/21/1 47/15/1
f 3/16/1 35/23/1 34/10/1
f 30/18/1 62/25/1 61/12/1
f 17/20/1 49/27/1 48/21/1
f 4/22/1 36/29/1 35/23/1
f 30/18/1 31/30/1 63/24/1
f 18/26/1 50/33/1 49/27/1
f 5/28/1 37/35/1 36/29/1
f 31/30/1 32/36/1 64/31/1
f 19/32/1 51/38/1 50/33/1
f 6/34/1 38/40/1 37/35/1
f 1/9/1 33/11/1 64/31/1
f 19/32/1 20/41/1 52/37/1
f 7/39/1 39/44/1 38/40/1
f 20/41/1 21/45/1 53/42/1
f 8/43/1 40/48/1 39/44/1
f 21/45/1 22/49/1 54/46/1
f 9/47/1 41/52/1 40/48/1
f 22/49/1 23/53/1 55/50/1
f 10/51/1 42/56/1 41/52/1
f 23/53/1 24/57/1 56/54/1
f 11/55/1 43/60/1 42/56/1
f 24/57/1 25/61/1 57/58/1
f 12/59/1 44/63/1 43/60/1
f 25/61/1 26/64/1 58/62/1
f 13/3/1 45/2/1 44/63/1
f 27/6/1 59/5/1 58/62/1
