# Blender v3.1.2 OBJ File: 'Resonance Levels.blend'
# www.blender.org
mtllib Static Valve 2.mtl
o Non-Interactable_Valve.005_Non_Interactable_Valve.001
v -3.609974 0.733346 -25.702261
v -3.609974 0.717286 -25.702261
v -3.616056 0.733346 -25.676640
v -3.616056 0.717286 -25.676640
v -3.606167 0.733346 -25.652765
v -3.606167 0.717286 -25.652765
v -3.583750 0.733346 -25.638948
v -3.583750 0.717286 -25.638948
v -3.569934 0.733346 -25.616531
v -3.569934 0.717286 -25.616531
v -3.546060 0.733346 -25.606644
v -3.546060 0.717286 -25.606644
v -3.520439 0.733346 -25.612724
v -3.520439 0.717286 -25.612724
v -3.494818 0.733346 -25.606644
v -3.494818 0.717286 -25.606644
v -3.470944 0.733346 -25.616531
v -3.470944 0.717286 -25.616531
v -3.457128 0.733346 -25.638948
v -3.457128 0.717286 -25.638948
v -3.434711 0.733346 -25.652765
v -3.434711 0.717286 -25.652765
v -3.424822 0.733346 -25.676640
v -3.424822 0.717286 -25.676640
v -3.430904 0.733346 -25.702261
v -3.430904 0.717286 -25.702261
v -3.424822 0.733346 -25.727880
v -3.424822 0.717286 -25.727880
v -3.434711 0.733346 -25.751755
v -3.434711 0.717286 -25.751755
v -3.457128 0.733346 -25.765572
v -3.457128 0.717286 -25.765572
v -3.470944 0.733346 -25.787989
v -3.470944 0.717286 -25.787989
v -3.494818 0.733346 -25.797878
v -3.494818 0.717286 -25.797878
v -3.520439 0.733346 -25.791796
v -3.520439 0.717286 -25.791796
v -3.546060 0.733346 -25.797878
v -3.546060 0.717286 -25.797878
v -3.569934 0.733345 -25.787989
v -3.569934 0.717286 -25.787989
v -3.583750 0.733345 -25.765572
v -3.583750 0.717286 -25.765572
v -3.606167 0.733345 -25.751755
v -3.606167 0.717286 -25.751755
v -3.616056 0.733346 -25.727880
v -3.616056 0.717286 -25.727880
v -3.644498 0.733346 -25.702261
v -3.652925 0.733346 -25.666761
v -3.652925 0.717286 -25.666761
v -3.644498 0.717286 -25.702261
v -3.639223 0.733346 -25.633680
v -3.639223 0.717286 -25.633680
v -3.608162 0.733346 -25.614536
v -3.608162 0.717286 -25.614536
v -3.589019 0.733346 -25.583477
v -3.589019 0.717286 -25.583477
v -3.555939 0.733346 -25.569775
v -3.555939 0.717286 -25.569775
v -3.520439 0.733346 -25.578201
v -3.520439 0.717286 -25.578201
v -3.484939 0.733346 -25.569775
v -3.484939 0.717286 -25.569775
v -3.451859 0.733346 -25.583477
v -3.451859 0.717286 -25.583477
v -3.432716 0.733346 -25.614536
v -3.432716 0.717286 -25.614536
v -3.401655 0.733346 -25.633680
v -3.401655 0.717286 -25.633680
v -3.387953 0.733346 -25.666761
v -3.387953 0.717286 -25.666761
v -3.396380 0.733346 -25.702261
v -3.396380 0.717286 -25.702261
v -3.387953 0.733346 -25.737761
v -3.387953 0.717286 -25.737761
v -3.401655 0.733346 -25.770840
v -3.401655 0.717286 -25.770840
v -3.432716 0.733346 -25.789984
v -3.432716 0.717286 -25.789984
v -3.451859 0.733346 -25.821045
v -3.451859 0.717286 -25.821045
v -3.484939 0.733346 -25.834747
v -3.484939 0.717286 -25.834747
v -3.520439 0.733346 -25.826319
v -3.520439 0.717286 -25.826319
v -3.555939 0.733346 -25.834747
v -3.555939 0.717286 -25.834747
v -3.589019 0.733345 -25.821045
v -3.589019 0.717286 -25.821045
v -3.608162 0.733345 -25.789984
v -3.608162 0.717286 -25.789984
v -3.639223 0.733345 -25.770840
v -3.639223 0.717286 -25.770840
v -3.652925 0.733346 -25.737761
v -3.652925 0.717286 -25.737761
v -3.507739 0.737264 -25.689560
v -3.507739 0.737264 -25.714960
v -3.533139 0.737264 -25.689560
v -3.533139 0.737264 -25.714960
v -3.507739 0.672140 -25.689560
v -3.507739 0.672140 -25.714960
v -3.533139 0.672140 -25.689560
v -3.533139 0.672140 -25.714960
v -3.510914 0.730495 -25.692736
v -3.510914 0.730495 -25.711784
v -3.529964 0.730495 -25.692736
v -3.529964 0.730495 -25.711784
v -3.510914 0.720144 -25.692736
v -3.510914 0.720144 -25.711784
v -3.529964 0.720144 -25.692736
v -3.529964 0.720144 -25.711784
v -3.529964 0.730495 -25.608854
v -3.529964 0.720144 -25.608854
v -3.510914 0.720144 -25.608854
v -3.510914 0.730495 -25.608854
v -3.529964 0.720144 -25.795666
v -3.529964 0.730495 -25.795666
v -3.510914 0.730495 -25.795666
v -3.510914 0.720144 -25.795666
v -3.613845 0.730495 -25.692736
v -3.613845 0.730495 -25.711784
v -3.613845 0.720144 -25.711784
v -3.613845 0.720144 -25.692736
v -3.427033 0.720144 -25.692736
v -3.427033 0.720144 -25.711784
v -3.427033 0.730495 -25.711784
v -3.427033 0.730495 -25.692736
vt 0.824236 0.646822
vt 0.783767 0.614286
vt 0.829664 0.626620
vt 0.780953 0.599521
vt 0.729088 0.604646
vt 0.735860 0.584421
vt 0.734409 0.650989
vt 0.690661 0.677608
vt 0.717494 0.639178
vt 0.696101 0.563283
vt 0.666283 0.519401
vt 0.707442 0.545167
vt 0.666781 0.714699
vt 0.628609 0.750305
vt 0.647093 0.706408
vt 0.626379 0.471367
vt 0.656942 0.428269
vt 0.647230 0.475641
vt 0.658154 0.806102
vt 0.628176 0.849198
vt 0.637398 0.802042
vt 0.627892 0.371786
vt 0.666610 0.336432
vt 0.647577 0.380323
vt 0.668186 0.896573
vt 0.698152 0.939797
vt 0.657112 0.914637
vt 0.691265 0.299032
vt 0.736515 0.273381
vt 0.708066 0.311554
vt 0.737566 0.960336
vt 0.775465 0.994939
vt 0.730992 0.980282
vt 0.785683 0.238601
vt 0.824517 0.271171
vt 0.779976 0.258206
vt 0.826610 0.961611
vt 0.868326 0.987396
vt 0.823873 0.981177
vt 0.878020 0.247438
vt 0.908862 0.283946
vt 0.869553 0.265069
vt 0.910367 0.948475
vt 0.949244 0.919930
vt 0.927201 0.958177
vt 0.941738 0.307677
vt 0.963487 0.347807
vt 0.930471 0.322209
vt 0.966073 0.883464
vt 0.995166 0.849803
vt 0.983514 0.888690
vt 0.994020 0.390834
vt 0.966345 0.426308
vt 0.976449 0.386387
vt 0.967212 0.805446
vt 0.995166 0.769946
vt 0.984838 0.809992
vt 0.994020 0.472188
vt 0.963734 0.505090
vt 0.976662 0.466389
vt 0.964269 0.726633
vt 0.942691 0.686306
vt 0.975637 0.712132
vt 0.948007 0.539570
vt 0.910941 0.570093
vt 0.930737 0.530857
vt 0.727547 0.859939
vt 0.697791 0.838941
vt 0.717762 0.834728
vt 0.910409 0.660435
vt 0.878694 0.621895
vt 0.919488 0.642138
vt 0.869538 0.611303
vt 0.826409 0.586018
vt 0.871862 0.591297
vt 0.719219 0.805598
vt 0.697881 0.773496
vt 0.716498 0.776613
vt 0.792317 0.550049
vt 0.790554 0.683027
vt 0.821848 0.687896
vt 0.758814 0.539052
vt 0.778338 0.634488
vt 0.736221 0.514366
vt 0.758267 0.695671
vt 0.707576 0.689418
vt 0.711494 0.493799
vt 0.710604 0.740278
vt 0.736196 0.719483
vt 0.696441 0.461574
vt 0.699395 0.428622
vt 0.648297 0.758595
vt 0.697340 0.395798
vt 0.700373 0.805923
vt 0.710238 0.362599
vt 0.648932 0.853257
vt 0.736261 0.342511
vt 0.712793 0.870880
vt 0.709226 0.921733
vt 0.758504 0.319158
vt 0.760093 0.915488
vt 0.737547 0.890930
vt 0.790289 0.306026
vt 0.793147 0.926272
vt 0.821463 0.311891
vt 0.782038 0.974992
vt 0.853410 0.311119
vt 0.855941 0.922458
vt 0.823647 0.920945
vt 0.883904 0.323394
vt 0.885316 0.907653
vt 0.871064 0.967830
vt 0.902728 0.346998
vt 0.932410 0.910228
vt 0.923251 0.367379
vt 0.925924 0.864760
vt 0.904394 0.885176
vt 0.932399 0.397092
vt 0.933194 0.834432
vt 0.928400 0.426265
vt 0.977724 0.844577
vt 0.932483 0.455869
vt 0.933636 0.776142
vt 0.929515 0.805805
vt 0.923285 0.485502
vt 0.977540 0.765400
vt 0.901374 0.506293
vt 0.923525 0.746812
vt 0.931324 0.700807
vt 0.884700 0.530540
vt 0.884637 0.700690
vt 0.901835 0.726036
vt 0.855537 0.546093
vt 0.869615 0.640192
vt 0.823196 0.545063
vt 0.854263 0.687004
vt 0.770945 0.898229
vt 0.750428 0.876266
vt 0.821969 0.901885
vt 0.794837 0.908429
vt 0.874799 0.893598
vt 0.851846 0.903531
vt 0.910553 0.856300
vt 0.891790 0.873525
vt 0.911136 0.805999
vt 0.915873 0.832994
vt 0.909428 0.755861
vt 0.915776 0.778094
vt 0.873708 0.715035
vt 0.887205 0.738275
vt 0.820414 0.706613
vt 0.850672 0.704975
vt 0.793638 0.701904
vt 0.727448 0.751593
vt 0.749543 0.733636
vt 0.726552 0.482793
vt 0.718295 0.428668
vt 0.726834 0.373968
vt 0.768818 0.334609
vt 0.819687 0.330818
vt 0.873077 0.338719
vt 0.909180 0.375785
vt 0.909935 0.425979
vt 0.907678 0.475885
vt 0.851044 0.527138
vt 0.874053 0.517740
vt 0.821491 0.526316
vt 0.769657 0.521577
vt 0.906735 0.125477
vt 0.877177 0.095919
vt 0.906735 0.095919
vt 0.965850 0.095919
vt 0.995408 0.020134
vt 0.995408 0.095919
vt 0.936293 0.020134
vt 0.906735 0.020134
vt 0.877177 0.020134
vt 0.965850 0.020134
vt 0.806356 0.208904
vt 0.903968 0.196858
vt 0.903968 0.208904
vt 0.806356 0.196858
vt 0.903968 0.174689
vt 0.866173 0.112988
vt 0.768562 0.125034
vt 0.768562 0.112988
vt 0.866173 0.090820
vt 0.768562 0.090820
vt 0.866173 0.147203
vt 0.768562 0.159249
vt 0.768562 0.147203
vt 0.866173 0.125034
vt 0.772173 0.030086
vt 0.869785 0.018040
vt 0.869785 0.030086
vt 0.772173 0.052255
vt 0.869785 0.052255
vt 0.772173 0.064301
vt 0.869785 0.064301
vt 0.772173 0.086469
vt 0.869785 0.086469
vt 0.806356 0.231072
vt 0.903968 0.231072
vt 0.806356 0.174689
vt 0.903968 0.162643
vt 0.911593 0.102347
vt 0.933761 0.199959
vt 0.911593 0.199959
vt 0.967975 0.102347
vt 0.980021 0.199959
vt 0.967975 0.199959
vt 0.945807 0.102347
vt 0.945807 0.199959
vt 0.933761 0.102347
vt 0.774180 0.619745
vt 0.654942 0.537517
vt 0.636091 0.423994
vt 0.646924 0.327896
vt 0.719713 0.260859
vt 0.830223 0.251566
vt 0.917328 0.266315
vt 0.974754 0.333275
vt 0.983916 0.430755
vt 0.981092 0.510888
vt 0.928211 0.578806
vt 0.824086 0.606024
vt 0.768642 0.711381
vt 0.716383 0.457347
vt 0.716081 0.399071
vt 0.749331 0.357049
vt 0.793205 0.324837
vt 0.850280 0.328707
vt 0.890132 0.358700
vt 0.914235 0.398996
vt 0.916326 0.454589
vt 0.886983 0.494591
vt 0.794262 0.531873
vt 0.749295 0.499888
vt 0.877177 0.125477
vt 0.936293 0.095919
vt 0.866173 0.159249
vt 0.772173 0.018040
vt 0.806356 0.162643
vt 0.980021 0.102347
vn -1.0000 0.0000 0.0000
vn -0.9968 0.0000 0.0797
vn -0.7612 0.0000 0.6485
vn -0.7613 0.0000 0.6484
vn -0.7071 0.0000 0.7071
vn -0.6485 0.0000 0.7612
vn -0.0797 0.0000 0.9968
vn 0.0000 0.0000 1.0000
vn 0.0797 0.0000 0.9968
vn 0.6485 0.0000 0.7612
vn 0.7071 0.0000 0.7071
vn 0.7612 0.0000 0.6485
vn 0.7613 0.0000 0.6484
vn 0.9968 0.0000 0.0797
vn 1.0000 0.0000 0.0000
vn 0.9968 0.0000 -0.0797
vn 0.7612 0.0000 -0.6485
vn 0.7071 0.0000 -0.7071
vn 0.6485 0.0000 -0.7612
vn 0.0797 0.0000 -0.9968
vn -0.0000 0.0000 -1.0000
vn -0.0797 0.0000 -0.9968
vn -0.6485 0.0000 -0.7612
vn -0.7071 0.0000 -0.7071
vn -0.7612 0.0000 -0.6485
vn -0.6484 0.0000 -0.7613
vn -0.9968 0.0000 -0.0797
vn 0.0000 1.0000 -0.0000
vn 0.0000 -1.0000 -0.0000
vn -0.0798 0.0000 0.9968
vn 0.0798 0.0000 0.9968
vn 0.6485 0.0000 -0.7613
vn 0.6484 0.0000 -0.7613
vn -0.6485 0.0000 -0.7613
usemtl Valves
s 1
f 52/1/1 50/2/2 49/3/1
f 50/4/2 54/5/3 53/6/4
f 54/7/3 55/8/5 53/9/4
f 56/10/5 57/11/6 55/12/5
f 58/13/6 59/14/7 57/15/6
f 60/16/7 61/17/8 59/18/7
f 62/19/8 63/20/9 61/21/8
f 64/22/9 65/23/10 63/24/9
f 66/25/10 67/26/11 65/27/10
f 68/28/11 69/29/12 67/30/11
f 70/31/13 71/32/14 69/33/12
f 72/34/14 73/35/15 71/36/14
f 74/37/15 75/38/16 73/39/15
f 76/40/16 77/41/17 75/42/16
f 78/43/17 79/44/18 77/45/17
f 80/46/18 81/47/19 79/48/18
f 82/49/19 83/50/20 81/51/19
f 84/52/20 85/53/21 83/54/20
f 86/55/21 87/56/22 85/57/21
f 88/58/22 89/59/23 87/60/22
f 90/61/23 91/62/24 89/63/23
f 92/64/24 93/65/25 91/66/24
f 17/67/26 16/68/22 15/69/22
f 94/70/25 95/71/27 93/72/25
f 96/73/27 49/74/1 95/75/27
f 13/76/21 12/77/20 11/78/20
f 3/79/28 49/74/28 50/4/28
f 4/80/29 52/1/29 2/81/29
f 3/79/28 53/6/28 5/82/28
f 4/80/29 54/7/29 51/83/29
f 5/82/28 55/12/28 7/84/28
f 6/85/29 56/86/29 54/7/29
f 9/87/28 55/12/28 57/11/28
f 10/88/29 56/86/29 8/89/29
f 11/90/28 57/11/28 59/18/28
f 12/77/29 58/13/29 10/88/29
f 11/90/28 61/17/28 13/91/28
f 12/77/29 62/19/29 60/92/29
f 15/93/28 61/17/28 63/24/28
f 16/68/29 62/19/29 14/94/29
f 15/93/28 65/23/28 17/95/28
f 16/68/29 66/25/29 64/96/29
f 17/95/28 67/30/28 19/97/28
f 18/98/29 68/99/29 66/25/29
f 21/100/28 67/30/28 69/29/28
f 22/101/29 68/99/29 20/102/29
f 23/103/28 69/29/28 71/36/28
f 24/104/29 70/31/29 22/101/29
f 23/103/28 73/35/28 25/105/28
f 24/104/29 74/37/29 72/106/29
f 27/107/28 73/35/28 75/42/28
f 28/108/29 74/37/29 26/109/29
f 27/107/28 77/41/28 29/110/28
f 30/111/29 76/112/29 28/108/29
f 29/110/28 79/48/28 31/113/28
f 30/111/29 80/114/29 78/43/29
f 33/115/28 79/48/28 81/47/28
f 34/116/29 80/114/29 32/117/29
f 35/118/28 81/47/28 83/54/28
f 36/119/29 82/49/29 34/116/29
f 35/118/28 85/53/28 37/120/28
f 36/119/29 86/55/29 84/121/29
f 39/122/28 85/53/28 87/60/28
f 40/123/29 86/55/29 38/124/29
f 39/122/28 89/59/28 41/125/28
f 40/123/29 90/61/29 88/126/29
f 41/125/28 91/66/28 43/127/28
f 42/128/29 92/129/29 90/61/29
f 45/130/28 91/66/28 93/65/28
f 46/131/29 92/129/29 44/132/29
f 45/130/28 95/75/28 47/133/28
f 46/131/29 96/134/29 94/70/29
f 47/133/28 49/74/28 1/135/28
f 48/136/29 52/1/29 96/134/29
f 21/137/25 20/102/24 19/138/24
f 25/139/1 24/104/27 23/140/27
f 29/141/3 28/108/2 27/142/2
f 33/143/6 32/117/5 31/144/5
f 37/145/8 36/119/7 35/146/30
f 41/147/10 40/123/31 39/148/9
f 45/149/12 44/132/11 43/150/11
f 1/151/15 48/136/14 47/152/14
f 3/153/16 6/85/17 4/80/16
f 9/154/32 8/89/18 7/155/18
f 11/90/20 10/156/33 9/87/32
f 15/93/22 14/157/21 13/91/21
f 19/97/24 18/158/34 17/95/26
f 23/103/27 22/159/25 21/100/25
f 27/107/2 26/160/1 25/105/1
f 31/113/5 30/161/3 29/110/3
f 35/118/30 34/162/6 33/115/6
f 39/122/9 38/163/8 37/120/8
f 43/127/11 42/164/10 41/125/10
f 45/130/12 48/165/14 46/166/12
f 3/79/16 2/167/15 1/135/15
f 7/84/18 6/168/17 5/82/17
f 98/169/28 99/170/28 97/171/28
f 100/172/1 103/173/1 99/174/1
f 102/175/15 97/171/15 101/176/15
f 103/177/8 97/171/8 99/170/8
f 100/172/21 102/175/21 104/178/21
f 123/179/21 108/180/21 112/181/21
f 122/182/28 107/183/28 108/180/28
f 114/184/1 107/185/1 111/186/1
f 115/187/29 111/186/29 109/188/29
f 116/189/15 109/190/15 105/191/15
f 113/192/28 105/191/28 107/185/28
f 118/193/1 112/194/1 108/195/1
f 119/196/28 108/195/28 106/197/28
f 120/198/15 106/197/15 110/199/15
f 117/200/29 110/199/29 112/201/29
f 124/202/29 112/181/29 111/203/29
f 121/204/8 111/205/8 107/183/8
f 126/206/29 109/207/29 110/208/29
f 127/209/21 110/210/21 106/211/21
f 128/212/28 106/211/28 105/213/28
f 125/214/8 105/213/8 109/207/8
f 52/1/1 51/83/2 50/2/2
f 50/4/2 51/215/2 54/5/3
f 54/7/3 56/86/5 55/8/5
f 56/10/5 58/216/6 57/11/6
f 58/13/6 60/92/7 59/14/7
f 60/16/7 62/217/8 61/17/8
f 62/19/8 64/96/9 63/20/9
f 64/22/9 66/218/10 65/23/10
f 66/25/10 68/99/11 67/26/11
f 68/28/11 70/219/13 69/29/12
f 70/31/13 72/106/14 71/32/14
f 72/34/14 74/220/15 73/35/15
f 74/37/15 76/112/16 75/38/16
f 76/40/16 78/221/17 77/41/17
f 78/43/17 80/114/18 79/44/18
f 80/46/18 82/222/19 81/47/19
f 82/49/19 84/121/20 83/50/20
f 84/52/20 86/223/21 85/53/21
f 86/55/21 88/126/22 87/56/22
f 88/58/22 90/224/23 89/59/23
f 90/61/23 92/129/24 91/62/24
f 92/64/24 94/225/25 93/65/25
f 17/67/26 18/98/34 16/68/22
f 94/70/25 96/134/27 95/71/27
f 96/73/27 52/226/1 49/74/1
f 13/76/21 14/94/21 12/77/20
f 3/79/28 1/135/28 49/74/28
f 4/80/29 51/83/29 52/1/29
f 3/79/28 50/4/28 53/6/28
f 4/80/29 6/85/29 54/7/29
f 5/82/28 53/6/28 55/12/28
f 6/85/29 8/89/29 56/86/29
f 9/87/28 7/84/28 55/12/28
f 10/88/29 58/13/29 56/86/29
f 11/90/28 9/87/28 57/11/28
f 12/77/29 60/92/29 58/13/29
f 11/90/28 59/18/28 61/17/28
f 12/77/29 14/94/29 62/19/29
f 15/93/28 13/91/28 61/17/28
f 16/68/29 64/96/29 62/19/29
f 15/93/28 63/24/28 65/23/28
f 16/68/29 18/98/29 66/25/29
f 17/95/28 65/23/28 67/30/28
f 18/98/29 20/102/29 68/99/29
f 21/100/28 19/97/28 67/30/28
f 22/101/29 70/31/29 68/99/29
f 23/103/28 21/100/28 69/29/28
f 24/104/29 72/106/29 70/31/29
f 23/103/28 71/36/28 73/35/28
f 24/104/29 26/109/29 74/37/29
f 27/107/28 25/105/28 73/35/28
f 28/108/29 76/112/29 74/37/29
f 27/107/28 75/42/28 77/41/28
f 30/111/29 78/43/29 76/112/29
f 29/110/28 77/41/28 79/48/28
f 30/111/29 32/117/29 80/114/29
f 33/115/28 31/113/28 79/48/28
f 34/116/29 82/49/29 80/114/29
f 35/118/28 33/115/28 81/47/28
f 36/119/29 84/121/29 82/49/29
f 35/118/28 83/54/28 85/53/28
f 36/119/29 38/124/29 86/55/29
f 39/122/28 37/120/28 85/53/28
f 40/123/29 88/126/29 86/55/29
f 39/122/28 87/60/28 89/59/28
f 40/123/29 42/128/29 90/61/29
f 41/125/28 89/59/28 91/66/28
f 42/128/29 44/132/29 92/129/29
f 45/130/28 43/127/28 91/66/28
f 46/131/29 94/70/29 92/129/29
f 45/130/28 93/65/28 95/75/28
f 46/131/29 48/136/29 96/134/29
f 47/133/28 95/75/28 49/74/28
f 48/136/29 2/81/29 52/1/29
f 21/137/25 22/101/25 20/102/24
f 25/139/1 26/109/1 24/104/27
f 29/141/3 30/111/3 28/108/2
f 33/143/6 34/116/6 32/117/5
f 37/145/8 38/124/8 36/119/7
f 41/147/10 42/128/10 40/123/31
f 45/149/12 46/131/12 44/132/11
f 1/151/15 2/81/15 48/136/14
f 3/153/16 5/227/17 6/85/17
f 9/154/32 10/88/33 8/89/18
f 11/90/20 12/228/20 10/156/33
f 15/93/22 16/229/22 14/157/21
f 19/97/24 20/230/24 18/158/34
f 23/103/27 24/231/27 22/159/25
f 27/107/2 28/232/2 26/160/1
f 31/113/5 32/233/5 30/161/3
f 35/118/30 36/234/7 34/162/6
f 39/122/9 40/235/31 38/163/8
f 43/127/11 44/236/11 42/164/10
f 45/130/12 47/133/14 48/165/14
f 3/79/16 4/237/16 2/167/15
f 7/84/18 8/238/18 6/168/17
f 98/169/28 100/239/28 99/170/28
f 100/172/1 104/178/1 103/173/1
f 102/175/15 98/240/15 97/171/15
f 103/177/8 101/176/8 97/171/8
f 100/172/21 98/240/21 102/175/21
f 123/179/21 122/182/21 108/180/21
f 122/182/28 121/204/28 107/183/28
f 114/184/1 113/192/1 107/185/1
f 115/187/29 114/184/29 111/186/29
f 116/189/15 115/241/15 109/190/15
f 113/192/28 116/189/28 105/191/28
f 118/193/1 117/242/1 112/194/1
f 119/196/28 118/193/28 108/195/28
f 120/198/15 119/196/15 106/197/15
f 117/200/29 120/198/29 110/199/29
f 124/202/29 123/179/29 112/181/29
f 121/204/8 124/243/8 111/205/8
f 126/206/29 125/214/29 109/207/29
f 127/209/21 126/244/21 110/210/21
f 128/212/28 127/209/28 106/211/28
f 125/214/8 128/212/8 105/213/8
